<svg width="237" height="156" viewBox="0 0 237 156" fill="none" xmlns="http://www.w3.org/2000/svg">
<g filter="url(#filter0_d_3532_608)">
<rect x="10.8915" y="8.71326" width="212.386" height="131.419" rx="12.7003" fill="white"/>
<path d="M30.9506 22.7606C30.9506 22.6928 30.9845 22.659 31.0522 22.659H31.5704C31.6381 22.659 31.672 22.6928 31.672 22.7606V29.6695C31.672 29.7373 31.6381 29.7711 31.5704 29.7711H31.0624C31.015 29.7711 30.9743 29.7474 30.9405 29.7L27.4758 24.0611C27.4691 24.0408 27.4589 24.034 27.4454 24.0408C27.4318 24.0408 27.425 24.0509 27.425 24.0712L27.4352 29.6695C27.4352 29.7373 27.4013 29.7711 27.3336 29.7711H26.8154C26.7477 29.7711 26.7138 29.7373 26.7138 29.6695V22.7606C26.7138 22.6928 26.7477 22.659 26.8154 22.659H27.3234C27.3709 22.659 27.4115 22.6827 27.4454 22.7301L30.91 28.369C30.9168 28.3893 30.9269 28.3995 30.9405 28.3995C30.954 28.3927 30.9608 28.3792 30.9608 28.3588L30.9506 22.7606ZM37.3798 26.337C37.4069 26.5266 37.4205 26.7637 37.4205 27.0482V27.3733C37.4205 27.441 37.3866 27.4749 37.3189 27.4749H34.0371C34.01 27.4749 33.9965 27.4885 33.9965 27.5156C34.01 27.8881 34.0303 28.1286 34.0574 28.2369C34.1319 28.5417 34.2911 28.7822 34.535 28.9583C34.7788 29.1344 35.0904 29.2225 35.4697 29.2225C35.7542 29.2225 36.0048 29.1581 36.2216 29.0294C36.4383 28.9007 36.6077 28.7178 36.7296 28.4808C36.7702 28.4198 36.8176 28.4063 36.8718 28.4401L37.2681 28.6738C37.3223 28.7077 37.3358 28.7551 37.3087 28.8161C37.1394 29.1412 36.8854 29.3986 36.5467 29.5882C36.208 29.7711 35.8185 29.8626 35.3783 29.8626C34.8973 29.8558 34.4943 29.7406 34.1692 29.5171C33.8441 29.2936 33.6104 28.982 33.4681 28.5824C33.3462 28.2572 33.2853 27.7899 33.2853 27.1803C33.2853 26.8958 33.2887 26.6655 33.2954 26.4894C33.309 26.3065 33.3361 26.1439 33.3767 26.0017C33.4919 25.5614 33.7222 25.2092 34.0676 24.945C34.4198 24.6809 34.8432 24.5488 35.3376 24.5488C35.954 24.5488 36.4282 24.7046 36.7601 25.0161C37.092 25.3277 37.2985 25.768 37.3798 26.337ZM35.3376 25.1787C35.0057 25.1787 34.728 25.2668 34.5045 25.4429C34.2877 25.6122 34.1455 25.8425 34.0778 26.1338C34.0371 26.276 34.01 26.5063 33.9965 26.8247C33.9965 26.8518 34.01 26.8653 34.0371 26.8653H36.6686C36.6957 26.8653 36.7093 26.8518 36.7093 26.8247C36.6957 26.5199 36.6754 26.3031 36.6483 26.1744C36.5738 25.8696 36.4214 25.6291 36.1911 25.453C35.9676 25.2701 35.6831 25.1787 35.3376 25.1787ZM41.092 25.1279C41.092 25.1956 41.0582 25.2295 40.9904 25.2295H39.8423C39.8152 25.2295 39.8017 25.2431 39.8017 25.2701V28.2674C39.8017 28.5925 39.8728 28.8228 40.0151 28.9583C40.1641 29.087 40.3944 29.1513 40.7059 29.1513H40.96C41.0277 29.1513 41.0616 29.1852 41.0616 29.2529V29.6695C41.0616 29.7373 41.0277 29.7711 40.96 29.7711C40.8787 29.7779 40.7534 29.7813 40.584 29.7813C40.0963 29.7813 39.7272 29.6898 39.4766 29.507C39.2259 29.3241 39.1006 28.9854 39.1006 28.4909V25.2701C39.1006 25.2431 39.0871 25.2295 39.06 25.2295H38.4402C38.3725 25.2295 38.3386 25.1956 38.3386 25.1279V24.7317C38.3386 24.6639 38.3725 24.6301 38.4402 24.6301H39.06C39.0871 24.6301 39.1006 24.6165 39.1006 24.5894V23.4108C39.1006 23.3431 39.1345 23.3092 39.2022 23.3092H39.7001C39.7678 23.3092 39.8017 23.3431 39.8017 23.4108V24.5894C39.8017 24.6165 39.8152 24.6301 39.8423 24.6301H40.9904C41.0582 24.6301 41.092 24.6639 41.092 24.7317V25.1279ZM46.7152 29.8524C45.9498 29.8524 45.3436 29.6797 44.8966 29.3342C44.4563 28.9888 44.2361 28.5282 44.2361 27.9524V27.6375C44.2361 27.5697 44.27 27.5359 44.3377 27.5359H44.8356C44.9033 27.5359 44.9372 27.5697 44.9372 27.6375V27.9118C44.9372 28.3047 45.0998 28.623 45.4249 28.8669C45.75 29.1039 46.2004 29.2225 46.7762 29.2225C47.2978 29.2225 47.694 29.1141 47.9649 28.8973C48.2359 28.6738 48.3713 28.3792 48.3713 28.0134C48.3713 27.7763 48.307 27.5731 48.1783 27.4038C48.0564 27.2345 47.8633 27.0753 47.5992 26.9263C47.3418 26.7772 46.976 26.6045 46.5019 26.4081C45.9939 26.2049 45.5976 26.0288 45.3131 25.8798C45.0354 25.724 44.8085 25.5275 44.6324 25.2905C44.4631 25.0466 44.3784 24.7418 44.3784 24.376C44.3784 23.8071 44.5748 23.3668 44.9677 23.0552C45.3673 22.7369 45.9126 22.5777 46.6035 22.5777C47.3553 22.5777 47.948 22.7538 48.3815 23.106C48.815 23.4582 49.0318 23.9256 49.0318 24.5081V24.7317C49.0318 24.7994 48.9979 24.8333 48.9302 24.8333H48.4221C48.3544 24.8333 48.3205 24.7994 48.3205 24.7317V24.5488C48.3205 24.1559 48.1648 23.8342 47.8532 23.5836C47.5484 23.3329 47.1216 23.2076 46.573 23.2076C46.0921 23.2076 45.7229 23.3058 45.4655 23.5023C45.2081 23.6987 45.0794 23.9832 45.0794 24.3557C45.0794 24.5996 45.1404 24.8028 45.2623 24.9653C45.391 25.1211 45.5705 25.26 45.8008 25.3819C46.0379 25.4971 46.4003 25.6495 46.888 25.8391C47.3824 26.0423 47.7787 26.232 48.0767 26.4081C48.3815 26.5842 48.6254 26.801 48.8082 27.0583C48.9979 27.309 49.0927 27.6172 49.0927 27.9829C49.0927 28.5519 48.8827 29.0057 48.4628 29.3444C48.0428 29.6831 47.4603 29.8524 46.7152 29.8524ZM52.2122 24.5488C52.8218 24.5488 53.2926 24.7046 53.6245 25.0161C53.9564 25.3277 54.1223 25.7409 54.1223 26.2557V29.6695C54.1223 29.7373 54.0885 29.7711 54.0207 29.7711H53.5026C53.4348 29.7711 53.401 29.7373 53.401 29.6695V29.2529C53.401 29.2394 53.3942 29.2292 53.3806 29.2225C53.3739 29.2157 53.3637 29.2191 53.3502 29.2326C53.1808 29.4358 52.9607 29.5916 52.6898 29.7C52.4188 29.8016 52.1174 29.8524 51.7855 29.8524C51.3046 29.8524 50.9016 29.7305 50.5764 29.4866C50.2513 29.2428 50.0887 28.8702 50.0887 28.369C50.0887 27.861 50.2716 27.4614 50.6374 27.1701C51.0099 26.8721 51.5247 26.7231 52.1817 26.7231H53.3603C53.3874 26.7231 53.401 26.7095 53.401 26.6824V26.2963C53.401 25.9509 53.3028 25.6799 53.1063 25.4835C52.9167 25.2803 52.6186 25.1787 52.2122 25.1787C51.8871 25.1787 51.6229 25.2431 51.4197 25.3717C51.2165 25.4937 51.0912 25.6664 51.0438 25.8899C51.0235 25.9577 50.9828 25.9881 50.9219 25.9814L50.3732 25.9102C50.2987 25.8967 50.2682 25.8696 50.2818 25.829C50.336 25.4496 50.5392 25.1414 50.8914 24.9044C51.2436 24.6673 51.6839 24.5488 52.2122 24.5488ZM51.9277 29.2326C52.3274 29.2326 52.6728 29.1344 52.9641 28.938C53.2553 28.7348 53.401 28.4638 53.401 28.1252V27.3327C53.401 27.3056 53.3874 27.292 53.3603 27.292H52.2935C51.8465 27.292 51.4875 27.3835 51.2165 27.5664C50.9456 27.7492 50.8101 28.0032 50.8101 28.3284C50.8101 28.6264 50.9117 28.8533 51.1149 29.0091C51.3249 29.1581 51.5958 29.2326 51.9277 29.2326ZM55.725 29.7711C55.6573 29.7711 55.6234 29.7373 55.6234 29.6695V22.7606C55.6234 22.6928 55.6573 22.659 55.725 22.659H56.2432C56.3109 22.659 56.3448 22.6928 56.3448 22.7606V29.6695C56.3448 29.7373 56.3109 29.7711 56.2432 29.7711H55.725ZM61.9072 26.337C61.9343 26.5266 61.9478 26.7637 61.9478 27.0482V27.3733C61.9478 27.441 61.914 27.4749 61.8462 27.4749H58.5645C58.5374 27.4749 58.5239 27.4885 58.5239 27.5156C58.5374 27.8881 58.5577 28.1286 58.5848 28.2369C58.6593 28.5417 58.8185 28.7822 59.0623 28.9583C59.3062 29.1344 59.6178 29.2225 59.9971 29.2225C60.2816 29.2225 60.5322 29.1581 60.7489 29.0294C60.9657 28.9007 61.135 28.7178 61.257 28.4808C61.2976 28.4198 61.345 28.4063 61.3992 28.4401L61.7954 28.6738C61.8496 28.7077 61.8632 28.7551 61.8361 28.8161C61.6667 29.1412 61.4127 29.3986 61.0741 29.5882C60.7354 29.7711 60.3459 29.8626 59.9056 29.8626C59.4247 29.8558 59.0217 29.7406 58.6966 29.5171C58.3715 29.2936 58.1378 28.982 57.9955 28.5824C57.8736 28.2572 57.8126 27.7899 57.8126 27.1803C57.8126 26.8958 57.816 26.6655 57.8228 26.4894C57.8363 26.3065 57.8634 26.1439 57.9041 26.0017C58.0192 25.5614 58.2495 25.2092 58.595 24.945C58.9472 24.6809 59.3705 24.5488 59.865 24.5488C60.4814 24.5488 60.9555 24.7046 61.2874 25.0161C61.6193 25.3277 61.8259 25.768 61.9072 26.337ZM59.865 25.1787C59.5331 25.1787 59.2554 25.2668 59.0319 25.4429C58.8151 25.6122 58.6729 25.8425 58.6051 26.1338C58.5645 26.276 58.5374 26.5063 58.5239 26.8247C58.5239 26.8518 58.5374 26.8653 58.5645 26.8653H61.196C61.2231 26.8653 61.2366 26.8518 61.2366 26.8247C61.2231 26.5199 61.2028 26.3031 61.1757 26.1744C61.1012 25.8696 60.9488 25.6291 60.7185 25.453C60.4949 25.2701 60.2105 25.1787 59.865 25.1787ZM64.9798 29.8219C64.6005 29.8219 64.2618 29.761 63.9638 29.639C63.6725 29.5171 63.4456 29.3545 63.283 29.1513C63.1273 28.9481 63.0494 28.7212 63.0494 28.4706V28.3487C63.0494 28.281 63.0832 28.2471 63.151 28.2471H63.6386C63.7064 28.2471 63.7403 28.281 63.7403 28.3487V28.43C63.7403 28.6535 63.8554 28.8499 64.0857 29.0193C64.3228 29.1818 64.6174 29.2631 64.9696 29.2631C65.3219 29.2631 65.6063 29.1852 65.8231 29.0294C66.0398 28.8669 66.1482 28.6637 66.1482 28.4198C66.1482 28.2505 66.0906 28.1116 65.9755 28.0032C65.8671 27.8949 65.735 27.8102 65.5792 27.7492C65.4302 27.6883 65.1965 27.6104 64.8782 27.5156C64.4989 27.4072 64.1873 27.2988 63.9435 27.1904C63.6996 27.082 63.493 26.933 63.3237 26.7434C63.1611 26.5469 63.0798 26.2997 63.0798 26.0017C63.0798 25.5682 63.2492 25.2227 63.5878 24.9653C63.9265 24.7079 64.3736 24.5793 64.929 24.5793C65.3015 24.5793 65.63 24.6402 65.9145 24.7621C66.2058 24.8841 66.4293 25.0534 66.5851 25.2701C66.7409 25.4801 66.8188 25.7172 66.8188 25.9814V26.0118C66.8188 26.0796 66.7849 26.1134 66.7172 26.1134H66.2397C66.1719 26.1134 66.1381 26.0796 66.1381 26.0118V25.9814C66.1381 25.7511 66.0263 25.558 65.8028 25.4022C65.586 25.2464 65.2914 25.1685 64.9188 25.1685C64.5734 25.1685 64.2957 25.2397 64.0857 25.3819C63.8757 25.5174 63.7707 25.707 63.7707 25.9509C63.7707 26.1812 63.8723 26.3573 64.0755 26.4792C64.2787 26.6011 64.5937 26.7231 65.0204 26.845C65.4133 26.9601 65.7317 27.0685 65.9755 27.1701C66.2193 27.2717 66.4293 27.4207 66.6054 27.6172C66.7815 27.8068 66.8696 28.0574 66.8696 28.369C66.8696 28.8093 66.6969 29.1615 66.3514 29.4257C66.006 29.6898 65.5488 29.8219 64.9798 29.8219Z" fill="#2A4A45"/>
<path d="M33.8503 56.7382C33.8503 57.7948 33.5116 58.6686 32.8342 59.3595C32.1704 60.0369 31.2425 60.4433 30.0504 60.5787C29.9962 60.5787 29.9691 60.6058 29.9691 60.66L29.9894 62.0825C29.9894 62.2179 29.9217 62.2857 29.7862 62.2857H28.445C28.3096 62.2857 28.2418 62.2179 28.2418 62.0825L28.2622 60.6397C28.2622 60.5855 28.2351 60.5584 28.1809 60.5584C26.9752 60.3959 26.0337 59.9759 25.3563 59.2986C24.679 58.6077 24.3403 57.7271 24.3403 56.6569V56.0676C24.3403 55.9321 24.408 55.8644 24.5435 55.8644H25.9456C26.0811 55.8644 26.1488 55.9321 26.1488 56.0676V56.5553C26.1488 57.2462 26.4333 57.8152 27.0023 58.2622C27.5713 58.7093 28.3434 58.9328 29.3188 58.9328C30.1994 58.9328 30.8632 58.7364 31.3102 58.3435C31.7708 57.9506 32.0011 57.4358 32.0011 56.7991C32.0011 56.3792 31.886 56.0202 31.6557 55.7222C31.4254 55.4241 31.0867 55.1532 30.6396 54.9093C30.1926 54.652 29.5423 54.3471 28.6889 53.9949C27.7406 53.6156 26.9955 53.2702 26.4536 52.9586C25.9118 52.647 25.4579 52.2406 25.0922 51.7394C24.7399 51.2246 24.5638 50.5811 24.5638 49.8089C24.5638 48.7794 24.8822 47.9462 25.5189 47.3095C26.1556 46.6593 27.0226 46.2596 28.1199 46.1106C28.1741 46.1106 28.2012 46.0835 28.2012 46.0293L28.1809 44.4646C28.1809 44.3292 28.2486 44.2614 28.3841 44.2614H29.7049C29.8404 44.2614 29.9081 44.3292 29.9081 44.4646L29.8878 46.0496C29.8878 46.1038 29.9149 46.1377 29.9691 46.1512C31.1341 46.3138 32.0485 46.7473 32.7123 47.4518C33.3897 48.1562 33.7283 49.0435 33.7283 50.1137V50.5201C33.7283 50.6556 33.6606 50.7233 33.5251 50.7233H32.1027C31.9672 50.7233 31.8995 50.6556 31.8995 50.5201V50.2153C31.8995 49.5109 31.6353 48.9284 31.107 48.4678C30.5787 47.9936 29.8404 47.7566 28.8921 47.7566C28.0928 47.7566 27.4764 47.9327 27.0429 48.2849C26.6094 48.6236 26.3927 49.118 26.3927 49.7683C26.3927 50.2153 26.5011 50.5811 26.7178 50.8656C26.9481 51.1501 27.2732 51.4075 27.6932 51.6378C28.1267 51.8545 28.7837 52.139 29.6643 52.4912C30.5855 52.8705 31.3238 53.2227 31.8792 53.5479C32.4482 53.8595 32.9155 54.2794 33.2813 54.8077C33.6606 55.3225 33.8503 55.966 33.8503 56.7382ZM38.2898 46.2935C38.3711 46.2528 38.4591 46.2325 38.554 46.2325H40.1593C40.2948 46.2325 40.3625 46.3003 40.3625 46.4357V60.2536C40.3625 60.3891 40.2948 60.4568 40.1593 60.4568H38.6149C38.4795 60.4568 38.4117 60.3891 38.4117 60.2536V48.3255C38.4117 48.2984 38.3982 48.2781 38.3711 48.2646C38.3575 48.251 38.3372 48.251 38.3101 48.2646L36.1765 48.9961C36.1494 49.0096 36.1155 49.0164 36.0749 49.0164C35.9936 49.0164 35.9462 48.9622 35.9326 48.8539L35.8514 47.6956C35.8514 47.5601 35.892 47.4788 35.9733 47.4518L38.2898 46.2935ZM51.1844 48.7319C51.3876 49.3009 51.4892 49.9579 51.4892 50.703V56.9617C51.4892 58.0726 51.1031 58.9599 50.3309 59.6237C49.5587 60.2875 48.5495 60.6194 47.3032 60.6194C46.5039 60.6194 45.7927 60.4704 45.1695 60.1723C44.5599 59.8743 44.0858 59.4611 43.7471 58.9328C43.4084 58.3909 43.2391 57.7745 43.2391 57.0836V56.6772C43.2391 56.5418 43.3068 56.474 43.4423 56.474H44.9867C45.1221 56.474 45.1899 56.5418 45.1899 56.6772V56.8601C45.1899 57.4697 45.3863 57.9642 45.7791 58.3435C46.172 58.7228 46.68 58.9125 47.3032 58.9125C47.9534 58.9125 48.4885 58.716 48.9085 58.3232C49.3284 57.9303 49.5384 57.4088 49.5384 56.7585V54.1981C49.5384 54.171 49.5249 54.1507 49.4978 54.1372C49.4842 54.1236 49.4639 54.1304 49.4368 54.1575C48.8543 54.8213 48.0076 55.1532 46.8968 55.1532C46.0975 55.1532 45.4066 54.9906 44.8241 54.6655C44.2551 54.3404 43.8081 53.8662 43.4829 53.2431C43.1036 52.5251 42.914 51.6649 42.914 50.6624C42.914 49.8496 43.0427 49.1248 43.3001 48.4881C43.6116 47.7159 44.0993 47.1266 44.7631 46.7202C45.4269 46.3003 46.2262 46.0903 47.1609 46.0903C48.1634 46.0903 49.0101 46.3206 49.701 46.7812C50.3919 47.2418 50.8863 47.892 51.1844 48.7319ZM49.2133 52.288C49.43 51.841 49.5384 51.2652 49.5384 50.5608C49.5384 49.9918 49.4504 49.5109 49.2743 49.118C49.0981 48.6845 48.834 48.3594 48.4818 48.1426C48.1295 47.9123 47.7028 47.7972 47.2016 47.7972C46.7003 47.7972 46.2736 47.9123 45.9214 48.1426C45.5827 48.3594 45.3321 48.6777 45.1695 49.0977C44.9663 49.5177 44.8647 50.0392 44.8647 50.6624C44.8647 51.3397 44.9799 51.8951 45.2102 52.3287C45.6301 53.1144 46.2939 53.5072 47.2016 53.5072C48.1634 53.5072 48.834 53.1008 49.2133 52.288ZM54.0169 62.2044C53.9491 62.2044 53.8949 62.1841 53.8543 62.1434C53.8272 62.1028 53.8204 62.0486 53.834 61.9808L54.6468 57.4697C54.6739 57.3478 54.7484 57.2868 54.8703 57.2868H56.2115C56.2792 57.2868 56.3266 57.3072 56.3537 57.3478C56.3943 57.3884 56.4079 57.4426 56.3943 57.5104L55.1954 62.0215C55.1683 62.1434 55.0938 62.2044 54.9719 62.2044H54.0169ZM60.8582 60.4568C60.7904 60.4568 60.7362 60.4365 60.6956 60.3959C60.6685 60.3417 60.6685 60.2807 60.6956 60.213L65.3083 48.0207C65.3219 47.9936 65.3219 47.9733 65.3083 47.9598C65.2948 47.9327 65.2745 47.9191 65.2474 47.9191H60.3502C60.296 47.9191 60.2689 47.9462 60.2689 48.0004V48.9555C60.2689 49.0909 60.2011 49.1587 60.0657 49.1587H58.8464C58.711 49.1587 58.6432 49.0909 58.6432 48.9555V46.4357C58.6432 46.3003 58.711 46.2325 58.8464 46.2325H67.1981C67.3336 46.2325 67.4013 46.3003 67.4013 46.4357V47.7972C67.4013 47.8514 67.3878 47.9327 67.3607 48.041L62.7683 60.2943C62.7276 60.4026 62.6531 60.4568 62.5448 60.4568H60.8582ZM76.961 53.4463C77.3403 54.1643 77.53 55.0245 77.53 56.027C77.53 56.8533 77.3945 57.5781 77.1235 58.2013C76.812 58.9734 76.3243 59.5695 75.6605 59.9894C75.0102 60.3959 74.2177 60.5991 73.283 60.5991C72.2805 60.5991 71.4271 60.3688 70.7226 59.9082C70.0317 59.4476 69.544 58.7973 69.2595 57.9574C69.0563 57.3884 68.9547 56.7314 68.9547 55.9863V49.7276C68.9547 48.6168 69.3408 47.7295 70.113 47.0657C70.8852 46.4019 71.8944 46.07 73.1407 46.07C73.94 46.07 74.6445 46.219 75.2541 46.517C75.8772 46.815 76.3581 47.235 76.6968 47.7769C77.0355 48.3052 77.2048 48.9148 77.2048 49.6057V50.0121C77.2048 50.1476 77.1371 50.2153 77.0016 50.2153H75.4573C75.3218 50.2153 75.2541 50.1476 75.2541 50.0121V49.8292C75.2541 49.2196 75.0576 48.7252 74.6648 48.3458C74.2719 47.9665 73.7639 47.7769 73.1407 47.7769C72.4769 47.7769 71.9351 47.9733 71.5151 48.3662C71.1087 48.759 70.9055 49.2806 70.9055 49.9308V52.4912C70.9055 52.5183 70.9123 52.5386 70.9258 52.5522C70.9529 52.5522 70.98 52.5386 71.0071 52.5115C71.5896 51.8613 72.4363 51.5362 73.5472 51.5362C75.1457 51.5362 76.2836 52.1729 76.961 53.4463ZM75.2744 57.5916C75.4776 57.1581 75.5792 56.6366 75.5792 56.027C75.5792 55.3361 75.4573 54.7806 75.2134 54.3607C74.8206 53.575 74.1568 53.1821 73.222 53.1821C72.7479 53.1821 72.3415 53.2905 72.0028 53.5072C71.6641 53.7104 71.4067 54.0085 71.2306 54.4013C71.0139 54.8484 70.9055 55.4241 70.9055 56.1286C70.9055 56.6975 70.9936 57.1785 71.1697 57.5713C71.3458 58.0048 71.6099 58.3367 71.9622 58.567C72.3144 58.7838 72.7411 58.8921 73.2423 58.8921C74.2313 58.8921 74.9086 58.4586 75.2744 57.5916ZM87.9429 54.1575C88.0919 54.7536 88.1664 55.3699 88.1664 56.0066C88.1664 56.6434 88.0851 57.2326 87.9226 57.7745C87.6652 58.6415 87.1707 59.3324 86.4392 59.8472C85.7212 60.3484 84.861 60.5991 83.8585 60.5991C82.8696 60.5991 82.0229 60.3552 81.3184 59.8675C80.614 59.3798 80.1195 58.716 79.8351 57.8761C79.6996 57.4968 79.6251 57.1649 79.6115 56.8804V56.8398C79.6115 56.7314 79.6725 56.6772 79.7944 56.6772H81.3997C81.5216 56.6772 81.5894 56.7382 81.6029 56.8601C81.6165 56.9549 81.6503 57.0972 81.7045 57.2868C81.8535 57.7881 82.1109 58.1877 82.4767 58.4857C82.856 58.7702 83.3098 58.9125 83.8382 58.9125C84.3936 58.9125 84.861 58.7634 85.2403 58.4654C85.6331 58.1538 85.8973 57.7271 86.0328 57.1852C86.1276 56.9007 86.175 56.5079 86.175 56.0066C86.175 55.5596 86.1344 55.1464 86.0531 54.7671C85.9583 54.2523 85.7144 53.8595 85.3216 53.5885C84.9422 53.304 84.4681 53.1618 83.8991 53.1618C83.3708 53.1618 82.8967 53.2837 82.4767 53.5276C82.0567 53.7579 81.7858 54.0694 81.6639 54.4623C81.6232 54.5842 81.5487 54.6452 81.4404 54.6452H79.8147C79.6793 54.6452 79.6115 54.5774 79.6115 54.442V46.4357C79.6115 46.3003 79.6793 46.2325 79.8147 46.2325H87.4146C87.55 46.2325 87.6178 46.3003 87.6178 46.4357V47.7159C87.6178 47.8514 87.55 47.9191 87.4146 47.9191H81.6436C81.5894 47.9191 81.5623 47.9462 81.5623 48.0004L81.542 52.2474C81.542 52.3287 81.5758 52.349 81.6436 52.3083C81.9687 52.0238 82.3412 51.8139 82.7612 51.6784C83.1947 51.5294 83.6485 51.4549 84.1227 51.4549C85.0709 51.4549 85.8838 51.6919 86.5611 52.1661C87.252 52.6402 87.7126 53.304 87.9429 54.1575ZM94.7998 60.66C93.4315 60.66 92.341 60.2739 91.5282 59.5018C90.7289 58.716 90.3293 57.6661 90.3293 56.3521V50.3373C90.3293 49.0232 90.7289 47.9801 91.5282 47.2079C92.341 46.4357 93.4315 46.0496 94.7998 46.0496C96.168 46.0496 97.2585 46.4357 98.0714 47.2079C98.8977 47.9801 99.3109 49.0232 99.3109 50.3373V56.3521C99.3109 57.6661 98.8977 58.716 98.0714 59.5018C97.2585 60.2739 96.168 60.66 94.7998 60.66ZM94.7998 58.9734C95.5855 58.9734 96.2087 58.7499 96.6692 58.3029C97.1298 57.8423 97.3601 57.2326 97.3601 56.474V50.256C97.3601 49.4973 97.1298 48.8945 96.6692 48.4475C96.2087 47.9869 95.5855 47.7566 94.7998 47.7566C94.0411 47.7566 93.4315 47.9869 92.9709 48.4475C92.5103 48.8945 92.28 49.4973 92.28 50.256V56.474C92.28 57.2326 92.5103 57.8423 92.9709 58.3029C93.4315 58.7499 94.0411 58.9734 94.7998 58.9734Z" fill="#264B45"/>
<path d="M155.649 64.4256C155.826 64.8597 155.914 65.3603 155.914 65.9274C155.914 66.397 155.844 66.8312 155.702 67.2299C155.507 67.7793 155.183 68.2046 154.732 68.5058C154.28 68.7982 153.735 68.9444 153.097 68.9444C152.459 68.9444 151.905 68.7805 151.435 68.4527C150.975 68.1248 150.651 67.6818 150.465 67.1236C150.368 66.8755 150.31 66.5211 150.292 66.0603C150.292 65.9717 150.337 65.9274 150.425 65.9274H151.449C151.537 65.9274 151.582 65.9717 151.582 66.0603C151.599 66.3793 151.635 66.6141 151.688 66.7647C151.777 67.0926 151.94 67.354 152.18 67.5489C152.428 67.7438 152.733 67.8413 153.097 67.8413C153.77 67.8413 154.222 67.5356 154.452 66.9242C154.568 66.6584 154.625 66.3128 154.625 65.8875C154.625 65.4357 154.554 65.0325 154.413 64.6781C154.164 64.1287 153.721 63.854 153.083 63.854C152.933 63.854 152.742 63.9205 152.512 64.0534C152.477 64.0711 152.45 64.08 152.432 64.08C152.388 64.08 152.352 64.0578 152.326 64.0135L151.821 63.3224C151.803 63.287 151.794 63.256 151.794 63.2294C151.794 63.2028 151.808 63.1718 151.834 63.1363L154.107 60.7041C154.133 60.6598 154.125 60.6377 154.08 60.6377H150.545C150.456 60.6377 150.412 60.5934 150.412 60.5048V59.6674C150.412 59.5788 150.456 59.5345 150.545 59.5345H155.702C155.79 59.5345 155.835 59.5788 155.835 59.6674V60.6244C155.835 60.6687 155.812 60.7218 155.768 60.7839L153.748 62.9901C153.73 63.0079 153.726 63.0256 153.735 63.0433C153.744 63.0522 153.761 63.061 153.788 63.0699C154.24 63.1142 154.621 63.256 154.931 63.4952C155.241 63.7256 155.48 64.0357 155.649 64.4256ZM159.057 67.6685C159.048 67.6862 159.048 67.704 159.057 67.7217C159.065 67.7305 159.079 67.735 159.096 67.735H163.097C163.186 67.735 163.23 67.7793 163.23 67.8679V68.7052C163.23 68.7938 163.186 68.8381 163.097 68.8381H157.528C157.439 68.8381 157.395 68.7938 157.395 68.7052V67.8945C157.395 67.8324 157.417 67.7793 157.462 67.735C157.763 67.3894 158.454 66.5787 159.535 65.3027L160.452 64.1996C161.276 63.2161 161.688 62.4541 161.688 61.9136C161.688 61.4971 161.546 61.1649 161.263 60.9168C160.988 60.6598 160.62 60.5313 160.16 60.5313C159.699 60.5313 159.331 60.6598 159.057 60.9168C158.782 61.1737 158.649 61.5104 158.658 61.9269V62.3256C158.658 62.4142 158.614 62.4585 158.525 62.4585H157.502C157.413 62.4585 157.369 62.4142 157.369 62.3256V61.7541C157.386 61.2933 157.515 60.8858 157.754 60.5313C158.002 60.1769 158.334 59.9067 158.751 59.7206C159.167 59.5257 159.637 59.4282 160.16 59.4282C160.727 59.4282 161.223 59.5345 161.648 59.7472C162.074 59.9598 162.401 60.2522 162.632 60.6244C162.862 60.9965 162.977 61.4174 162.977 61.887C162.977 62.6224 162.579 63.4908 161.781 64.492C161.427 64.9439 161.006 65.4534 160.519 66.0204C160.031 66.5787 159.544 67.128 159.057 67.6685ZM166.99 63.349C166.627 63.349 166.29 63.2604 165.98 63.0832C165.679 62.906 165.44 62.6667 165.263 62.3655C165.085 62.0642 164.997 61.7319 164.997 61.3687C164.997 61.0142 165.085 60.6864 165.263 60.3851C165.44 60.0839 165.679 59.8491 165.98 59.6807C166.29 59.5035 166.627 59.4149 166.99 59.4149C167.345 59.4149 167.673 59.5035 167.974 59.6807C168.275 59.8579 168.514 60.0972 168.692 60.3984C168.869 60.6908 168.957 61.0142 168.957 61.3687C168.957 61.7319 168.869 62.0642 168.692 62.3655C168.514 62.6667 168.275 62.906 167.974 63.0832C167.673 63.2604 167.345 63.349 166.99 63.349ZM166.605 68.8381C166.552 68.8381 166.516 68.8248 166.499 68.7982C166.481 68.7628 166.485 68.7229 166.512 68.6786L171.536 59.6276C171.571 59.5655 171.624 59.5345 171.695 59.5345H172.347C172.4 59.5345 172.435 59.5522 172.453 59.5877C172.471 59.6143 172.466 59.6497 172.44 59.694L167.416 68.7451C167.389 68.8071 167.336 68.8381 167.256 68.8381H166.605ZM166.99 62.5648C167.318 62.5648 167.593 62.4496 167.814 62.2193C168.036 61.9889 168.147 61.7054 168.147 61.3687C168.147 61.0408 168.032 60.7661 167.801 60.5446C167.58 60.3143 167.309 60.1991 166.99 60.1991C166.663 60.1991 166.383 60.3143 166.153 60.5446C165.923 60.7661 165.808 61.0408 165.808 61.3687C165.808 61.7054 165.923 61.9889 166.153 62.2193C166.383 62.4496 166.663 62.5648 166.99 62.5648ZM172.054 68.9577C171.691 68.9577 171.354 68.8691 171.044 68.6919C170.743 68.5147 170.504 68.2755 170.326 67.9742C170.149 67.6729 170.061 67.3451 170.061 66.9907C170.061 66.6363 170.149 66.3084 170.326 66.0072C170.504 65.7059 170.743 65.4667 171.044 65.2895C171.354 65.1122 171.691 65.0236 172.054 65.0236C172.409 65.0236 172.736 65.1122 173.038 65.2895C173.339 65.4667 173.578 65.7059 173.755 66.0072C173.933 66.3084 174.021 66.6363 174.021 66.9907C174.021 67.3451 173.933 67.6729 173.755 67.9742C173.578 68.2755 173.339 68.5147 173.038 68.6919C172.736 68.8691 172.409 68.9577 172.054 68.9577ZM172.054 68.1736C172.382 68.1736 172.657 68.0584 172.878 67.828C173.1 67.5976 173.211 67.3185 173.211 66.9907C173.211 66.6628 173.095 66.3837 172.865 66.1534C172.643 65.923 172.373 65.8078 172.054 65.8078C171.726 65.8078 171.447 65.923 171.217 66.1534C170.987 66.3837 170.871 66.6628 170.871 66.9907C170.871 67.3185 170.987 67.5976 171.217 67.828C171.447 68.0584 171.726 68.1736 172.054 68.1736Z" fill="#02B994"/>
<path d="M180.255 67.8421C180.098 68.1558 180.226 68.5372 180.539 68.694C180.853 68.8509 181.234 68.7237 181.391 68.41L180.255 67.8421ZM194.793 58.5846C194.784 58.234 194.493 57.9571 194.142 57.9661L188.429 58.1125C188.078 58.1215 187.801 58.413 187.81 58.7636C187.819 59.1142 188.111 59.3911 188.461 59.3822L193.54 59.2519L193.67 64.3304C193.679 64.681 193.971 64.9579 194.321 64.9489C194.672 64.9399 194.949 64.6484 194.94 64.2978L194.793 58.5846ZM183.309 63.154L182.741 62.87L183.309 63.154ZM181.391 68.41L183.877 63.438L182.741 62.87L180.255 67.8421L181.391 68.41ZM184.832 63.2187L186.832 64.7566L187.606 63.75L185.607 62.212L184.832 63.2187ZM189.374 64.5587L194.619 59.0382L193.698 58.1635L188.454 63.684L189.374 64.5587ZM186.832 64.7566C187.605 65.3514 188.702 65.266 189.374 64.5587L188.454 63.684C188.23 63.9198 187.864 63.9482 187.606 63.75L186.832 64.7566ZM183.877 63.438C184.056 63.0808 184.516 62.9752 184.832 63.2187L185.607 62.212C184.657 61.4816 183.277 61.7985 182.741 62.87L183.877 63.438Z" fill="#02B994"/>
<rect x="23.3853" y="120.687" width="14.5755" height="6.70505" rx="3.35252" fill="#02B994"/>
<rect x="46.9849" y="116.664" width="13.8814" height="10.7281" rx="3.81008" fill="#02B994"/>
<rect x="69.8901" y="110.631" width="14.5755" height="16.7626" rx="3.81008" fill="#02B994"/>
<rect x="92.096" y="101.913" width="14.5755" height="25.4792" rx="3.81008" fill="#02B994"/>
<rect x="114.308" y="87.8327" width="14.5755" height="39.5598" rx="3.81008" fill="#02B994"/>
<rect x="136.518" y="87.8327" width="14.5755" height="39.5598" rx="3.81008" fill="#02B994"/>
<rect x="158.73" y="81.798" width="14.5755" height="45.5943" rx="3.81008" fill="#02B994"/>
<rect x="180.938" y="69.7293" width="14.5755" height="57.6634" rx="3.81008" fill="#02B994"/>
</g>
<defs>
<filter id="filter0_d_3532_608" x="-2.96831e-05" y="7.15256e-07" width="236.348" height="155.381" filterUnits="userSpaceOnUse" color-interpolation-filters="sRGB">
<feFlood flood-opacity="0" result="BackgroundImageFix"/>
<feColorMatrix in="SourceAlpha" type="matrix" values="0 0 0 0 0 0 0 0 0 0 0 0 0 0 0 0 0 0 127 0" result="hardAlpha"/>
<feOffset dx="1.08916" dy="3.26747"/>
<feGaussianBlur stdDeviation="5.99036"/>
<feComposite in2="hardAlpha" operator="out"/>
<feColorMatrix type="matrix" values="0 0 0 0 0 0 0 0 0 0 0 0 0 0 0 0 0 0 0.11 0"/>
<feBlend mode="normal" in2="BackgroundImageFix" result="effect1_dropShadow_3532_608"/>
<feBlend mode="normal" in="SourceGraphic" in2="effect1_dropShadow_3532_608" result="shape"/>
</filter>
</defs>
</svg>
