<svg width="314" height="261" viewBox="0 0 314 261" fill="none" xmlns="http://www.w3.org/2000/svg">
<g filter="url(#filter0_dd_3531_607)">
<rect x="34.9005" y="29.0837" width="242.978" height="174.381" rx="7.56177" fill="white" shape-rendering="crispEdges"/>
<g clip-path="url(#clip0_3531_607)">
<path d="M47.2445 51.6265C46.6938 51.6265 46.2091 51.5218 45.7903 51.3124C45.3792 51.103 45.0613 50.8083 44.8363 50.4282C44.6114 50.0482 44.499 49.61 44.499 49.1136V48.2877C44.499 48.2101 44.5377 48.1713 44.6153 48.1713H45.4994C45.577 48.1713 45.6158 48.2101 45.6158 48.2877V49.1136C45.6158 49.579 45.7631 49.9551 46.0579 50.2421C46.3526 50.5213 46.7481 50.6609 47.2445 50.6609C47.7253 50.6609 48.117 50.5213 48.4195 50.2421C48.7219 49.9551 48.8732 49.579 48.8732 49.1136V43.5063C48.8732 43.4287 48.9119 43.39 48.9895 43.39H49.8736C49.9512 43.39 49.99 43.4287 49.99 43.5063V49.1136C49.99 49.61 49.8736 50.0482 49.641 50.4282C49.4161 50.8083 49.0942 51.103 48.6754 51.3124C48.2566 51.5218 47.7796 51.6265 47.2445 51.6265ZM55.5054 45.7283C55.5054 45.6507 55.5442 45.612 55.6218 45.612H56.4943C56.5718 45.612 56.6106 45.6507 56.6106 45.7283V51.4171C56.6106 51.4946 56.5718 51.5334 56.4943 51.5334H55.6218C55.5442 51.5334 55.5054 51.4946 55.5054 51.4171V50.9866C55.5054 50.9711 55.4977 50.9634 55.4822 50.9634C55.4744 50.9556 55.4628 50.9595 55.4473 50.975C55.137 51.4016 54.6601 51.6149 54.0164 51.6149C53.6363 51.6149 53.2834 51.5412 52.9577 51.3938C52.6397 51.2465 52.3838 51.0293 52.1899 50.7423C51.996 50.4554 51.8991 50.1064 51.8991 49.6953V45.7283C51.8991 45.6507 51.9378 45.612 52.0154 45.612H52.8879C52.9655 45.612 53.0042 45.6507 53.0042 45.7283V49.3463C53.0042 49.7496 53.1089 50.0676 53.3183 50.3003C53.5355 50.5329 53.838 50.6493 54.2258 50.6493C54.6135 50.6493 54.9238 50.5329 55.1564 50.3003C55.3891 50.0598 55.5054 49.7419 55.5054 49.3463V45.7283ZM61.1022 45.5305C61.7381 45.5305 62.2422 45.7167 62.6145 46.0889C62.9868 46.4535 63.1729 46.9498 63.1729 47.578V51.4171C63.1729 51.4946 63.1341 51.5334 63.0566 51.5334H62.1724C62.0949 51.5334 62.0561 51.4946 62.0561 51.4171V47.7991C62.0561 47.4113 61.9436 47.0972 61.7187 46.8567C61.4938 46.6163 61.1952 46.4961 60.8229 46.4961C60.4584 46.4961 60.1598 46.6163 59.9272 46.8567C59.6945 47.0972 59.5782 47.4074 59.5782 47.7874V51.4171C59.5782 51.4946 59.5394 51.5334 59.4618 51.5334H58.5777C58.5001 51.5334 58.4613 51.4946 58.4613 51.4171V45.7283C58.4613 45.6507 58.5001 45.612 58.5777 45.612H59.4618C59.5394 45.612 59.5782 45.6507 59.5782 45.7283V46.1471C59.5782 46.1626 59.582 46.1743 59.5898 46.182C59.6053 46.1898 59.6169 46.1859 59.6247 46.1704C59.9582 45.7438 60.4507 45.5305 61.1022 45.5305ZM69.7125 47.834C69.7435 48.1519 69.7551 48.5087 69.7474 48.9042C69.7474 48.9818 69.7086 49.0206 69.6311 49.0206H65.92C65.8889 49.0206 65.8734 49.0361 65.8734 49.0671C65.8734 49.3308 65.8967 49.5325 65.9432 49.6721C66.0285 49.9823 66.1992 50.2266 66.4551 50.405C66.7188 50.5756 67.0484 50.6609 67.444 50.6609C68.0179 50.6609 68.4599 50.4244 68.7702 49.9513C68.809 49.8737 68.8594 49.8621 68.9214 49.9164L69.5845 50.3584C69.6388 50.405 69.6504 50.4554 69.6194 50.5097C69.4023 50.8587 69.092 51.134 68.6887 51.3356C68.2932 51.5373 67.8434 51.6381 67.3393 51.6381C66.7731 51.6381 66.2961 51.514 65.9083 51.2658C65.5205 51.0177 65.2297 50.6648 65.0358 50.2072C64.8497 49.7496 64.7566 49.1951 64.7566 48.5436C64.7566 47.9774 64.7993 47.547 64.8846 47.2523C65.0242 46.7171 65.3034 46.2945 65.7222 45.9842C66.141 45.674 66.649 45.5189 67.2462 45.5189C68.0295 45.5189 68.6151 45.7167 69.0028 46.1122C69.3906 46.5 69.6272 47.0739 69.7125 47.834ZM67.2462 46.4845C66.9127 46.4845 66.6374 46.5698 66.4202 46.7404C66.203 46.9033 66.0557 47.1243 65.9781 47.4035C65.9238 47.5741 65.8889 47.7913 65.8734 48.055C65.8734 48.086 65.8889 48.1015 65.92 48.1015H68.584C68.6151 48.1015 68.6306 48.086 68.6306 48.055C68.6151 47.7991 68.5918 47.609 68.5608 47.485C68.4832 47.1825 68.3281 46.9421 68.0954 46.7637C67.8705 46.5775 67.5874 46.4845 67.2462 46.4845ZM75.1957 50.5097C75.1879 50.5252 75.1879 50.5407 75.1957 50.5562C75.2034 50.564 75.2151 50.5678 75.2306 50.5678H78.7323C78.8098 50.5678 78.8486 50.6066 78.8486 50.6842V51.4171C78.8486 51.4946 78.8098 51.5334 78.7323 51.5334H73.8578C73.7803 51.5334 73.7415 51.4946 73.7415 51.4171V50.7074C73.7415 50.6531 73.7609 50.6066 73.7997 50.5678C74.0634 50.2654 74.6683 49.5557 75.6145 48.4389L76.4172 47.4733C77.1385 46.6124 77.4991 45.9455 77.4991 45.4724C77.4991 45.1078 77.375 44.817 77.1268 44.5999C76.8864 44.3749 76.5646 44.2625 76.1613 44.2625C75.758 44.2625 75.4361 44.3749 75.1957 44.5999C74.9553 44.8248 74.8389 45.1195 74.8467 45.484V45.833C74.8467 45.9106 74.8079 45.9493 74.7303 45.9493H73.8346C73.757 45.9493 73.7182 45.9106 73.7182 45.833V45.3328C73.7337 44.9295 73.8462 44.5727 74.0556 44.2625C74.2728 43.9523 74.5636 43.7157 74.9281 43.5528C75.2926 43.3822 75.7037 43.2969 76.1613 43.2969C76.6576 43.2969 77.0919 43.39 77.4642 43.5761C77.8365 43.7622 78.1234 44.0182 78.3251 44.3439C78.5267 44.6697 78.6276 45.038 78.6276 45.4491C78.6276 46.0928 78.2786 46.8529 77.5805 47.7293C77.2703 48.1248 76.9019 48.5708 76.4754 49.0671C76.0488 49.5557 75.6222 50.0366 75.1957 50.5097ZM82.943 51.6498C82.1596 51.6498 81.5353 51.4287 81.07 50.9866C80.6124 50.5368 80.3836 49.9357 80.3836 49.1834V45.7399C80.3836 44.9876 80.6124 44.3904 81.07 43.9484C81.5353 43.5063 82.1596 43.2853 82.943 43.2853C83.7263 43.2853 84.3506 43.5063 84.8159 43.9484C85.289 44.3904 85.5256 44.9876 85.5256 45.7399V49.1834C85.5256 49.9357 85.289 50.5368 84.8159 50.9866C84.3506 51.4287 83.7263 51.6498 82.943 51.6498ZM82.943 50.6842C83.3928 50.6842 83.7495 50.5562 84.0132 50.3003C84.2769 50.0366 84.4088 49.6876 84.4088 49.2533V45.6934C84.4088 45.2591 84.2769 44.914 84.0132 44.658C83.7495 44.3943 83.3928 44.2625 82.943 44.2625C82.5086 44.2625 82.1596 44.3943 81.8959 44.658C81.6322 44.914 81.5004 45.2591 81.5004 45.6934V49.2533C81.5004 49.6876 81.6322 50.0366 81.8959 50.3003C82.1596 50.5562 82.5086 50.6842 82.943 50.6842ZM88.555 50.5097C88.5473 50.5252 88.5473 50.5407 88.555 50.5562C88.5628 50.564 88.5744 50.5678 88.5899 50.5678H92.0916C92.1692 50.5678 92.2079 50.6066 92.2079 50.6842V51.4171C92.2079 51.4946 92.1692 51.5334 92.0916 51.5334H87.2172C87.1396 51.5334 87.1008 51.4946 87.1008 51.4171V50.7074C87.1008 50.6531 87.1202 50.6066 87.159 50.5678C87.4227 50.2654 88.0276 49.5557 88.9738 48.4389L89.7765 47.4733C90.4978 46.6124 90.8585 45.9455 90.8585 45.4724C90.8585 45.1078 90.7344 44.817 90.4862 44.5999C90.2458 44.3749 89.9239 44.2625 89.5206 44.2625C89.1173 44.2625 88.7955 44.3749 88.555 44.5999C88.3146 44.8248 88.1983 45.1195 88.206 45.484V45.833C88.206 45.9106 88.1672 45.9493 88.0897 45.9493H87.1939C87.1164 45.9493 87.0776 45.9106 87.0776 45.833V45.3328C87.0931 44.9295 87.2055 44.5727 87.4149 44.2625C87.6321 43.9523 87.9229 43.7157 88.2875 43.5528C88.652 43.3822 89.063 43.2969 89.5206 43.2969C90.017 43.2969 90.4513 43.39 90.8236 43.5761C91.1958 43.7622 91.4828 44.0182 91.6844 44.3439C91.8861 44.6697 91.9869 45.038 91.9869 45.4491C91.9869 46.0928 91.6379 46.8529 90.9399 47.7293C90.6297 48.1248 90.2613 48.5708 89.8347 49.0671C89.4082 49.5557 88.9816 50.0366 88.555 50.5097ZM94.8744 43.4249C94.9209 43.4016 94.9713 43.39 95.0256 43.39H95.9447C96.0222 43.39 96.061 43.4287 96.061 43.5063V51.4171C96.061 51.4946 96.0222 51.5334 95.9447 51.5334H95.0605C94.983 51.5334 94.9442 51.4946 94.9442 51.4171V44.5882C94.9442 44.5727 94.9364 44.5611 94.9209 44.5533C94.9132 44.5456 94.9015 44.5456 94.886 44.5533L93.6645 44.9721C93.649 44.9799 93.6296 44.9838 93.6063 44.9838C93.5598 44.9838 93.5327 44.9527 93.5249 44.8907L93.4784 44.2276C93.4784 44.15 93.5016 44.1035 93.5482 44.088L94.8744 43.4249Z" fill="#254B45"/>
<path d="M105.753 46.5334C105.753 46.3746 105.698 46.2454 105.569 46.1236L102.737 43.3544C102.641 43.2547 102.522 43.2067 102.378 43.2067C102.094 43.2067 101.862 43.4356 101.862 43.7199C101.862 43.8602 101.921 43.9894 102.024 44.0928L104.535 46.5297L102.024 48.974C101.921 49.0737 101.862 49.2029 101.862 49.3469C101.862 49.6312 102.094 49.8601 102.378 49.8601C102.519 49.8601 102.641 49.8121 102.737 49.7124L105.569 46.9432C105.698 46.8214 105.753 46.6885 105.753 46.5334Z" fill="#254B45"/>
</g>
<path d="M239.244 46.5334C239.244 46.7322 239.318 46.9026 239.477 47.0503L243.896 51.3788C244.021 51.5038 244.18 51.5719 244.368 51.5719C244.742 51.5719 245.043 51.2766 245.043 50.896C245.043 50.7085 244.964 50.5438 244.839 50.4131L240.857 46.5334L244.839 42.6537C244.964 42.523 245.043 42.3526 245.043 42.1708C245.043 41.7903 244.742 41.4949 244.368 41.4949C244.18 41.4949 244.021 41.563 243.896 41.688L239.477 46.0108C239.318 46.1642 239.244 46.3346 239.244 46.5334Z" fill="#254B45"/>
<path d="M268.909 46.5335C268.904 46.3347 268.83 46.1643 268.676 46.0109L264.257 41.6881C264.126 41.5631 263.973 41.495 263.786 41.495C263.405 41.495 263.11 41.7903 263.11 42.1709C263.11 42.3527 263.183 42.5231 263.314 42.6538L267.29 46.5335L263.314 50.4132C263.183 50.5439 263.11 50.7086 263.11 50.8961C263.11 51.2766 263.405 51.572 263.786 51.572C263.967 51.572 264.126 51.5039 264.257 51.3789L268.676 47.0504C268.835 46.9027 268.909 46.7323 268.909 46.5335Z" fill="#254B45"/>
<path d="M47.9393 70.7185C47.3696 70.7185 46.9184 70.5899 46.5857 70.3328C46.258 70.0757 46.0942 69.7329 46.0942 69.3044V69.07C46.0942 69.0196 46.1194 68.9944 46.1698 68.9944H46.5403C46.5907 68.9944 46.6159 69.0196 46.6159 69.07V69.2742C46.6159 69.5666 46.7369 69.8035 46.9789 69.985C47.2209 70.1614 47.5561 70.2497 47.9846 70.2497C48.3728 70.2497 48.6677 70.169 48.8694 70.0077C49.071 69.8413 49.1718 69.622 49.1718 69.3498C49.1718 69.1734 49.1239 69.0221 49.0282 68.8961C48.9374 68.7701 48.7937 68.6516 48.5971 68.5407C48.4056 68.4298 48.1333 68.3012 47.7805 68.155C47.4024 68.0038 47.1075 67.8727 46.8957 67.7618C46.689 67.6459 46.5202 67.4997 46.3891 67.3232C46.2631 67.1418 46.2 66.9149 46.2 66.6427C46.2 66.2192 46.3462 65.8916 46.6386 65.6597C46.9361 65.4227 47.3419 65.3043 47.8561 65.3043C48.4156 65.3043 48.8568 65.4353 49.1794 65.6975C49.502 65.9596 49.6633 66.3074 49.6633 66.741V66.9073C49.6633 66.9578 49.6381 66.983 49.5877 66.983H49.2096C49.1592 66.983 49.134 66.9578 49.134 66.9073V66.7712C49.134 66.4788 49.0181 66.2394 48.7862 66.0529C48.5593 65.8663 48.2417 65.7731 47.8334 65.7731C47.4755 65.7731 47.2007 65.8462 47.0092 65.9924C46.8176 66.1386 46.7218 66.3503 46.7218 66.6276C46.7218 66.809 46.7672 66.9603 46.8579 67.0813C46.9537 67.1972 47.0873 67.3006 47.2587 67.3913C47.4351 67.477 47.7048 67.5904 48.0678 67.7316C48.4358 67.8828 48.7307 68.024 48.9525 68.155C49.1794 68.2861 49.3609 68.4474 49.497 68.639C49.6381 68.8255 49.7087 69.0549 49.7087 69.3271C49.7087 69.7506 49.5524 70.0883 49.2399 70.3404C48.9273 70.5925 48.4938 70.7185 47.9393 70.7185ZM52.5216 70.7185C52.1687 70.7185 51.8561 70.6479 51.5839 70.5068C51.3117 70.3656 51.1 70.169 50.9487 69.9169C50.7975 69.6598 50.7219 69.3624 50.7219 69.0246V65.4404C50.7219 65.39 50.7471 65.3647 50.7975 65.3647H51.1831C51.2336 65.3647 51.2588 65.39 51.2588 65.4404V69.0398C51.2588 69.3977 51.3747 69.6901 51.6066 69.9169C51.8385 70.1387 52.1435 70.2497 52.5216 70.2497C52.8997 70.2497 53.2047 70.1387 53.4365 69.9169C53.6684 69.6901 53.7844 69.3977 53.7844 69.0398V65.4404C53.7844 65.39 53.8096 65.3647 53.86 65.3647H54.2457C54.2961 65.3647 54.3213 65.39 54.3213 65.4404V69.0246C54.3213 69.3624 54.2457 69.6598 54.0944 69.9169C53.9482 70.169 53.739 70.3656 53.4668 70.5068C53.1946 70.6479 52.8795 70.7185 52.5216 70.7185ZM58.7936 65.4404C58.7936 65.39 58.8188 65.3647 58.8692 65.3647H59.2549C59.3053 65.3647 59.3305 65.39 59.3305 65.4404V70.5824C59.3305 70.6328 59.3053 70.658 59.2549 70.658H58.8768C58.8415 70.658 58.8112 70.6403 58.786 70.6051L56.2075 66.4083C56.2024 66.3931 56.1949 66.3881 56.1848 66.3931C56.1747 66.3931 56.1697 66.4007 56.1697 66.4158L56.1772 70.5824C56.1772 70.6328 56.152 70.658 56.1016 70.658H55.7159C55.6655 70.658 55.6403 70.6328 55.6403 70.5824V65.4404C55.6403 65.39 55.6655 65.3647 55.7159 65.3647H56.094C56.1293 65.3647 56.1596 65.3824 56.1848 65.4177L58.7633 69.6145C58.7684 69.6296 58.7759 69.6372 58.786 69.6372C58.7961 69.6321 58.8012 69.622 58.8012 69.6069L58.7936 65.4404Z" fill="#3C3C43" fill-opacity="0.3"/>
<path d="M82.989 65.4177C83.0142 65.3824 83.0445 65.3647 83.0797 65.3647H83.473C83.5234 65.3647 83.5486 65.39 83.5486 65.4404V70.5824C83.5486 70.6328 83.5234 70.658 83.473 70.658H83.0873C83.0369 70.658 83.0117 70.6328 83.0117 70.5824V66.378C83.0117 66.3629 83.0066 66.3528 82.9966 66.3478C82.9865 66.3427 82.9789 66.3478 82.9739 66.3629L81.7413 68.2533C81.7161 68.2886 81.6859 68.3063 81.6506 68.3063H81.454C81.4187 68.3063 81.3884 68.2912 81.3632 68.2609L80.1307 66.3856C80.1256 66.3705 80.1181 66.3654 80.108 66.3705C80.0979 66.3755 80.0928 66.3856 80.0928 66.4007V70.5824C80.0928 70.6328 80.0676 70.658 80.0172 70.658H79.6316C79.5812 70.658 79.556 70.6328 79.556 70.5824V65.4404C79.556 65.39 79.5812 65.3647 79.6316 65.3647H80.0248C80.0651 65.3647 80.0954 65.3799 80.1155 65.4101L81.5371 67.5652C81.5422 67.5703 81.5497 67.5728 81.5598 67.5728C81.5699 67.5728 81.5775 67.5703 81.5825 67.5652L82.989 65.4177ZM86.5494 70.7185C86.1915 70.7185 85.8764 70.6454 85.6042 70.4992C85.332 70.353 85.1202 70.1488 84.969 69.8867C84.8228 69.6195 84.7497 69.312 84.7497 68.9642V67.0586C84.7497 66.7107 84.8228 66.4058 84.969 66.1436C85.1202 65.8764 85.332 65.6697 85.6042 65.5235C85.8764 65.3774 86.1915 65.3043 86.5494 65.3043C86.9073 65.3043 87.2224 65.3774 87.4946 65.5235C87.7719 65.6697 87.9836 65.8764 88.1298 66.1436C88.2811 66.4058 88.3567 66.7107 88.3567 67.0586V68.9642C88.3567 69.312 88.2811 69.6195 88.1298 69.8867C87.9836 70.1488 87.7719 70.353 87.4946 70.4992C87.2224 70.6454 86.9073 70.7185 86.5494 70.7185ZM86.5494 70.2572C86.9325 70.2572 87.2401 70.1413 87.472 69.9094C87.7039 69.6775 87.8198 69.37 87.8198 68.9868V67.051C87.8198 66.6679 87.7039 66.3604 87.472 66.1285C87.2401 65.8916 86.9325 65.7731 86.5494 65.7731C86.1713 65.7731 85.8663 65.8916 85.6344 66.1285C85.4026 66.3604 85.2866 66.6679 85.2866 67.051V68.9868C85.2866 69.37 85.4026 69.6775 85.6344 69.9094C85.8663 70.1413 86.1713 70.2572 86.5494 70.2572ZM92.7279 65.4404C92.7279 65.39 92.7531 65.3647 92.8035 65.3647H93.1892C93.2396 65.3647 93.2648 65.39 93.2648 65.4404V70.5824C93.2648 70.6328 93.2396 70.658 93.1892 70.658H92.8111C92.7758 70.658 92.7456 70.6403 92.7204 70.6051L90.1418 66.4083C90.1368 66.3931 90.1292 66.3881 90.1191 66.3931C90.109 66.3931 90.104 66.4007 90.104 66.4158L90.1115 70.5824C90.1115 70.6328 90.0863 70.658 90.0359 70.658H89.6503C89.5999 70.658 89.5747 70.6328 89.5747 70.5824V65.4404C89.5747 65.39 89.5999 65.3647 89.6503 65.3647H90.0284C90.0637 65.3647 90.0939 65.3824 90.1191 65.4177L92.6977 69.6145C92.7027 69.6296 92.7103 69.6372 92.7204 69.6372C92.7304 69.6321 92.7355 69.622 92.7355 69.6069L92.7279 65.4404Z" fill="#3C3C43" fill-opacity="0.3"/>
<path d="M119.792 65.3647C119.842 65.3647 119.867 65.39 119.867 65.4404V65.7655C119.867 65.8159 119.842 65.8411 119.792 65.8411H118.309C118.289 65.8411 118.279 65.8512 118.279 65.8714V70.5824C118.279 70.6328 118.254 70.658 118.204 70.658H117.818C117.768 70.658 117.742 70.6328 117.742 70.5824V65.8714C117.742 65.8512 117.732 65.8411 117.712 65.8411H116.29C116.24 65.8411 116.215 65.8159 116.215 65.7655V65.4404C116.215 65.39 116.24 65.3647 116.29 65.3647H119.792ZM122.6 70.7185C122.247 70.7185 121.934 70.6479 121.662 70.5068C121.39 70.3656 121.178 70.169 121.027 69.9169C120.875 69.6598 120.8 69.3624 120.8 69.0246V65.4404C120.8 65.39 120.825 65.3647 120.875 65.3647H121.261C121.312 65.3647 121.337 65.39 121.337 65.4404V69.0398C121.337 69.3977 121.453 69.6901 121.685 69.9169C121.916 70.1387 122.221 70.2497 122.6 70.2497C122.978 70.2497 123.283 70.1387 123.514 69.9169C123.746 69.6901 123.862 69.3977 123.862 69.0398V65.4404C123.862 65.39 123.888 65.3647 123.938 65.3647H124.324C124.374 65.3647 124.399 65.39 124.399 65.4404V69.0246C124.399 69.3624 124.324 69.6598 124.172 69.9169C124.026 70.169 123.817 70.3656 123.545 70.5068C123.273 70.6479 122.957 70.7185 122.6 70.7185ZM129.144 65.758C129.144 65.8084 129.119 65.8336 129.068 65.8336H126.285C126.265 65.8336 126.255 65.8437 126.255 65.8638V67.7316C126.255 67.7517 126.265 67.7618 126.285 67.7618H128.236C128.287 67.7618 128.312 67.787 128.312 67.8374V68.155C128.312 68.2055 128.287 68.2307 128.236 68.2307H126.285C126.265 68.2307 126.255 68.2407 126.255 68.2609V70.1589C126.255 70.1791 126.265 70.1892 126.285 70.1892H129.068C129.119 70.1892 129.144 70.2144 129.144 70.2648V70.5824C129.144 70.6328 129.119 70.658 129.068 70.658H125.794C125.743 70.658 125.718 70.6328 125.718 70.5824V65.4404C125.718 65.39 125.743 65.3647 125.794 65.3647H129.068C129.119 65.3647 129.144 65.39 129.144 65.4404V65.758Z" fill="#3C3C43" fill-opacity="0.3"/>
<path d="M150.528 70.658C150.488 70.658 150.46 70.6378 150.445 70.5975L148.993 65.4479L148.986 65.4252C148.986 65.3849 149.011 65.3647 149.061 65.3647H149.462C149.508 65.3647 149.535 65.3849 149.545 65.4252L150.695 69.5691C150.7 69.5792 150.705 69.5842 150.71 69.5842C150.72 69.5842 150.728 69.5792 150.733 69.5691L151.799 65.4328C151.809 65.3874 151.837 65.3647 151.882 65.3647H152.29C152.336 65.3647 152.363 65.3874 152.374 65.4328L153.485 69.5691C153.49 69.5792 153.495 69.5842 153.5 69.5842C153.51 69.5842 153.518 69.5792 153.523 69.5691L154.672 65.4252C154.682 65.3849 154.71 65.3647 154.755 65.3647H155.141C155.166 65.3647 155.184 65.3723 155.194 65.3874C155.209 65.4026 155.214 65.4227 155.209 65.4479L153.78 70.5975C153.77 70.6378 153.742 70.658 153.697 70.658H153.296C153.251 70.658 153.223 70.6353 153.213 70.5899L152.109 66.3553C152.104 66.3453 152.096 66.3402 152.086 66.3402C152.081 66.3402 152.076 66.3453 152.071 66.3553L150.99 70.5899C150.985 70.6353 150.957 70.658 150.907 70.658H150.528ZM159.408 65.758C159.408 65.8084 159.383 65.8336 159.332 65.8336H156.55C156.529 65.8336 156.519 65.8437 156.519 65.8638V67.7316C156.519 67.7517 156.529 67.7618 156.55 67.7618H158.5C158.551 67.7618 158.576 67.787 158.576 67.8374V68.155C158.576 68.2055 158.551 68.2307 158.5 68.2307H156.55C156.529 68.2307 156.519 68.2407 156.519 68.2609V70.1589C156.519 70.1791 156.529 70.1892 156.55 70.1892H159.332C159.383 70.1892 159.408 70.2144 159.408 70.2648V70.5824C159.408 70.6328 159.383 70.658 159.332 70.658H156.058C156.008 70.658 155.982 70.6328 155.982 70.5824V65.4404C155.982 65.39 156.008 65.3647 156.058 65.3647H159.332C159.383 65.3647 159.408 65.39 159.408 65.4404V65.758ZM160.591 70.658C160.541 70.658 160.515 70.6328 160.515 70.5824V65.4404C160.515 65.39 160.541 65.3647 160.591 65.3647H162.376C162.875 65.3647 163.27 65.4958 163.563 65.758C163.86 66.0201 164.009 66.3755 164.009 66.8242V69.1986C164.009 69.6472 163.86 70.0026 163.563 70.2648C163.27 70.5269 162.875 70.658 162.376 70.658H160.591ZM161.052 70.1589C161.052 70.1791 161.062 70.1892 161.083 70.1892H162.398C162.726 70.1892 162.986 70.0934 163.177 69.9018C163.374 69.7102 163.472 69.4531 163.472 69.1305V66.8998C163.472 66.5721 163.376 66.3125 163.185 66.1209C162.993 65.9294 162.731 65.8336 162.398 65.8336H161.083C161.062 65.8336 161.052 65.8437 161.052 65.8638V70.1589Z" fill="#3C3C43" fill-opacity="0.3"/>
<path d="M188.22 65.3647C188.27 65.3647 188.295 65.39 188.295 65.4404V65.7655C188.295 65.8159 188.27 65.8411 188.22 65.8411H186.738C186.718 65.8411 186.707 65.8512 186.707 65.8714V70.5824C186.707 70.6328 186.682 70.658 186.632 70.658H186.246C186.196 70.658 186.171 70.6328 186.171 70.5824V65.8714C186.171 65.8512 186.16 65.8411 186.14 65.8411H184.719C184.668 65.8411 184.643 65.8159 184.643 65.7655V65.4404C184.643 65.39 184.668 65.3647 184.719 65.3647H188.22ZM192.298 65.4404C192.298 65.39 192.323 65.3647 192.374 65.3647H192.759C192.81 65.3647 192.835 65.39 192.835 65.4404V70.5824C192.835 70.6328 192.81 70.658 192.759 70.658H192.374C192.323 70.658 192.298 70.6328 192.298 70.5824V68.2609C192.298 68.2407 192.288 68.2307 192.268 68.2307H189.856C189.836 68.2307 189.825 68.2407 189.825 68.2609V70.5824C189.825 70.6328 189.8 70.658 189.75 70.658H189.364C189.314 70.658 189.289 70.6328 189.289 70.5824V65.4404C189.289 65.39 189.314 65.3647 189.364 65.3647H189.75C189.8 65.3647 189.825 65.39 189.825 65.4404V67.7316C189.825 67.7517 189.836 67.7618 189.856 67.7618H192.268C192.288 67.7618 192.298 67.7517 192.298 67.7316V65.4404ZM195.93 70.7185C195.577 70.7185 195.265 70.6479 194.992 70.5068C194.72 70.3656 194.508 70.169 194.357 69.9169C194.206 69.6598 194.13 69.3624 194.13 69.0246V65.4404C194.13 65.39 194.156 65.3647 194.206 65.3647H194.592C194.642 65.3647 194.667 65.39 194.667 65.4404V69.0398C194.667 69.3977 194.783 69.6901 195.015 69.9169C195.247 70.1387 195.552 70.2497 195.93 70.2497C196.308 70.2497 196.613 70.1387 196.845 69.9169C197.077 69.6901 197.193 69.3977 197.193 69.0398V65.4404C197.193 65.39 197.218 65.3647 197.268 65.3647H197.654C197.705 65.3647 197.73 65.39 197.73 65.4404V69.0246C197.73 69.3624 197.654 69.6598 197.503 69.9169C197.357 70.169 197.147 70.3656 196.875 70.5068C196.603 70.6479 196.288 70.7185 195.93 70.7185Z" fill="#3C3C43" fill-opacity="0.3"/>
<path d="M223.376 65.758C223.376 65.8084 223.351 65.8336 223.301 65.8336H220.526C220.506 65.8336 220.495 65.8437 220.495 65.8638V67.7316C220.495 67.7517 220.506 67.7618 220.526 67.7618H222.469C222.519 67.7618 222.545 67.787 222.545 67.8374V68.155C222.545 68.2055 222.519 68.2307 222.469 68.2307H220.526C220.506 68.2307 220.495 68.2407 220.495 68.2609V70.5824C220.495 70.6328 220.47 70.658 220.42 70.658H220.034C219.984 70.658 219.959 70.6328 219.959 70.5824V65.4404C219.959 65.39 219.984 65.3647 220.034 65.3647H223.301C223.351 65.3647 223.376 65.39 223.376 65.4404V65.758ZM227.296 70.658C227.251 70.658 227.221 70.6403 227.205 70.6051L226.094 68.2609C226.089 68.2458 226.079 68.2382 226.064 68.2382H224.778C224.758 68.2382 224.748 68.2483 224.748 68.2685V70.5824C224.748 70.6328 224.723 70.658 224.672 70.658H224.287C224.236 70.658 224.211 70.6328 224.211 70.5824V65.4404C224.211 65.39 224.236 65.3647 224.287 65.3647H226.245C226.679 65.3647 227.029 65.5009 227.296 65.7731C227.563 66.0403 227.697 66.3906 227.697 66.8242C227.697 67.1771 227.601 67.477 227.41 67.724C227.218 67.971 226.958 68.1298 226.631 68.2004C226.611 68.2105 226.606 68.2231 226.616 68.2382L227.75 70.5672C227.755 70.5773 227.757 70.5899 227.757 70.6051C227.757 70.6403 227.737 70.658 227.697 70.658H227.296ZM224.778 65.8336C224.758 65.8336 224.748 65.8437 224.748 65.8638V67.777C224.748 67.7971 224.758 67.8072 224.778 67.8072H226.185C226.477 67.8072 226.714 67.7165 226.895 67.535C227.077 67.3535 227.168 67.1166 227.168 66.8242C227.168 66.5318 227.077 66.2948 226.895 66.1134C226.714 65.9268 226.477 65.8336 226.185 65.8336H224.778ZM228.871 70.658C228.821 70.658 228.796 70.6328 228.796 70.5824V65.4404C228.796 65.39 228.821 65.3647 228.871 65.3647H229.257C229.307 65.3647 229.333 65.39 229.333 65.4404V70.5824C229.333 70.6328 229.307 70.658 229.257 70.658H228.871Z" fill="#3C3C43" fill-opacity="0.3"/>
<path d="M254.414 70.7185C253.844 70.7185 253.393 70.5899 253.06 70.3328C252.733 70.0757 252.569 69.7329 252.569 69.3044V69.07C252.569 69.0196 252.594 68.9944 252.645 68.9944H253.015C253.066 68.9944 253.091 69.0196 253.091 69.07V69.2742C253.091 69.5666 253.212 69.8035 253.454 69.985C253.696 70.1614 254.031 70.2497 254.459 70.2497C254.848 70.2497 255.142 70.169 255.344 70.0077C255.546 69.8413 255.647 69.622 255.647 69.3498C255.647 69.1734 255.599 69.0221 255.503 68.8961C255.412 68.7701 255.269 68.6516 255.072 68.5407C254.88 68.4298 254.608 68.3012 254.255 68.155C253.877 68.0038 253.582 67.8727 253.371 67.7618C253.164 67.6459 252.995 67.4997 252.864 67.3232C252.738 67.1418 252.675 66.9149 252.675 66.6427C252.675 66.2192 252.821 65.8916 253.113 65.6597C253.411 65.4227 253.817 65.3043 254.331 65.3043C254.89 65.3043 255.332 65.4353 255.654 65.6975C255.977 65.9596 256.138 66.3074 256.138 66.741V66.9073C256.138 66.9578 256.113 66.983 256.062 66.983H255.684C255.634 66.983 255.609 66.9578 255.609 66.9073V66.7712C255.609 66.4788 255.493 66.2394 255.261 66.0529C255.034 65.8663 254.717 65.7731 254.308 65.7731C253.95 65.7731 253.675 65.8462 253.484 65.9924C253.292 66.1386 253.197 66.3503 253.197 66.6276C253.197 66.809 253.242 66.9603 253.333 67.0813C253.428 67.1972 253.562 67.3006 253.733 67.3913C253.91 67.477 254.18 67.5904 254.543 67.7316C254.911 67.8828 255.205 68.024 255.427 68.155C255.654 68.2861 255.836 68.4474 255.972 68.639C256.113 68.8255 256.183 69.0549 256.183 69.3271C256.183 69.7506 256.027 70.0883 255.715 70.3404C255.402 70.5925 254.969 70.7185 254.414 70.7185ZM260.395 70.658C260.35 70.658 260.32 70.6378 260.305 70.5975L260.002 69.6447C259.997 69.6296 259.987 69.622 259.972 69.622H257.711C257.696 69.622 257.686 69.6296 257.681 69.6447L257.378 70.5975C257.363 70.6378 257.333 70.658 257.287 70.658H256.879C256.824 70.658 256.803 70.6303 256.819 70.5748L258.49 65.4252C258.505 65.3849 258.535 65.3647 258.58 65.3647H259.095C259.14 65.3647 259.17 65.3849 259.185 65.4252L260.864 70.5748L260.872 70.6051C260.872 70.6403 260.849 70.658 260.804 70.658H260.395ZM257.832 69.1456C257.827 69.1557 257.827 69.1658 257.832 69.1759C257.842 69.1809 257.852 69.1834 257.862 69.1834H259.813C259.823 69.1834 259.831 69.1809 259.836 69.1759C259.846 69.1658 259.848 69.1557 259.843 69.1456L258.86 66.0604C258.855 66.0503 258.848 66.0453 258.838 66.0453C258.827 66.0453 258.82 66.0503 258.815 66.0604L257.832 69.1456ZM264.501 65.3647C264.552 65.3647 264.577 65.39 264.577 65.4404V65.7655C264.577 65.8159 264.552 65.8411 264.501 65.8411H263.019C262.999 65.8411 262.989 65.8512 262.989 65.8714V70.5824C262.989 70.6328 262.964 70.658 262.913 70.658H262.528C262.477 70.658 262.452 70.6328 262.452 70.5824V65.8714C262.452 65.8512 262.442 65.8411 262.422 65.8411H261C260.95 65.8411 260.925 65.8159 260.925 65.7655V65.4404C260.925 65.39 260.95 65.3647 261 65.3647H264.501Z" fill="#3C3C43" fill-opacity="0.3"/>
<path d="M122.271 89.8902C122.317 89.8669 122.368 89.8553 122.422 89.8553H123.05C123.128 89.8553 123.166 89.8941 123.166 89.9716V97.8824C123.166 97.96 123.128 97.9987 123.05 97.9987H122.457C122.379 97.9987 122.34 97.96 122.34 97.8824V90.7976C122.34 90.7821 122.333 90.7705 122.317 90.7627C122.309 90.755 122.298 90.755 122.282 90.7627L121.049 91.263L121.003 91.2746C120.956 91.2746 120.925 91.2436 120.91 91.1815L120.851 90.7394V90.7162C120.851 90.6774 120.878 90.6386 120.933 90.5998L122.271 89.8902Z" fill="#254B45"/>
<path d="M155.208 97.22C155.185 97.2588 155.192 97.2782 155.231 97.2782H158.884C158.962 97.2782 159 97.317 159 97.3945V97.8831C159 97.9607 158.962 97.9995 158.884 97.9995H154.242C154.165 97.9995 154.126 97.9607 154.126 97.8831V97.3945C154.126 97.3402 154.145 97.2937 154.184 97.2549C154.448 96.9447 155.041 96.2157 155.964 95.0678L156.825 93.9976C157.554 93.0746 157.919 92.3572 157.919 91.8454C157.919 91.4343 157.779 91.1047 157.5 90.8565C157.221 90.6083 156.856 90.4842 156.406 90.4842C155.964 90.4842 155.607 90.6122 155.336 90.8681C155.064 91.1163 154.933 91.4459 154.94 91.857V92.2176C154.94 92.2952 154.902 92.334 154.824 92.334H154.219C154.142 92.334 154.103 92.2952 154.103 92.2176V91.7523C154.118 91.1551 154.339 90.6743 154.766 90.3097C155.2 89.9452 155.747 89.763 156.406 89.763C156.872 89.763 157.283 89.8522 157.639 90.0305C157.996 90.2089 158.271 90.4571 158.465 90.7751C158.659 91.0853 158.756 91.4382 158.756 91.8337C158.756 92.493 158.392 93.2879 157.663 94.2186C157.283 94.7072 156.55 95.6069 155.464 96.9176L155.208 97.22Z" fill="#254B45"/>
<path d="M192.915 94.1481C193.07 94.5281 193.148 94.9818 193.148 95.5092C193.148 95.9357 193.09 96.3119 192.973 96.6376C192.818 97.103 192.555 97.4636 192.182 97.7195C191.818 97.9677 191.364 98.0918 190.821 98.0918C190.278 98.0918 189.813 97.9522 189.425 97.673C189.037 97.3861 188.77 97.0021 188.623 96.5213C188.553 96.3041 188.51 96.0094 188.495 95.6371C188.495 95.5596 188.533 95.5208 188.611 95.5208H189.204C189.282 95.5208 189.321 95.5596 189.321 95.6371C189.336 95.8621 189.363 96.0715 189.402 96.2654C189.487 96.6066 189.65 96.8781 189.891 97.0797C190.139 97.2736 190.445 97.3705 190.81 97.3705C191.508 97.3705 191.961 97.0603 192.171 96.4399C192.264 96.1839 192.31 95.8659 192.31 95.4859C192.31 95.0206 192.248 94.6405 192.124 94.3458C191.876 93.7874 191.438 93.5082 190.81 93.5082C190.693 93.5082 190.55 93.5509 190.379 93.6362C190.348 93.6517 190.325 93.6595 190.309 93.6595C190.278 93.6595 190.251 93.6401 190.228 93.6013L189.925 93.1941C189.887 93.1321 189.891 93.0778 189.937 93.0312L191.985 90.6347C192.008 90.596 192 90.5766 191.961 90.5766H188.681C188.603 90.5766 188.564 90.5378 188.564 90.4602V89.9716C188.564 89.8941 188.603 89.8553 188.681 89.8553H192.985C193.063 89.8553 193.101 89.8941 193.101 89.9716V90.5417C193.101 90.5805 193.082 90.627 193.043 90.6813L191.182 92.9149C191.166 92.9304 191.163 92.9459 191.17 92.9614C191.178 92.9692 191.194 92.9731 191.217 92.9731C192.047 93.0274 192.613 93.419 192.915 94.1481Z" fill="#254B45"/>
<path d="M227.635 94.7718C227.713 94.7718 227.752 94.8106 227.752 94.8882V95.4C227.752 95.4776 227.713 95.5164 227.635 95.5164H227.135C227.104 95.5164 227.088 95.5319 227.088 95.5629V97.6453C227.088 97.7228 227.05 97.7616 226.972 97.7616H226.379C226.301 97.7616 226.262 97.7228 226.262 97.6453V95.5629C226.262 95.5319 226.247 95.5164 226.216 95.5164H222.737C222.66 95.5164 222.621 95.4776 222.621 95.4V94.9696C222.621 94.9308 222.633 94.8843 222.656 94.83L225.041 89.6996C225.064 89.6453 225.107 89.6182 225.169 89.6182H225.785C225.824 89.6182 225.851 89.6337 225.867 89.6647C225.89 89.688 225.894 89.719 225.879 89.7578L223.563 94.7137C223.556 94.7292 223.556 94.7447 223.563 94.7602C223.571 94.7679 223.583 94.7718 223.598 94.7718H226.216C226.247 94.7718 226.262 94.7563 226.262 94.7253V92.8523C226.262 92.7747 226.301 92.736 226.379 92.736H226.972C227.05 92.736 227.088 92.7747 227.088 92.8523V94.7253C227.088 94.7563 227.104 94.7718 227.135 94.7718H227.635Z" fill="#254B45"/>
<path d="M261.907 94.4389C261.977 94.7801 262.012 95.1292 262.012 95.4859C262.012 95.8659 261.977 96.1917 261.907 96.4631C261.775 96.9595 261.512 97.355 261.116 97.6497C260.721 97.9367 260.244 98.0802 259.685 98.0802C259.134 98.0802 258.665 97.9406 258.277 97.6614C257.89 97.3822 257.626 97.0099 257.486 96.5446C257.432 96.3739 257.397 96.2033 257.382 96.0327V96.0094C257.382 95.9474 257.417 95.9164 257.486 95.9164H258.103C258.181 95.9164 258.223 95.9551 258.231 96.0327C258.231 96.0792 258.246 96.1568 258.277 96.2654C258.355 96.5989 258.514 96.8664 258.754 97.0681C259.003 97.262 259.309 97.3589 259.673 97.3589C260.046 97.3589 260.356 97.2542 260.604 97.0448C260.86 96.8354 261.027 96.5484 261.104 96.1839C261.151 96.0055 261.174 95.7729 261.174 95.4859C261.174 95.2222 261.155 94.9702 261.116 94.7297C261.062 94.373 260.907 94.1015 260.651 93.9154C260.395 93.7293 260.077 93.6362 259.697 93.6362C259.356 93.6362 259.049 93.7137 258.778 93.8689C258.506 94.024 258.332 94.2295 258.254 94.4854C258.231 94.5552 258.188 94.5901 258.126 94.5901H257.498C257.42 94.5901 257.382 94.5514 257.382 94.4738V89.9716C257.382 89.8941 257.42 89.8553 257.498 89.8553H261.57C261.647 89.8553 261.686 89.8941 261.686 89.9716V90.4602C261.686 90.5378 261.647 90.5766 261.57 90.5766H258.254C258.223 90.5766 258.208 90.5921 258.208 90.6231L258.196 93.4384C258.196 93.4539 258.2 93.4656 258.208 93.4733C258.223 93.4811 258.239 93.4772 258.254 93.4617C258.448 93.2833 258.677 93.1476 258.941 93.0545C259.204 92.9537 259.483 92.9033 259.778 92.9033C260.329 92.9033 260.794 93.039 261.174 93.3104C261.554 93.5741 261.799 93.9503 261.907 94.4389Z" fill="#254B45"/>
<path d="M55.6872 122.092C55.85 122.441 55.9315 122.884 55.9315 123.419C55.9315 123.9 55.8694 124.287 55.7453 124.582C55.5825 125.032 55.3227 125.381 54.9659 125.629C54.6091 125.877 54.1632 126.001 53.628 126.001C53.0696 126.001 52.6004 125.869 52.2204 125.606C51.8404 125.342 51.5728 124.97 51.4177 124.489C51.3246 124.179 51.2781 123.814 51.2781 123.395V119.766C51.2781 119.13 51.4875 118.626 51.9063 118.253C52.3251 117.873 52.8719 117.683 53.5466 117.683C54.2058 117.683 54.7371 117.866 55.1404 118.23C55.5437 118.595 55.7453 119.076 55.7453 119.673V119.836C55.7453 119.913 55.7066 119.952 55.629 119.952H55.0357C54.9581 119.952 54.9194 119.913 54.9194 119.836V119.743C54.9194 119.347 54.7914 119.025 54.5355 118.777C54.2795 118.529 53.9499 118.405 53.5466 118.405C53.1278 118.405 52.7827 118.536 52.5112 118.8C52.2398 119.056 52.1041 119.397 52.1041 119.824V121.534C52.1041 121.55 52.1118 121.561 52.1273 121.569C52.1428 121.569 52.1545 121.561 52.1622 121.546C52.5035 121.08 53.0192 120.848 53.7095 120.848C54.1981 120.848 54.6053 120.956 54.931 121.173C55.2645 121.391 55.5165 121.697 55.6872 122.092ZM54.9659 124.303C55.059 124.062 55.1055 123.768 55.1055 123.419C55.1055 123.015 55.0512 122.705 54.9426 122.488C54.8496 122.201 54.6867 121.976 54.454 121.813C54.2214 121.65 53.9344 121.569 53.5931 121.569C53.2519 121.569 52.9649 121.654 52.7323 121.825C52.4996 121.988 52.3367 122.217 52.2437 122.511C52.1506 122.752 52.1041 123.066 52.1041 123.454C52.1041 123.795 52.1428 124.078 52.2204 124.303C52.3135 124.598 52.4763 124.834 52.709 125.012C52.9494 125.191 53.248 125.28 53.6048 125.28C53.9383 125.28 54.2252 125.199 54.4657 125.036C54.7061 124.865 54.8728 124.621 54.9659 124.303Z" fill="#254B45"/>
<rect x="78.556" y="111.683" width="18.6136" height="18.6136" rx="9.3068" fill="#254B45"/>
<path d="M86.8702 125.92C86.8314 125.92 86.8004 125.908 86.7772 125.885C86.7616 125.854 86.7616 125.819 86.7772 125.78L89.4645 118.556C89.4723 118.54 89.4723 118.529 89.4645 118.521C89.4567 118.506 89.4451 118.498 89.4296 118.498H86.2886C86.2575 118.498 86.242 118.513 86.242 118.544V119.08C86.242 119.157 86.2032 119.196 86.1257 119.196H85.6487C85.5712 119.196 85.5324 119.157 85.5324 119.08L85.544 117.893C85.544 117.815 85.5828 117.777 85.6603 117.777H90.2439C90.3215 117.777 90.3603 117.815 90.3603 117.893V118.428C90.3603 118.459 90.3525 118.506 90.337 118.568L87.6613 125.827C87.638 125.889 87.5915 125.92 87.5217 125.92H86.8702Z" fill="white"/>
<path d="M124.307 122.5C124.455 122.818 124.528 123.198 124.528 123.64C124.528 124.175 124.416 124.629 124.191 125.001C124.005 125.319 123.741 125.567 123.4 125.746C123.059 125.924 122.663 126.013 122.213 126.013C121.748 126.013 121.341 125.924 120.992 125.746C120.643 125.559 120.375 125.292 120.189 124.943C119.972 124.555 119.863 124.117 119.863 123.628C119.863 123.217 119.945 122.829 120.108 122.465C120.286 122.077 120.569 121.786 120.957 121.592C120.996 121.577 120.996 121.557 120.957 121.534C120.701 121.387 120.491 121.189 120.329 120.941C120.096 120.607 119.98 120.227 119.98 119.801C119.98 119.366 120.096 118.971 120.329 118.614C120.515 118.312 120.771 118.079 121.096 117.916C121.43 117.746 121.802 117.66 122.213 117.66C122.64 117.66 123.012 117.746 123.33 117.916C123.648 118.079 123.9 118.312 124.086 118.614C124.311 118.979 124.424 119.374 124.424 119.801C124.424 120.227 124.307 120.615 124.075 120.964C123.935 121.174 123.729 121.364 123.458 121.534C123.419 121.557 123.419 121.577 123.458 121.592C123.854 121.786 124.137 122.089 124.307 122.5ZM120.98 119.114C120.856 119.347 120.794 119.576 120.794 119.801C120.794 120.127 120.875 120.41 121.038 120.65C121.162 120.844 121.321 120.991 121.515 121.092C121.717 121.193 121.946 121.243 122.202 121.243C122.457 121.243 122.686 121.193 122.888 121.092C123.09 120.984 123.252 120.832 123.377 120.638C123.524 120.429 123.598 120.146 123.598 119.789C123.598 119.533 123.539 119.301 123.423 119.091C123.307 118.874 123.144 118.703 122.934 118.579C122.725 118.447 122.477 118.382 122.19 118.382C121.918 118.382 121.678 118.447 121.469 118.579C121.259 118.711 121.096 118.89 120.98 119.114ZM123.411 124.687C123.605 124.392 123.702 124.024 123.702 123.582C123.702 123.217 123.64 122.903 123.516 122.639C123.283 122.127 122.845 121.872 122.202 121.872C121.589 121.872 121.162 122.112 120.922 122.593C120.782 122.841 120.712 123.175 120.712 123.593C120.712 124.028 120.798 124.381 120.968 124.652C121.232 125.079 121.647 125.292 122.213 125.292C122.764 125.292 123.163 125.09 123.411 124.687Z" fill="#254B45"/>
<path d="M158.69 119.207C158.783 119.517 158.83 119.881 158.83 120.3V123.93C158.83 124.566 158.62 125.074 158.202 125.454C157.783 125.826 157.236 126.012 156.561 126.012C155.91 126.012 155.378 125.83 154.967 125.466C154.564 125.093 154.362 124.612 154.362 124.023V123.86C154.362 123.783 154.401 123.744 154.479 123.744H155.072C155.15 123.744 155.188 123.783 155.188 123.86V123.953C155.188 124.349 155.316 124.671 155.572 124.919C155.828 125.167 156.158 125.291 156.561 125.291C156.98 125.291 157.325 125.163 157.597 124.907C157.868 124.643 158.004 124.298 158.004 123.872V122.173C158.004 122.158 157.996 122.15 157.98 122.15C157.965 122.142 157.953 122.146 157.946 122.162C157.604 122.619 157.092 122.848 156.41 122.848C155.921 122.848 155.51 122.739 155.177 122.522C154.851 122.305 154.603 121.999 154.432 121.603C154.269 121.278 154.188 120.835 154.188 120.277C154.188 119.804 154.246 119.416 154.362 119.114C154.525 118.664 154.785 118.315 155.142 118.067C155.506 117.818 155.952 117.694 156.48 117.694C157.038 117.694 157.507 117.83 157.887 118.102C158.275 118.365 158.543 118.734 158.69 119.207ZM156.515 122.127C156.856 122.127 157.143 122.045 157.376 121.882C157.616 121.712 157.783 121.479 157.876 121.184C157.961 120.96 158.004 120.645 158.004 120.242C158.004 119.909 157.969 119.626 157.899 119.393C157.806 119.098 157.639 118.862 157.399 118.683C157.158 118.505 156.864 118.416 156.515 118.416C156.181 118.416 155.894 118.501 155.654 118.672C155.413 118.834 155.243 119.075 155.142 119.393C155.057 119.61 155.014 119.905 155.014 120.277C155.014 120.673 155.064 120.983 155.165 121.208C155.258 121.487 155.421 121.712 155.654 121.882C155.886 122.045 156.173 122.127 156.515 122.127Z" fill="#254B45"/>
<path d="M187.567 117.811C187.614 117.788 187.664 117.777 187.719 117.777H188.347C188.424 117.777 188.463 117.815 188.463 117.893V125.804C188.463 125.881 188.424 125.92 188.347 125.92H187.754C187.676 125.92 187.637 125.881 187.637 125.804V118.719C187.637 118.703 187.629 118.692 187.614 118.684C187.606 118.676 187.595 118.676 187.579 118.684L186.346 119.184L186.299 119.196C186.253 119.196 186.222 119.165 186.206 119.103L186.148 118.661V118.637C186.148 118.599 186.175 118.56 186.23 118.521L187.567 117.811ZM193.031 126.036C192.286 126.036 191.693 125.823 191.251 125.397C190.809 124.97 190.588 124.4 190.588 123.686V120.01C190.588 119.297 190.809 118.731 191.251 118.312C191.693 117.885 192.286 117.672 193.031 117.672C193.783 117.672 194.384 117.885 194.834 118.312C195.284 118.738 195.509 119.304 195.509 120.01V123.686C195.509 124.4 195.284 124.97 194.834 125.397C194.384 125.823 193.783 126.036 193.031 126.036ZM193.031 125.315C193.527 125.315 193.926 125.172 194.229 124.885C194.531 124.598 194.683 124.214 194.683 123.733V119.975C194.683 119.502 194.531 119.122 194.229 118.835C193.934 118.548 193.535 118.405 193.031 118.405C192.542 118.405 192.15 118.548 191.856 118.835C191.561 119.122 191.414 119.502 191.414 119.975V123.733C191.414 124.214 191.561 124.598 191.856 124.885C192.15 125.172 192.542 125.315 193.031 125.315Z" fill="#254B45"/>
<path d="M223.154 117.574C223.201 117.551 223.251 117.539 223.305 117.539H223.934C224.011 117.539 224.05 117.578 224.05 117.655V125.566C224.05 125.644 224.011 125.683 223.934 125.683H223.34C223.263 125.683 223.224 125.644 223.224 125.566V118.481C223.224 118.466 223.216 118.454 223.201 118.446C223.193 118.439 223.181 118.439 223.166 118.446L221.933 118.947L221.886 118.958C221.84 118.958 221.809 118.927 221.793 118.865L221.735 118.423V118.4C221.735 118.361 221.762 118.322 221.816 118.284L223.154 117.574ZM227.476 117.574C227.523 117.551 227.573 117.539 227.628 117.539H228.256C228.333 117.539 228.372 117.578 228.372 117.655V125.566C228.372 125.644 228.333 125.683 228.256 125.683H227.663C227.585 125.683 227.546 125.644 227.546 125.566V118.481C227.546 118.466 227.538 118.454 227.523 118.446C227.515 118.439 227.504 118.439 227.488 118.446L226.255 118.947L226.208 118.958C226.162 118.958 226.131 118.927 226.115 118.865L226.057 118.423V118.4C226.057 118.361 226.084 118.322 226.139 118.284L227.476 117.574Z" fill="#254B45"/>
<path d="M256.434 117.811C256.48 117.788 256.531 117.777 256.585 117.777H257.213C257.291 117.777 257.329 117.815 257.329 117.893V125.804C257.329 125.881 257.291 125.92 257.213 125.92H256.62C256.542 125.92 256.504 125.881 256.504 125.804V118.719C256.504 118.703 256.496 118.692 256.48 118.684C256.472 118.676 256.461 118.676 256.445 118.684L255.212 119.184L255.166 119.196C255.119 119.196 255.088 119.165 255.073 119.103L255.014 118.661V118.637C255.014 118.599 255.042 118.56 255.096 118.521L256.434 117.811ZM260.396 125.141C260.373 125.179 260.381 125.199 260.419 125.199H264.072C264.15 125.199 264.189 125.238 264.189 125.315V125.804C264.189 125.881 264.15 125.92 264.072 125.92H259.431C259.353 125.92 259.314 125.881 259.314 125.804V125.315C259.314 125.261 259.334 125.214 259.372 125.175C259.636 124.865 260.229 124.136 261.152 122.988L262.013 121.918C262.742 120.995 263.107 120.278 263.107 119.766C263.107 119.355 262.967 119.025 262.688 118.777C262.409 118.529 262.044 118.405 261.594 118.405C261.152 118.405 260.796 118.533 260.524 118.789C260.253 119.037 260.121 119.366 260.129 119.778V120.138C260.129 120.216 260.09 120.254 260.012 120.254H259.407C259.33 120.254 259.291 120.216 259.291 120.138V119.673C259.307 119.076 259.528 118.595 259.954 118.23C260.388 117.866 260.935 117.683 261.594 117.683C262.06 117.683 262.471 117.773 262.828 117.951C263.184 118.129 263.46 118.378 263.654 118.696C263.847 119.006 263.944 119.359 263.944 119.754C263.944 120.413 263.58 121.208 262.851 122.139C262.471 122.628 261.738 123.527 260.652 124.838L260.396 125.141Z" fill="#254B45"/>
<path d="M50.4718 145.73C50.5184 145.707 50.5688 145.695 50.6231 145.695H51.2513C51.3288 145.695 51.3676 145.734 51.3676 145.812V153.722C51.3676 153.8 51.3288 153.839 51.2513 153.839H50.658C50.5804 153.839 50.5416 153.8 50.5416 153.722V146.638C50.5416 146.622 50.5339 146.61 50.5184 146.603C50.5106 146.595 50.499 146.595 50.4835 146.603L49.2503 147.103L49.2038 147.114C49.1572 147.114 49.1262 147.083 49.1107 147.021L49.0525 146.579V146.556C49.0525 146.517 49.0797 146.479 49.134 146.44L50.4718 145.73ZM57.6684 149.988C57.8235 150.368 57.9011 150.822 57.9011 151.349C57.9011 151.776 57.8429 152.152 57.7266 152.478C57.5715 152.943 57.3078 153.304 56.9355 153.559C56.571 153.808 56.1173 153.932 55.5744 153.932C55.0315 153.932 54.5661 153.792 54.1784 153.513C53.7906 153.226 53.523 152.842 53.3756 152.361C53.3058 152.144 53.2632 151.849 53.2477 151.477C53.2477 151.399 53.2865 151.361 53.364 151.361H53.9573C54.0349 151.361 54.0737 151.399 54.0737 151.477C54.0892 151.702 54.1163 151.911 54.1551 152.105C54.2404 152.447 54.4033 152.718 54.6437 152.92C54.8919 153.113 55.1982 153.21 55.5627 153.21C56.2608 153.21 56.7145 152.9 56.9239 152.28C57.0169 152.024 57.0635 151.706 57.0635 151.326C57.0635 150.86 57.0014 150.48 56.8773 150.186C56.6292 149.627 56.191 149.348 55.5627 149.348C55.4464 149.348 55.3029 149.391 55.1323 149.476C55.1013 149.492 55.078 149.499 55.0625 149.499C55.0315 149.499 55.0043 149.48 54.9811 149.441L54.6786 149.034C54.6398 148.972 54.6437 148.918 54.6902 148.871L56.7377 146.475C56.761 146.436 56.7532 146.416 56.7145 146.416H53.4338C53.3563 146.416 53.3175 146.378 53.3175 146.3V145.812C53.3175 145.734 53.3563 145.695 53.4338 145.695H57.7382C57.8158 145.695 57.8545 145.734 57.8545 145.812V146.382C57.8545 146.42 57.8352 146.467 57.7964 146.521L55.935 148.755C55.9195 148.77 55.9156 148.786 55.9234 148.801C55.9311 148.809 55.9467 148.813 55.9699 148.813C56.7998 148.867 57.3659 149.259 57.6684 149.988Z" fill="#254B45"/>
<path d="M84.6091 145.731C84.6556 145.707 84.706 145.696 84.7603 145.696H85.3885C85.4661 145.696 85.5048 145.734 85.5048 145.812V153.723C85.5048 153.8 85.4661 153.839 85.3885 153.839H84.7952C84.7176 153.839 84.6789 153.8 84.6789 153.723V146.638C84.6789 146.622 84.6711 146.611 84.6556 146.603C84.6478 146.595 84.6362 146.595 84.6207 146.603L83.3875 147.103L83.341 147.115C83.2945 147.115 83.2634 147.084 83.2479 147.022L83.1898 146.58V146.557C83.1898 146.518 83.2169 146.479 83.2712 146.44L84.6091 145.731ZM92.3873 150.849C92.4649 150.849 92.5037 150.888 92.5037 150.966V151.477C92.5037 151.555 92.4649 151.594 92.3873 151.594H91.8871C91.8561 151.594 91.8405 151.609 91.8405 151.64V153.723C91.8405 153.8 91.8018 153.839 91.7242 153.839H91.1309C91.0533 153.839 91.0146 153.8 91.0146 153.723V151.64C91.0146 151.609 90.9991 151.594 90.968 151.594H87.4896C87.4121 151.594 87.3733 151.555 87.3733 151.477V151.047C87.3733 151.008 87.3849 150.962 87.4082 150.907L89.7931 145.777C89.8163 145.723 89.859 145.696 89.921 145.696H90.5376C90.5764 145.696 90.6035 145.711 90.619 145.742C90.6423 145.765 90.6462 145.796 90.6307 145.835L88.3156 150.791C88.3078 150.807 88.3078 150.822 88.3156 150.838C88.3234 150.845 88.335 150.849 88.3505 150.849H90.968C90.9991 150.849 91.0146 150.834 91.0146 150.803V148.93C91.0146 148.852 91.0533 148.813 91.1309 148.813H91.7242C91.8018 148.813 91.8405 148.852 91.8405 148.93V150.803C91.8405 150.834 91.8561 150.849 91.8871 150.849H92.3873Z" fill="#254B45"/>
<path d="M119.172 145.73C119.219 145.707 119.269 145.695 119.323 145.695H119.952C120.029 145.695 120.068 145.734 120.068 145.811V153.722C120.068 153.8 120.029 153.839 119.952 153.839H119.358C119.281 153.839 119.242 153.8 119.242 153.722V146.637C119.242 146.622 119.234 146.61 119.219 146.602C119.211 146.595 119.199 146.595 119.184 146.602L117.951 147.103L117.904 147.114C117.858 147.114 117.827 147.083 117.811 147.021L117.753 146.579V146.556C117.753 146.517 117.78 146.478 117.834 146.44L119.172 145.73ZM126.66 150.279C126.729 150.62 126.764 150.969 126.764 151.326C126.764 151.706 126.729 152.031 126.66 152.303C126.528 152.799 126.264 153.195 125.869 153.49C125.473 153.776 124.996 153.92 124.438 153.92C123.887 153.92 123.418 153.78 123.03 153.501C122.642 153.222 122.379 152.85 122.239 152.384C122.185 152.214 122.15 152.043 122.134 151.872V151.849C122.134 151.787 122.169 151.756 122.239 151.756H122.855C122.933 151.756 122.976 151.795 122.983 151.872C122.983 151.919 122.999 151.997 123.03 152.105C123.108 152.439 123.267 152.706 123.507 152.908C123.755 153.102 124.061 153.199 124.426 153.199C124.798 153.199 125.108 153.094 125.357 152.885C125.613 152.675 125.779 152.388 125.857 152.024C125.903 151.845 125.927 151.613 125.927 151.326C125.927 151.062 125.907 150.81 125.869 150.57C125.814 150.213 125.659 149.941 125.403 149.755C125.147 149.569 124.829 149.476 124.449 149.476C124.108 149.476 123.802 149.554 123.53 149.709C123.259 149.864 123.084 150.069 123.007 150.325C122.983 150.395 122.941 150.43 122.879 150.43H122.251C122.173 150.43 122.134 150.391 122.134 150.314V145.811C122.134 145.734 122.173 145.695 122.251 145.695H126.322C126.4 145.695 126.439 145.734 126.439 145.811V146.3C126.439 146.378 126.4 146.416 126.322 146.416H123.007C122.976 146.416 122.96 146.432 122.96 146.463L122.949 149.278C122.949 149.294 122.952 149.305 122.96 149.313C122.976 149.321 122.991 149.317 123.007 149.301C123.201 149.123 123.429 148.987 123.693 148.894C123.957 148.793 124.236 148.743 124.531 148.743C125.081 148.743 125.547 148.879 125.927 149.15C126.307 149.414 126.551 149.79 126.66 150.279Z" fill="#254B45"/>
<path d="M153.515 145.73C153.562 145.707 153.612 145.695 153.666 145.695H154.294C154.372 145.695 154.411 145.734 154.411 145.811V153.722C154.411 153.8 154.372 153.839 154.294 153.839H153.701C153.624 153.839 153.585 153.8 153.585 153.722V146.637C153.585 146.622 153.577 146.61 153.562 146.602C153.554 146.595 153.542 146.595 153.527 146.602L152.294 147.103L152.247 147.114C152.2 147.114 152.169 147.083 152.154 147.021L152.096 146.579V146.556C152.096 146.517 152.123 146.478 152.177 146.44L153.515 145.73ZM160.874 150.011C161.037 150.36 161.119 150.802 161.119 151.337C161.119 151.818 161.057 152.206 160.933 152.501C160.77 152.951 160.51 153.3 160.153 153.548C159.796 153.796 159.351 153.92 158.815 153.92C158.257 153.92 157.788 153.788 157.408 153.524C157.028 153.261 156.76 152.888 156.605 152.408C156.512 152.097 156.465 151.733 156.465 151.314V147.684C156.465 147.048 156.675 146.544 157.094 146.172C157.512 145.792 158.059 145.602 158.734 145.602C159.393 145.602 159.924 145.784 160.328 146.149C160.731 146.513 160.933 146.994 160.933 147.591V147.754C160.933 147.832 160.894 147.871 160.816 147.871H160.223C160.145 147.871 160.107 147.832 160.107 147.754V147.661C160.107 147.266 159.979 146.944 159.723 146.696C159.467 146.447 159.137 146.323 158.734 146.323C158.315 146.323 157.97 146.455 157.699 146.719C157.427 146.975 157.291 147.316 157.291 147.743V149.453C157.291 149.468 157.299 149.48 157.315 149.488C157.33 149.488 157.342 149.48 157.35 149.464C157.691 148.999 158.207 148.766 158.897 148.766C159.385 148.766 159.793 148.875 160.118 149.092C160.452 149.309 160.704 149.616 160.874 150.011ZM160.153 152.221C160.246 151.981 160.293 151.686 160.293 151.337C160.293 150.934 160.239 150.624 160.13 150.407C160.037 150.12 159.874 149.895 159.641 149.732C159.409 149.569 159.122 149.488 158.78 149.488C158.439 149.488 158.152 149.573 157.92 149.744C157.687 149.906 157.524 150.135 157.431 150.43C157.338 150.67 157.291 150.984 157.291 151.372C157.291 151.713 157.33 151.997 157.408 152.221C157.501 152.516 157.664 152.753 157.896 152.931C158.137 153.109 158.435 153.199 158.792 153.199C159.126 153.199 159.413 153.117 159.653 152.954C159.893 152.784 160.06 152.539 160.153 152.221Z" fill="#254B45"/>
<path d="M188.107 145.73C188.154 145.707 188.204 145.695 188.258 145.695H188.887C188.964 145.695 189.003 145.734 189.003 145.811V153.722C189.003 153.8 188.964 153.839 188.887 153.839H188.293C188.216 153.839 188.177 153.8 188.177 153.722V146.637C188.177 146.622 188.169 146.61 188.154 146.602C188.146 146.595 188.134 146.595 188.119 146.602L186.886 147.103L186.839 147.114C186.792 147.114 186.761 147.083 186.746 147.021L186.688 146.579V146.556C186.688 146.517 186.715 146.478 186.769 146.44L188.107 145.73ZM192.058 153.839C192.019 153.839 191.988 153.827 191.965 153.804C191.949 153.773 191.949 153.738 191.965 153.699L194.652 146.475C194.66 146.459 194.66 146.447 194.652 146.44C194.644 146.424 194.633 146.416 194.617 146.416H191.476C191.445 146.416 191.43 146.432 191.43 146.463V146.998C191.43 147.076 191.391 147.114 191.313 147.114H190.836C190.759 147.114 190.72 147.076 190.72 146.998L190.732 145.811C190.732 145.734 190.77 145.695 190.848 145.695H195.432C195.509 145.695 195.548 145.734 195.548 145.811V146.347C195.548 146.378 195.54 146.424 195.525 146.486L192.849 153.745C192.826 153.808 192.779 153.839 192.709 153.839H192.058Z" fill="#254B45"/>
<path d="M222.171 145.493C222.218 145.469 222.268 145.458 222.323 145.458H222.951C223.028 145.458 223.067 145.497 223.067 145.574V153.485C223.067 153.562 223.028 153.601 222.951 153.601H222.358C222.28 153.601 222.241 153.562 222.241 153.485V146.4C222.241 146.385 222.233 146.373 222.218 146.365C222.21 146.357 222.199 146.357 222.183 146.365L220.95 146.865L220.903 146.877C220.857 146.877 220.826 146.846 220.81 146.784L220.752 146.342V146.319C220.752 146.28 220.779 146.241 220.834 146.202L222.171 145.493ZM229.496 150.181C229.643 150.499 229.717 150.879 229.717 151.321C229.717 151.856 229.605 152.31 229.38 152.682C229.194 153 228.93 153.248 228.589 153.427C228.247 153.605 227.852 153.694 227.402 153.694C226.937 153.694 226.529 153.605 226.18 153.427C225.831 153.241 225.564 152.973 225.378 152.624C225.161 152.236 225.052 151.798 225.052 151.309C225.052 150.898 225.133 150.511 225.296 150.146C225.475 149.758 225.758 149.467 226.146 149.274C226.184 149.258 226.184 149.239 226.146 149.215C225.89 149.068 225.68 148.87 225.517 148.622C225.285 148.289 225.168 147.909 225.168 147.482C225.168 147.048 225.285 146.652 225.517 146.295C225.703 145.993 225.959 145.76 226.285 145.597C226.619 145.427 226.991 145.341 227.402 145.341C227.829 145.341 228.201 145.427 228.519 145.597C228.837 145.76 229.089 145.993 229.275 146.295C229.5 146.66 229.612 147.055 229.612 147.482C229.612 147.909 229.496 148.296 229.263 148.645C229.124 148.855 228.918 149.045 228.647 149.215C228.608 149.239 228.608 149.258 228.647 149.274C229.042 149.467 229.325 149.77 229.496 150.181ZM226.169 146.796C226.045 147.028 225.983 147.257 225.983 147.482C225.983 147.808 226.064 148.091 226.227 148.331C226.351 148.525 226.51 148.673 226.704 148.773C226.906 148.874 227.134 148.925 227.39 148.925C227.646 148.925 227.875 148.874 228.077 148.773C228.278 148.665 228.441 148.514 228.565 148.32C228.713 148.11 228.786 147.827 228.786 147.47C228.786 147.214 228.728 146.982 228.612 146.772C228.496 146.555 228.333 146.385 228.123 146.26C227.914 146.129 227.666 146.063 227.379 146.063C227.107 146.063 226.867 146.129 226.657 146.26C226.448 146.392 226.285 146.571 226.169 146.796ZM228.6 152.368C228.794 152.073 228.891 151.705 228.891 151.263C228.891 150.898 228.829 150.584 228.705 150.321C228.472 149.809 228.034 149.553 227.39 149.553C226.778 149.553 226.351 149.793 226.111 150.274C225.971 150.522 225.901 150.856 225.901 151.275C225.901 151.709 225.987 152.062 226.157 152.333C226.421 152.76 226.836 152.973 227.402 152.973C227.953 152.973 228.352 152.771 228.6 152.368Z" fill="#254B45"/>
<path d="M256.519 145.731C256.565 145.707 256.616 145.696 256.67 145.696H257.298C257.376 145.696 257.415 145.734 257.415 145.812V153.723C257.415 153.8 257.376 153.839 257.298 153.839H256.705C256.627 153.839 256.589 153.8 256.589 153.723V146.638C256.589 146.622 256.581 146.611 256.565 146.603C256.558 146.595 256.546 146.595 256.53 146.603L255.297 147.103L255.251 147.115C255.204 147.115 255.173 147.084 255.158 147.022L255.1 146.58V146.557C255.1 146.518 255.127 146.479 255.181 146.44L256.519 145.731ZM263.878 147.127C263.971 147.437 264.018 147.801 264.018 148.22V151.85C264.018 152.486 263.809 152.994 263.39 153.374C262.971 153.746 262.424 153.932 261.749 153.932C261.098 153.932 260.567 153.75 260.156 153.385C259.752 153.013 259.551 152.532 259.551 151.943V151.78C259.551 151.702 259.589 151.664 259.667 151.664H260.26C260.338 151.664 260.377 151.702 260.377 151.78V151.873C260.377 152.269 260.505 152.59 260.761 152.839C261.016 153.087 261.346 153.211 261.749 153.211C262.168 153.211 262.513 153.083 262.785 152.827C263.056 152.563 263.192 152.218 263.192 151.792V150.093C263.192 150.078 263.184 150.07 263.169 150.07C263.153 150.062 263.142 150.066 263.134 150.081C262.793 150.539 262.281 150.768 261.598 150.768C261.11 150.768 260.698 150.659 260.365 150.442C260.039 150.225 259.791 149.919 259.62 149.523C259.458 149.197 259.376 148.755 259.376 148.197C259.376 147.724 259.434 147.336 259.551 147.033C259.714 146.584 259.973 146.235 260.33 145.986C260.695 145.738 261.141 145.614 261.668 145.614C262.226 145.614 262.696 145.75 263.076 146.021C263.463 146.285 263.731 146.653 263.878 147.127ZM261.703 150.047C262.044 150.047 262.331 149.965 262.564 149.802C262.804 149.632 262.971 149.399 263.064 149.104C263.149 148.879 263.192 148.565 263.192 148.162C263.192 147.828 263.157 147.545 263.087 147.313C262.994 147.018 262.827 146.781 262.587 146.603C262.347 146.425 262.052 146.335 261.703 146.335C261.369 146.335 261.082 146.421 260.842 146.591C260.602 146.754 260.431 146.995 260.33 147.313C260.245 147.53 260.202 147.825 260.202 148.197C260.202 148.592 260.253 148.903 260.353 149.128C260.446 149.407 260.609 149.632 260.842 149.802C261.075 149.965 261.362 150.047 261.703 150.047Z" fill="#254B45"/>
<path d="M50.4998 179.727C50.5773 179.727 50.6161 179.766 50.6161 179.843V180.344C50.6161 180.421 50.5773 180.46 50.4998 180.46H48.2196C48.1886 180.46 48.1731 180.476 48.1731 180.507V187.754C48.1731 187.832 48.1343 187.871 48.0567 187.871H47.4634C47.3859 187.871 47.3471 187.832 47.3471 187.754V180.507C47.3471 180.476 47.3316 180.46 47.3006 180.46H45.1135C45.0359 180.46 44.9971 180.421 44.9971 180.344V179.843C44.9971 179.766 45.0359 179.727 45.1135 179.727H50.4998ZM52.6713 180.914C52.4852 180.914 52.3301 180.852 52.206 180.728C52.0819 180.604 52.0199 180.448 52.0199 180.262C52.0199 180.068 52.0819 179.913 52.206 179.797C52.3301 179.673 52.4852 179.611 52.6713 179.611C52.8575 179.611 53.0126 179.673 53.1367 179.797C53.2608 179.913 53.3228 180.068 53.3228 180.262C53.3228 180.448 53.2608 180.604 53.1367 180.728C53.0126 180.852 52.8575 180.914 52.6713 180.914ZM52.3456 187.859C52.268 187.859 52.2293 187.82 52.2293 187.743V182.089C52.2293 182.011 52.268 181.972 52.3456 181.972H52.9389C53.0165 181.972 53.0552 182.011 53.0552 182.089V187.743C53.0552 187.82 53.0165 187.859 52.9389 187.859H52.3456ZM61.2555 181.903C61.8372 181.903 62.2947 182.077 62.6282 182.426C62.9695 182.775 63.1401 183.252 63.1401 183.857V187.754C63.1401 187.832 63.1013 187.871 63.0238 187.871H62.4421C62.3645 187.871 62.3258 187.832 62.3258 187.754V184.02C62.3258 183.593 62.2017 183.256 61.9535 183.008C61.7131 182.752 61.3951 182.624 60.9996 182.624C60.5885 182.624 60.255 182.748 59.9991 182.996C59.7509 183.244 59.6268 183.578 59.6268 183.997V187.754C59.6268 187.832 59.588 187.871 59.5105 187.871H58.9172C58.8396 187.871 58.8008 187.832 58.8008 187.754V184.02C58.8008 183.593 58.6806 183.256 58.4402 183.008C58.1998 182.752 57.8779 182.624 57.4746 182.624C57.0636 182.624 56.7339 182.748 56.4858 182.996C56.2453 183.244 56.1251 183.578 56.1251 183.997V187.754C56.1251 187.832 56.0863 187.871 56.0088 187.871H55.4155C55.3379 187.871 55.2991 187.832 55.2991 187.754V182.1C55.2991 182.023 55.3379 181.984 55.4155 181.984H56.0088C56.0863 181.984 56.1251 182.023 56.1251 182.1V182.566C56.1251 182.581 56.129 182.593 56.1367 182.601C56.1523 182.601 56.1678 182.593 56.1833 182.577C56.3539 182.352 56.5711 182.186 56.8348 182.077C57.1062 181.961 57.4048 181.903 57.7305 181.903C58.1338 181.903 58.479 181.984 58.7659 182.147C59.0529 182.31 59.27 182.546 59.4174 182.857C59.4329 182.895 59.4523 182.895 59.4756 182.857C59.6462 182.539 59.8866 182.302 60.1968 182.147C60.5071 181.984 60.8599 181.903 61.2555 181.903ZM69.5771 183.938C69.6081 184.156 69.6236 184.427 69.6236 184.753V185.125C69.6236 185.203 69.5848 185.241 69.5073 185.241H65.7497C65.7186 185.241 65.7031 185.257 65.7031 185.288C65.7186 185.714 65.7419 185.99 65.7729 186.114C65.8582 186.463 66.0405 186.738 66.3197 186.94C66.5989 187.142 66.9557 187.242 67.39 187.242C67.7157 187.242 68.0027 187.169 68.2509 187.021C68.499 186.874 68.6929 186.665 68.8325 186.393C68.8791 186.323 68.9334 186.308 68.9954 186.347L69.4491 186.614C69.5112 186.653 69.5267 186.707 69.4956 186.777C69.3018 187.149 69.0109 187.444 68.6231 187.661C68.2353 187.871 67.7894 187.975 67.2853 187.975C66.7346 187.968 66.2732 187.836 65.9009 187.58C65.5286 187.324 65.261 186.967 65.0982 186.509C64.9586 186.137 64.8888 185.602 64.8888 184.904C64.8888 184.578 64.8927 184.315 64.9004 184.113C64.9159 183.904 64.9469 183.717 64.9935 183.555C65.1253 183.05 65.389 182.647 65.7846 182.345C66.1879 182.042 66.6726 181.891 67.2387 181.891C67.9445 181.891 68.4874 182.069 68.8674 182.426C69.2475 182.783 69.484 183.287 69.5771 183.938ZM67.2387 182.612C66.8587 182.612 66.5407 182.713 66.2848 182.915C66.0366 183.109 65.8737 183.372 65.7962 183.706C65.7497 183.869 65.7186 184.132 65.7031 184.497C65.7031 184.528 65.7186 184.543 65.7497 184.543H68.7627C68.7938 184.543 68.8093 184.528 68.8093 184.497C68.7938 184.148 68.7705 183.9 68.7395 183.752C68.6542 183.403 68.4796 183.128 68.216 182.926C67.96 182.717 67.6343 182.612 67.2387 182.612Z" fill="black"/>
<rect x="157.516" y="172.4" width="50.024" height="20.9403" rx="3.49005" fill="#767680" fill-opacity="0.12"/>
<path d="M196.533 186.02C196.618 186.02 196.661 186.063 196.661 186.148V186.711C196.661 186.796 196.618 186.839 196.533 186.839H195.982C195.948 186.839 195.931 186.856 195.931 186.89V189.181C195.931 189.266 195.889 189.309 195.803 189.309H195.151C195.065 189.309 195.023 189.266 195.023 189.181V186.89C195.023 186.856 195.006 186.839 194.971 186.839H191.145C191.06 186.839 191.017 186.796 191.017 186.711V186.237C191.017 186.195 191.03 186.144 191.056 186.084L193.679 180.44C193.705 180.381 193.751 180.351 193.82 180.351H194.498C194.541 180.351 194.57 180.368 194.588 180.402C194.613 180.428 194.617 180.462 194.6 180.504L192.054 185.956C192.045 185.973 192.045 185.99 192.054 186.007C192.062 186.016 192.075 186.02 192.092 186.02H194.971C195.006 186.02 195.023 186.003 195.023 185.969V183.908C195.023 183.823 195.065 183.78 195.151 183.78H195.803C195.889 183.78 195.931 183.823 195.931 183.908V185.969C195.931 186.003 195.948 186.02 195.982 186.02H196.533ZM198.771 180.389C198.822 180.364 198.877 180.351 198.937 180.351H199.628C199.713 180.351 199.756 180.394 199.756 180.479V189.181C199.756 189.266 199.713 189.309 199.628 189.309H198.976C198.89 189.309 198.848 189.266 198.848 189.181V181.387C198.848 181.37 198.839 181.358 198.822 181.349C198.813 181.341 198.801 181.341 198.784 181.349L197.427 181.899L197.376 181.912C197.325 181.912 197.291 181.878 197.274 181.81L197.21 181.323V181.298C197.21 181.255 197.239 181.213 197.299 181.17L198.771 180.389Z" fill="black"/>
<path d="M184.266 183.666C184.052 183.666 183.877 183.598 183.741 183.461C183.613 183.325 183.549 183.154 183.549 182.949C183.549 182.736 183.613 182.565 183.741 182.437C183.877 182.301 184.052 182.233 184.266 182.233C184.47 182.233 184.641 182.301 184.777 182.437C184.914 182.565 184.982 182.736 184.982 182.949C184.982 183.154 184.914 183.325 184.777 183.461C184.641 183.598 184.47 183.666 184.266 183.666ZM184.266 187.978C184.052 187.978 183.877 187.91 183.741 187.774C183.613 187.637 183.549 187.466 183.549 187.262C183.549 187.048 183.613 186.878 183.741 186.75C183.877 186.613 184.052 186.545 184.266 186.545C184.47 186.545 184.641 186.613 184.777 186.75C184.914 186.878 184.982 187.048 184.982 187.262C184.982 187.466 184.914 187.637 184.777 187.774C184.641 187.91 184.47 187.978 184.266 187.978Z" fill="black"/>
<path d="M169.685 189.437C168.866 189.437 168.213 189.202 167.727 188.733C167.241 188.264 166.998 187.637 166.998 186.852V182.808C166.998 182.023 167.241 181.4 167.727 180.94C168.213 180.47 168.866 180.236 169.685 180.236C170.513 180.236 171.174 180.47 171.669 180.94C172.163 181.409 172.411 182.032 172.411 182.808V186.852C172.411 187.637 172.163 188.264 171.669 188.733C171.174 189.202 170.513 189.437 169.685 189.437ZM169.685 188.643C170.231 188.643 170.67 188.485 171.003 188.17C171.336 187.854 171.502 187.432 171.502 186.903V182.769C171.502 182.249 171.336 181.831 171.003 181.515C170.679 181.2 170.24 181.042 169.685 181.042C169.148 181.042 168.717 181.2 168.393 181.515C168.068 181.831 167.906 182.249 167.906 182.769V186.903C167.906 187.432 168.068 187.854 168.393 188.17C168.717 188.485 169.148 188.643 169.685 188.643ZM179.21 181.925C179.313 182.266 179.364 182.667 179.364 183.128V187.12C179.364 187.82 179.133 188.379 178.673 188.797C178.212 189.206 177.611 189.411 176.868 189.411C176.152 189.411 175.567 189.211 175.115 188.81C174.672 188.4 174.45 187.871 174.45 187.223V187.044C174.45 186.958 174.492 186.916 174.578 186.916H175.23C175.316 186.916 175.358 186.958 175.358 187.044V187.146C175.358 187.581 175.499 187.935 175.781 188.208C176.062 188.481 176.425 188.618 176.868 188.618C177.329 188.618 177.709 188.477 178.007 188.195C178.306 187.905 178.455 187.526 178.455 187.056V185.188C178.455 185.171 178.447 185.163 178.43 185.163C178.413 185.154 178.4 185.158 178.391 185.175C178.016 185.679 177.453 185.93 176.702 185.93C176.165 185.93 175.712 185.811 175.346 185.572C174.987 185.333 174.714 184.996 174.527 184.561C174.347 184.203 174.258 183.716 174.258 183.102C174.258 182.582 174.322 182.155 174.45 181.823C174.629 181.328 174.915 180.944 175.307 180.671C175.708 180.398 176.199 180.261 176.779 180.261C177.393 180.261 177.909 180.411 178.327 180.709C178.754 180.999 179.048 181.404 179.21 181.925ZM176.817 185.137C177.193 185.137 177.508 185.047 177.764 184.868C178.029 184.68 178.212 184.425 178.314 184.1C178.408 183.853 178.455 183.507 178.455 183.064C178.455 182.697 178.417 182.386 178.34 182.13C178.238 181.805 178.054 181.545 177.79 181.349C177.525 181.153 177.201 181.055 176.817 181.055C176.45 181.055 176.135 181.149 175.87 181.336C175.606 181.515 175.418 181.78 175.307 182.13C175.213 182.369 175.166 182.693 175.166 183.102C175.166 183.537 175.222 183.879 175.333 184.126C175.435 184.433 175.614 184.68 175.87 184.868C176.126 185.047 176.442 185.137 176.817 185.137Z" fill="black"/>
<g clip-path="url(#clip1_3531_607)">
<rect x="211.03" y="172.4" width="58.7492" height="20.9403" rx="5.18272" fill="#767680" fill-opacity="0.12"/>
<g filter="url(#filter1_dd_3531_607)">
<rect x="212.194" y="173.564" width="28.2112" height="18.6136" rx="4.03101" fill="white"/>
<rect x="212.048" y="173.418" width="28.5021" height="18.9044" rx="4.17643" stroke="black" stroke-opacity="0.04" stroke-width="0.290837"/>
<path d="M225.319 186.217C225.273 186.217 225.243 186.197 225.228 186.157L224.925 185.204C224.92 185.189 224.91 185.181 224.895 185.181H222.634C222.619 185.181 222.609 185.189 222.604 185.204L222.301 186.157C222.286 186.197 222.256 186.217 222.211 186.217H221.802C221.747 186.217 221.727 186.19 221.742 186.134L223.413 180.985C223.428 180.944 223.458 180.924 223.504 180.924H224.018C224.063 180.924 224.094 180.944 224.109 180.985L225.787 186.134L225.795 186.165C225.795 186.2 225.772 186.217 225.727 186.217H225.319ZM222.755 184.705C222.75 184.715 222.75 184.725 222.755 184.735C222.765 184.74 222.775 184.743 222.785 184.743H224.736C224.746 184.743 224.754 184.74 224.759 184.735C224.769 184.725 224.772 184.715 224.767 184.705L223.783 181.62C223.778 181.61 223.771 181.605 223.761 181.605C223.751 181.605 223.743 181.61 223.738 181.62L222.755 184.705ZM230.16 180.977C230.185 180.942 230.216 180.924 230.251 180.924H230.644C230.694 180.924 230.72 180.949 230.72 181V186.142C230.72 186.192 230.694 186.217 230.644 186.217H230.258C230.208 186.217 230.183 186.192 230.183 186.142V181.937C230.183 181.922 230.178 181.912 230.168 181.907C230.158 181.902 230.15 181.907 230.145 181.922L228.912 183.813C228.887 183.848 228.857 183.866 228.822 183.866H228.625C228.59 183.866 228.56 183.851 228.534 183.82L227.302 181.945C227.297 181.93 227.289 181.925 227.279 181.93C227.269 181.935 227.264 181.945 227.264 181.96V186.142C227.264 186.192 227.239 186.217 227.188 186.217H226.803C226.752 186.217 226.727 186.192 226.727 186.142V181C226.727 180.949 226.752 180.924 226.803 180.924H227.196C227.236 180.924 227.266 180.939 227.287 180.97L228.708 183.125C228.713 183.13 228.721 183.132 228.731 183.132C228.741 183.132 228.749 183.13 228.754 183.125L230.16 180.977Z" fill="black"/>
</g>
<path d="M252.462 180.917C252.905 180.917 253.261 181.053 253.528 181.325C253.8 181.597 253.936 181.955 253.936 182.399C253.936 182.837 253.798 183.19 253.52 183.457C253.248 183.725 252.888 183.858 252.439 183.858H250.965C250.944 183.858 250.934 183.868 250.934 183.888V186.142C250.934 186.192 250.909 186.217 250.859 186.217H250.473C250.423 186.217 250.397 186.192 250.397 186.142V180.992C250.397 180.942 250.423 180.917 250.473 180.917H252.462ZM252.401 183.412C252.699 183.412 252.941 183.321 253.127 183.14C253.314 182.953 253.407 182.709 253.407 182.406C253.407 182.099 253.314 181.852 253.127 181.665C252.941 181.479 252.699 181.385 252.401 181.385H250.965C250.944 181.385 250.934 181.396 250.934 181.416V183.382C250.934 183.402 250.944 183.412 250.965 183.412H252.401ZM258.312 180.977C258.337 180.942 258.367 180.924 258.403 180.924H258.796C258.846 180.924 258.871 180.949 258.871 181V186.142C258.871 186.192 258.846 186.217 258.796 186.217H258.41C258.36 186.217 258.335 186.192 258.335 186.142V181.937C258.335 181.922 258.33 181.912 258.319 181.907C258.309 181.902 258.302 181.907 258.297 181.922L257.064 183.813C257.039 183.848 257.009 183.866 256.973 183.866H256.777C256.742 183.866 256.711 183.851 256.686 183.82L255.454 181.945C255.448 181.93 255.441 181.925 255.431 181.93C255.421 181.935 255.416 181.945 255.416 181.96V186.142C255.416 186.192 255.391 186.217 255.34 186.217H254.954C254.904 186.217 254.879 186.192 254.879 186.142V181C254.879 180.949 254.904 180.924 254.954 180.924H255.348C255.388 180.924 255.418 180.939 255.438 180.97L256.86 183.125C256.865 183.13 256.873 183.132 256.883 183.132C256.893 183.132 256.9 183.13 256.905 183.125L258.312 180.977Z" fill="black"/>
</g>
</g>
<defs>
<filter id="filter0_dd_3531_607" x="1.90735e-05" y="-3.8147e-06" width="313.987" height="260.59" filterUnits="userSpaceOnUse" color-interpolation-filters="sRGB">
<feFlood flood-opacity="0" result="BackgroundImageFix"/>
<feColorMatrix in="SourceAlpha" type="matrix" values="0 0 0 0 0 0 0 0 0 0 0 0 0 0 0 0 0 0 127 0" result="hardAlpha"/>
<feOffset dy="5.81675"/>
<feGaussianBlur stdDeviation="17.4502"/>
<feColorMatrix type="matrix" values="0 0 0 0 0 0 0 0 0 0 0 0 0 0 0 0 0 0 0.1 0"/>
<feBlend mode="normal" in2="BackgroundImageFix" result="effect1_dropShadow_3531_607"/>
<feColorMatrix in="SourceAlpha" type="matrix" values="0 0 0 0 0 0 0 0 0 0 0 0 0 0 0 0 0 0 127 0" result="hardAlpha"/>
<feOffset dy="2.61069"/>
<feGaussianBlur stdDeviation="3.48092"/>
<feComposite in2="hardAlpha" operator="out"/>
<feColorMatrix type="matrix" values="0 0 0 0 0 0 0 0 0 0 0 0 0 0 0 0 0 0 0.06 0"/>
<feBlend mode="normal" in2="effect1_dropShadow_3531_607" result="effect2_dropShadow_3531_607"/>
<feBlend mode="normal" in="SourceGraphic" in2="effect2_dropShadow_3531_607" result="shape"/>
</filter>
<filter id="filter1_dd_3531_607" x="207.249" y="170.365" width="38.0997" height="28.5021" filterUnits="userSpaceOnUse" color-interpolation-filters="sRGB">
<feFlood flood-opacity="0" result="BackgroundImageFix"/>
<feColorMatrix in="SourceAlpha" type="matrix" values="0 0 0 0 0 0 0 0 0 0 0 0 0 0 0 0 0 0 127 0" result="hardAlpha"/>
<feOffset dy="1.74502"/>
<feGaussianBlur stdDeviation="0.290837"/>
<feColorMatrix type="matrix" values="0 0 0 0 0 0 0 0 0 0 0 0 0 0 0 0 0 0 0.04 0"/>
<feBlend mode="normal" in2="BackgroundImageFix" result="effect1_dropShadow_3531_607"/>
<feColorMatrix in="SourceAlpha" type="matrix" values="0 0 0 0 0 0 0 0 0 0 0 0 0 0 0 0 0 0 127 0" result="hardAlpha"/>
<feOffset dy="1.74502"/>
<feGaussianBlur stdDeviation="2.3267"/>
<feColorMatrix type="matrix" values="0 0 0 0 0 0 0 0 0 0 0 0 0 0 0 0 0 0 0.12 0"/>
<feBlend mode="normal" in2="effect1_dropShadow_3531_607" result="effect2_dropShadow_3531_607"/>
<feBlend mode="normal" in="SourceGraphic" in2="effect2_dropShadow_3531_607" result="shape"/>
</filter>
<clipPath id="clip0_3531_607">
<rect width="61.5451" height="16" fill="white" transform="translate(44.2081 38.5334)"/>
</clipPath>
<clipPath id="clip1_3531_607">
<rect x="211.03" y="172.4" width="58.7492" height="20.9403" rx="5.18272" fill="white"/>
</clipPath>
</defs>
</svg>
