<svg width="1440" height="144" viewBox="0 0 1440 144" fill="none" xmlns="http://www.w3.org/2000/svg">
<rect width="1440" height="144" transform="translate(-0.5)" fill="#EBF1F9"/>
<g clip-path="url(#clip0_3540_606)">
<path d="M134.135 53.9992H119.5V88.9992L134.135 53.9992Z" fill="#184E7F" fill-opacity="0.6"/>
<path d="M144.433 53.9998H159.049V88.9998L144.433 53.9998Z" fill="#184E7F" fill-opacity="0.6"/>
<path d="M139.285 66.8997L148.6 89H142.488L139.704 81.9637H132.887L139.285 66.8997Z" fill="#184E7F" fill-opacity="0.6"/>
<path d="M182.924 76.2578L184.65 81.206C184.707 81.33 184.793 81.3872 184.945 81.3872H188.263C188.444 81.3872 188.473 81.3014 188.444 81.1202L181.589 62.0804C181.561 61.9279 181.532 61.8993 181.38 61.8993H177.261C177.146 61.8993 177.08 61.9851 177.08 62.109C177.022 63.1101 176.937 63.4152 176.813 63.7108L170.701 81.0916C170.673 81.3014 170.739 81.3872 170.911 81.3872H173.876C174.057 81.3872 174.143 81.33 174.21 81.1488L175.84 76.2578H182.924ZM176.784 73.0257C177.68 70.318 178.863 66.8475 179.339 64.8644H179.368C179.959 66.9429 181.351 71.0616 181.98 73.0257H176.784Z" fill="#184E7F" fill-opacity="0.6"/>
<path d="M197.258 81.6827C199.041 81.6827 200.938 81.3585 202.864 80.5291C203.017 80.4719 203.045 80.4051 203.045 80.2621C202.988 79.7282 202.922 78.9559 202.922 78.3648V60.4405C202.922 60.3261 202.922 60.2689 202.779 60.2689H199.546C199.422 60.2689 199.365 60.3261 199.365 60.4787V66.552C198.86 66.4947 198.507 66.4661 198.088 66.4661C192.872 66.4661 189.669 69.908 189.669 74.2079C189.669 79.1943 192.958 81.6827 197.258 81.6827ZM199.365 78.3648C198.831 78.5364 198.24 78.6032 197.64 78.6032C195.275 78.6032 193.34 77.2684 193.34 74.0268C193.34 71.157 195.332 69.4599 197.973 69.4599C198.507 69.4599 198.974 69.5171 199.365 69.6696V78.3648Z" fill="#184E7F" fill-opacity="0.6"/>
<path d="M213.357 66.4661C208.905 66.4661 206.149 69.8793 206.149 74.0934C206.149 77.8594 208.342 81.6826 213.291 81.6826C217.476 81.6826 220.413 78.6031 220.413 73.9981C220.413 69.9365 217.924 66.4661 213.357 66.4661ZM213.176 69.4598C215.693 69.4598 216.761 71.6241 216.761 74.0934C216.761 77.1444 215.188 78.6603 213.357 78.6603C211.098 78.6603 209.763 76.763 209.763 74.0267C209.763 71.2141 211.183 69.4598 213.176 69.4598Z" fill="#184E7F" fill-opacity="0.6"/>
<path d="M223.753 60.2689C223.629 60.2689 223.543 60.3261 223.543 60.4787V80.7674C223.543 80.8532 223.629 81.0058 223.753 81.0344C225.173 81.4729 226.661 81.6827 228.196 81.6827C232.591 81.6827 236.862 78.9559 236.862 73.4642C236.862 69.4885 234.135 66.4661 229.864 66.4661C228.882 66.4661 227.967 66.6187 227.166 66.8856L227.128 60.5073C227.128 60.2975 227.071 60.2689 226.861 60.2689H223.753ZM233.211 73.8265C233.211 77.1158 230.961 78.6604 228.529 78.6604C228.024 78.6604 227.576 78.6318 227.166 78.5078V69.8508C227.633 69.6696 228.196 69.5171 229.235 69.5171C231.58 69.5171 233.211 71.0044 233.211 73.8265Z" fill="#184E7F" fill-opacity="0.6"/>
<path d="M248.923 74.8943C250.372 74.8943 251.564 74.8657 251.974 74.7703C252.127 74.7417 252.184 74.6845 252.213 74.5606C252.298 74.2364 252.337 73.5595 252.337 72.73C252.337 69.9079 250.639 66.4661 246.254 66.4661C241.773 66.4661 239.284 70.1177 239.284 74.2364C239.284 77.888 241.21 81.6826 246.606 81.6826C248.628 81.6826 249.934 81.3585 251.059 80.8246C251.173 80.7673 251.231 80.672 251.231 80.5004V78.031C251.231 77.888 251.145 77.8594 251.059 77.9166C249.934 78.3933 248.714 78.6317 247.379 78.6317C244.356 78.6317 242.983 76.9632 242.898 74.8943H248.923ZM242.898 72.3391C243.136 70.8899 244.051 69.3168 246.101 69.3168C248.361 69.3168 248.952 71.2141 248.952 72.0722C248.952 72.1008 248.952 72.2247 248.952 72.3105C248.828 72.3391 248.447 72.3391 247.322 72.3391H242.898Z" fill="#184E7F" fill-opacity="0.6"/>
</g>
<g clip-path="url(#clip1_3540_606)">
<path d="M374.272 72.0528C374.276 70.2604 373.726 68.5105 372.697 67.0429C371.668 65.5754 370.21 64.4619 368.524 63.8551C368.677 63.0728 368.754 62.2775 368.755 61.4802C368.756 58.8415 367.921 56.2702 366.369 54.136C364.817 52.0019 362.628 50.4149 360.117 49.6031C357.606 48.7914 354.903 48.7968 352.395 49.6184C349.888 50.4401 347.705 52.0358 346.162 54.176C345.023 53.2936 343.628 52.8063 342.187 52.7879C340.746 52.7696 339.339 53.2213 338.178 54.0745C337.017 54.9277 336.166 56.136 335.754 57.5164C335.341 58.8967 335.39 60.3739 335.892 61.7242C334.202 62.3403 332.74 63.4595 331.705 64.931C330.669 66.4025 330.109 68.1559 330.1 69.9552C330.095 71.7538 330.648 73.5097 331.683 74.981C332.717 76.4523 334.183 77.5667 335.877 78.1709C335.727 78.9528 335.65 79.747 335.648 80.5431C335.646 83.1789 336.48 85.7473 338.032 87.8781C339.583 90.0089 341.771 91.592 344.28 92.399C346.789 93.2061 349.49 93.1954 351.993 92.3686C354.495 91.5418 356.671 89.9416 358.205 87.7986C359.341 88.6833 360.734 89.1735 362.173 89.195C363.612 89.2165 365.019 88.768 366.18 87.9176C367.342 87.0672 368.194 85.8613 368.608 84.4828C369.022 83.1042 368.975 81.6282 368.475 80.2787C370.166 79.6636 371.629 78.5448 372.665 77.0731C373.701 75.6013 374.261 73.8474 374.269 72.0476" fill="#EBF1F9"/>
<path d="M347.464 67.9504L357.13 72.3638L366.886 63.8195C367.027 63.1145 367.097 62.3972 367.094 61.6783C367.094 59.3509 366.349 57.0848 364.967 55.2116C363.586 53.3384 361.642 51.9563 359.419 51.2677C357.196 50.579 354.81 50.62 352.612 51.3845C350.414 52.149 348.518 53.597 347.202 55.5165L345.577 63.9222L347.464 67.9504Z" fill="#184E7F" fill-opacity="0.6"/>
<path d="M337.46 78.1868C337.318 78.9029 337.246 79.6313 337.247 80.3614C337.247 82.6984 337.996 84.9739 339.385 86.8539C340.773 88.7339 342.727 90.1193 344.961 90.8069C347.194 91.4944 349.59 91.4479 351.795 90.6742C354 89.9004 355.899 88.4402 357.214 86.5077L358.823 78.1201L356.674 74.0122L346.972 69.5912L337.46 78.1868Z" fill="#184E7F" fill-opacity="0.6"/>
<path d="M337.401 61.4602L344.025 63.0238L345.476 55.4911C344.575 54.8079 343.477 54.435 342.346 54.4281C341.215 54.4212 340.113 54.7807 339.204 55.4529C338.295 56.125 337.628 57.0736 337.303 58.1565C336.978 59.2395 337.012 60.3986 337.401 61.4602Z" fill="#184E7F" fill-opacity="0.6"/>
<path d="M336.825 63.0364C335.372 63.5269 334.108 64.458 333.208 65.7004C332.308 66.9428 331.818 68.4346 331.806 69.9684C331.805 71.4508 332.255 72.8983 333.097 74.1187C333.938 75.339 335.131 76.2743 336.517 76.8002L345.811 68.3997L344.104 64.754L336.825 63.0364Z" fill="#184E7F" fill-opacity="0.6"/>
<path d="M358.913 86.5067C359.813 87.1864 360.908 87.557 362.036 87.563C363.163 87.5689 364.262 87.2101 365.169 86.54C366.075 85.8699 366.741 84.9245 367.066 83.845C367.391 82.7655 367.358 81.6097 366.973 80.5504L360.354 79.0099L358.913 86.5067Z" fill="#184E7F" fill-opacity="0.6"/>
<path d="M360.259 77.2671L367.545 78.9693C368.999 78.4802 370.265 77.5494 371.164 76.3067C372.064 75.064 372.554 73.5715 372.564 72.0373C372.563 70.5581 372.112 69.1142 371.271 67.8972C370.43 66.6803 369.239 65.7478 367.856 65.2234L358.326 73.5675L360.259 77.2671Z" fill="#184E7F" fill-opacity="0.6"/>
<path d="M391.861 79.9113L392.745 79.8214L392.806 81.6186C390.841 81.9154 388.858 82.0784 386.87 82.1064C384.679 82.1064 383.127 81.4723 382.213 80.204C381.299 78.9357 380.843 76.9622 380.845 74.2836C380.845 68.9485 382.965 66.2801 387.207 66.2784C389.261 66.2784 390.792 66.8518 391.802 67.9986C392.812 69.1454 393.319 70.9425 393.322 73.3901L393.202 75.1257H383.158C383.158 76.8099 383.463 78.0576 384.072 78.8689C384.681 79.6802 385.741 80.0859 387.25 80.0859C388.763 80.091 390.3 80.0328 391.861 79.9113ZM391.04 73.308C391.04 71.4406 390.741 70.1218 390.144 69.3516C389.546 68.5814 388.572 68.1954 387.222 68.1937C385.872 68.1937 384.857 68.5994 384.177 69.4107C383.498 70.2219 383.148 71.5211 383.127 73.308H391.04Z" fill="#184E7F" fill-opacity="0.6"/>
<path d="M396.506 81.9858V61.9601H398.788V81.9858H396.506Z" fill="#184E7F" fill-opacity="0.6"/>
<path d="M413.163 71.177V78.8535C413.163 79.6237 415.058 79.5827 415.058 79.5827L414.942 81.6006C413.338 81.6006 412.01 81.7341 411.214 80.9614C409.491 81.7268 407.624 82.1163 405.738 82.1038C404.34 82.1038 403.274 81.7076 402.542 80.9151C401.809 80.1227 401.444 78.9836 401.446 77.4979C401.446 76.0157 401.821 74.9246 402.573 74.2245C403.324 73.5245 404.501 73.0966 406.103 72.9408L410.881 72.4864V71.177C410.881 70.1501 410.658 69.4089 410.213 68.9536C409.969 68.7248 409.682 68.5476 409.367 68.4329C409.053 68.3182 408.719 68.2682 408.385 68.2861H402.388V66.2759H408.234C409.959 66.2759 411.212 66.6721 411.992 67.4646C412.773 68.257 413.163 69.4945 413.163 71.177ZM403.784 77.385C403.784 79.2523 404.555 80.186 406.095 80.186C407.485 80.1844 408.864 79.9474 410.175 79.4851L410.873 79.2412V74.2194L406.377 74.6456C405.463 74.7277 404.804 74.9913 404.398 75.4363C403.992 75.8813 403.788 76.5309 403.784 77.385Z" fill="#184E7F" fill-opacity="0.6"/>
<path d="M422.074 68.3169C419.861 68.3169 418.755 69.0872 418.755 70.6276C418.755 71.3396 419.011 71.842 419.525 72.1346C420.038 72.4273 421.195 72.732 422.993 73.0486C424.801 73.3653 426.079 73.8069 426.829 74.3734C427.579 74.94 427.954 76.0046 427.956 77.5673C427.956 79.1317 427.454 80.2784 426.449 81.0076C425.444 81.7367 423.978 82.1021 422.051 82.1038C420.793 82.1038 416.593 81.6366 416.593 81.6366L416.716 79.6597C419.129 79.8907 420.873 80.0628 422.051 80.0628C423.23 80.0628 424.126 79.8753 424.744 79.5005C425.363 79.1257 425.671 78.4967 425.671 77.6135C425.671 76.7303 425.414 76.1321 424.88 75.8163C424.346 75.5005 423.196 75.2027 421.412 74.9177C419.628 74.6327 418.357 74.2168 417.607 73.6699C416.857 73.1231 416.48 72.1064 416.48 70.625C416.48 69.1436 416.993 68.0576 418.049 67.3388C419.104 66.6199 420.398 66.2733 421.959 66.2733C423.196 66.2733 427.492 66.5891 427.492 66.5891V68.5788C425.224 68.4787 423.371 68.3169 422.074 68.3169Z" fill="#184E7F" fill-opacity="0.6"/>
<path d="M438.958 68.5583H434.118V75.8343C434.118 77.5784 434.245 78.7243 434.498 79.272C434.755 79.8214 435.356 80.0936 436.308 80.0936L439.017 79.9113L439.171 81.7983C438.145 81.9879 437.107 82.1003 436.064 82.1347C434.483 82.1347 433.387 81.7487 432.778 80.9768C432.169 80.2048 431.865 78.7337 431.866 76.5634V68.5583H429.715V66.5814H431.877V61.9241H434.128V66.5814H438.958V68.5583Z" fill="#184E7F" fill-opacity="0.6"/>
<path d="M442.131 64.6379V61.9883H444.413V64.6379H442.131ZM442.131 81.9858V66.5814H444.413V81.9858H442.131Z" fill="#184E7F" fill-opacity="0.6"/>
<path d="M454.3 66.2759C455.44 66.3245 456.576 66.4472 457.7 66.643L458.429 66.7329L458.339 68.5891C457.146 68.438 455.946 68.3471 454.745 68.3169C453.019 68.3169 451.848 68.7277 451.23 69.5493C450.612 70.3709 450.302 71.8925 450.3 74.1141C450.3 76.3392 450.59 77.8865 451.168 78.756C451.747 79.6255 452.953 80.0619 454.788 80.0653L458.383 79.7932L458.475 81.6802C457.076 81.9172 455.662 82.0596 454.244 82.1064C451.872 82.1064 450.234 81.4971 449.33 80.2784C448.426 79.0598 447.974 77.0059 447.974 74.1167C447.974 71.2258 448.461 69.1967 449.435 68.0294C450.409 66.8621 452.031 66.2776 454.3 66.2759Z" fill="#184E7F" fill-opacity="0.6"/>
</g>
<g clip-path="url(#clip2_3540_606)">
<path fill-rule="evenodd" clip-rule="evenodd" d="M549.784 72.6187C549.784 65.7114 548.625 62.8481 545.437 62.8481C542.626 62.8481 541.206 64.8553 541.206 71.8219C541.206 78.6995 542.307 81.5335 545.553 81.5335C548.422 81.5335 549.784 79.5555 549.784 72.6187ZM535.7 72.4417C535.7 64.6781 540.945 61.6084 545.611 61.6084C550.595 61.6084 555.29 64.6489 555.29 71.9693C555.29 79.7917 550.045 82.7732 545.379 82.7732C540.395 82.7732 535.7 79.5262 535.7 72.4417Z" fill="#184E7F" fill-opacity="0.6"/>
<path fill-rule="evenodd" clip-rule="evenodd" d="M578.892 72.9434L583.847 72.6778C583.847 69.1061 583.384 67.8072 581.645 67.8072C580.167 67.8072 579.007 69.2241 578.892 72.9434ZM574.313 74.685C574.313 69.5488 578.051 66.6855 581.876 66.6855C585.829 66.6855 588.309 68.6746 588.45 73.8787C588.453 73.9799 588.372 74.0652 588.273 74.0652H579.074C578.974 74.0652 578.893 74.1505 578.896 74.2519C579.025 78.9407 580.814 80.2346 583.76 80.2346C585.198 80.2346 586.357 79.8943 587.328 79.456C587.399 79.4235 587.482 79.4426 587.533 79.5034L587.918 79.9651C587.976 80.0348 587.976 80.1378 587.914 80.204C586.857 81.3396 584.705 82.7733 581.876 82.7733C576.834 82.7733 574.313 79.7033 574.313 74.685Z" fill="#184E7F" fill-opacity="0.6"/>
<path fill-rule="evenodd" clip-rule="evenodd" d="M633.987 74.9212C633.987 68.9584 632.857 67.8367 630.886 67.8367C629.06 67.8367 627.988 69.1946 627.988 74.2719C627.988 80.3234 628.944 81.6218 631.06 81.6218C632.799 81.6218 633.987 80.5888 633.987 74.9212ZM623.12 74.7737C623.12 69.1059 627.061 66.6855 630.973 66.6855C635.175 66.6855 638.855 69.2536 638.855 74.626C638.855 80.2937 634.972 82.7735 630.973 82.7735C626.771 82.7735 623.12 80.1754 623.12 74.7737Z" fill="#184E7F" fill-opacity="0.6"/>
<path fill-rule="evenodd" clip-rule="evenodd" d="M651.271 74.9212C651.271 68.9584 650.142 67.8367 648.171 67.8367C646.345 67.8367 645.273 69.1946 645.273 74.2719C645.273 80.3234 646.229 81.6218 648.345 81.6218C650.084 81.6218 651.271 80.5888 651.271 74.9212ZM640.404 74.7737C640.404 69.1059 644.345 66.6855 648.258 66.6855C652.46 66.6855 656.14 69.2536 656.14 74.626C656.14 80.2937 652.257 82.7735 648.258 82.7735C644.056 82.7735 640.404 80.1754 640.404 74.7737Z" fill="#184E7F" fill-opacity="0.6"/>
<path fill-rule="evenodd" clip-rule="evenodd" d="M600.363 66.6855C598.248 66.6855 596.335 67.6597 594.799 68.7812H594.683L594.74 66.9201C594.745 66.7774 594.624 66.6642 594.485 66.68L590.43 67.1483C590.311 67.162 590.221 67.2645 590.221 67.3868V82.185C590.221 82.3143 590.324 82.4189 590.45 82.4189H594.599C594.725 82.4189 594.828 82.3143 594.828 82.185V69.8145C595.466 69.6668 596.509 69.4308 597.524 69.4308C598.885 69.4308 599.523 69.9917 599.523 71.7922V82.185C599.523 82.3143 599.626 82.4189 599.753 82.4189H603.93C604.057 82.4189 604.16 82.3143 604.16 82.185V70.6412C604.16 67.9844 602.827 66.6855 600.363 66.6855Z" fill="#184E7F" fill-opacity="0.6"/>
<path fill-rule="evenodd" clip-rule="evenodd" d="M616.592 79.7918C616.128 79.969 615.346 80.4413 614.158 80.4413C611.955 80.4413 610.796 78.9357 610.796 74.3013C610.796 69.4306 612.245 67.8662 614.331 67.8662C615.404 67.8662 616.099 68.486 616.592 69.1059V79.7918ZM621.2 63.7927C621.2 62.2669 621.251 60.8649 621.278 60.2896C621.285 60.1212 621.145 59.986 620.98 60.001L616.807 60.4838C616.685 60.4949 616.592 60.5986 616.592 60.7231V64.8554C616.592 65.9179 616.65 67.0101 616.65 67.0101C616.041 66.8329 615.23 66.6855 614.448 66.6855C609.927 66.6855 606.043 69.1356 606.043 75.2756C606.043 80.6478 608.854 82.7733 611.723 82.7733C613.752 82.7733 615.375 81.9467 616.621 80.8547H616.737L616.678 82.484C616.671 82.6576 616.82 82.7948 616.989 82.7705L620.965 82.3184C621.099 82.2993 621.2 82.1818 621.2 82.0432V63.7927Z" fill="#184E7F" fill-opacity="0.6"/>
<path fill-rule="evenodd" clip-rule="evenodd" d="M666.91 66.6855C665.229 66.6855 663.577 67.9844 662.679 68.9584H662.563L662.619 66.9748C662.624 66.806 662.481 66.6716 662.316 66.6905L658.309 67.1486C658.19 67.1622 658.1 67.2647 658.1 67.3872V82.1412C658.1 82.2946 658.222 82.4189 658.373 82.4189H662.435C662.585 82.4189 662.708 82.2946 662.708 82.1412V70.1689C663.113 69.785 663.78 69.4011 664.301 69.4011C664.562 69.4011 664.736 69.4603 664.91 69.785C665.461 70.7 665.897 71.2289 667.141 71.2289C668.272 71.2289 669.282 70.3163 669.282 68.8994C669.282 67.4528 668.301 66.6855 666.91 66.6855Z" fill="#184E7F" fill-opacity="0.6"/>
<path fill-rule="evenodd" clip-rule="evenodd" d="M564.35 81.5924C563.365 81.5924 562.583 81.1496 562.061 80.5297V69.7848C562.524 69.6079 563.249 69.2535 564.408 69.2535C566.611 69.2535 567.857 70.7294 567.857 74.9506C567.857 80.3527 566.64 81.5924 564.35 81.5924ZM566.929 66.6856C564.901 66.6856 563.278 67.6596 562.061 68.7223H561.916L561.972 66.956C561.977 66.7952 561.841 66.667 561.684 66.6851L557.662 67.1482C557.543 67.162 557.453 67.2648 557.453 67.3871V88.7614C557.453 88.9045 557.575 89.0162 557.715 89L561.852 88.524C561.971 88.5104 562.061 88.4076 562.061 88.2854V84.2788C562.061 83.2458 562.032 82.4782 562.032 82.4782C562.669 82.6552 563.626 82.7732 564.234 82.7732C569.074 82.7732 572.609 80.0871 572.609 73.9471C572.609 68.5451 569.682 66.6856 566.929 66.6856Z" fill="#184E7F" fill-opacity="0.6"/>
</g>
<g clip-path="url(#clip3_3540_606)">
<path d="M809.011 73.6627L806.334 66.6562C806.224 66.3697 805.807 66.3697 805.697 66.6562L803.021 73.6631C803.002 73.7129 802.995 73.7665 803.002 73.8192C803.009 73.8718 803.029 73.9221 803.06 73.9657C803.092 74.0093 803.133 74.0449 803.182 74.0695C803.23 74.0941 803.284 74.1069 803.339 74.1069H808.692C808.747 74.1069 808.801 74.094 808.85 74.0694C808.898 74.0448 808.94 74.0092 808.971 73.9656C809.002 73.922 809.022 73.8716 809.029 73.8189C809.036 73.7662 809.029 73.7127 809.01 73.6629L809.011 73.6627ZM810.247 77.6009H801.784C801.715 77.6009 801.647 77.6215 801.591 77.6599C801.534 77.6983 801.49 77.7526 801.466 77.8157L799.8 82.1753C799.776 82.2383 799.733 82.2926 799.676 82.331C799.619 82.3694 799.551 82.39 799.482 82.39H795.814C795.759 82.39 795.704 82.3768 795.655 82.3515C795.606 82.3263 795.564 82.2898 795.533 82.2452C795.502 82.2006 795.483 82.1493 795.477 82.0957C795.471 82.0422 795.479 81.9881 795.499 81.9381L803.944 61.5121C803.97 61.451 804.013 61.3988 804.069 61.362C804.125 61.3252 804.192 61.3056 804.259 61.3057H807.772C807.91 61.3057 808.035 61.3873 808.087 61.5121L816.532 81.9379C816.552 81.9879 816.56 82.0421 816.554 82.0956C816.548 82.1492 816.529 82.2006 816.498 82.2453C816.467 82.2899 816.425 82.3265 816.376 82.3518C816.327 82.377 816.272 82.3902 816.217 82.3902H812.549C812.48 82.3902 812.412 82.3696 812.356 82.3312C812.299 82.2927 812.255 82.2383 812.231 82.1753L810.565 77.8157C810.541 77.7526 810.497 77.6983 810.441 77.6599C810.384 77.6215 810.316 77.6009 810.247 77.6009H810.247ZM818.25 68.4742H821.388C821.477 68.4742 821.564 68.5089 821.627 68.5706C821.691 68.6324 821.727 68.7162 821.727 68.8035V82.0606C821.727 82.148 821.691 82.2318 821.627 82.2935C821.564 82.3553 821.477 82.39 821.388 82.39H818.25C818.16 82.39 818.074 82.3553 818.01 82.2935C817.947 82.2318 817.911 82.148 817.911 82.0606V68.8033C817.911 68.716 817.947 68.6322 818.01 68.5704C818.074 68.5086 818.16 68.4739 818.25 68.4739V68.4742ZM833.169 71.699C833.169 71.7863 833.133 71.8701 833.069 71.9319C833.006 71.9936 832.92 72.0283 832.83 72.0283H832.735C831.183 72.0283 830.046 72.3898 829.322 73.1126C828.598 73.8355 828.236 75.0305 828.236 76.6971V82.0606C828.236 82.148 828.2 82.2318 828.137 82.2935C828.073 82.3553 827.987 82.39 827.897 82.39H824.79C824.7 82.39 824.614 82.3553 824.55 82.2935C824.487 82.2318 824.451 82.148 824.451 82.0606V68.8033C824.451 68.716 824.487 68.6322 824.55 68.5704C824.614 68.5086 824.7 68.4739 824.79 68.4739H827.866C827.956 68.4739 828.042 68.5086 828.106 68.5704C828.169 68.6322 828.205 68.716 828.205 68.8033V71.4256H828.267C828.639 70.3413 829.229 69.5084 830.036 68.9256C830.842 68.3435 831.835 68.0521 833.014 68.0521H833.169V71.6987V71.699ZM841.747 71.5764C841.657 71.5764 841.571 71.6111 841.507 71.6729C841.444 71.7347 841.408 71.8184 841.408 71.9058V77.42C841.408 77.9823 841.521 78.3839 841.749 78.6248C841.976 78.8657 842.369 78.9863 842.928 78.9863H843.24C843.33 78.9863 843.416 79.021 843.48 79.0827C843.544 79.1445 843.579 79.2283 843.579 79.3156V82.0905C843.579 82.1779 843.544 82.2616 843.48 82.3234C843.416 82.3852 843.33 82.4199 843.24 82.4199H841.904C840.518 82.4199 839.453 82.0736 838.709 81.3808C837.964 80.688 837.592 79.6593 837.592 78.2935V71.9058C837.592 71.8184 837.556 71.7347 837.492 71.6729C837.429 71.6111 837.342 71.5764 837.252 71.5764H835.294C835.204 71.5764 835.118 71.5417 835.054 71.48C834.991 71.4182 834.955 71.3344 834.955 71.2471V68.8033C834.955 68.716 834.991 68.6322 835.054 68.5704C835.118 68.5086 835.204 68.4739 835.294 68.4739H837.253C837.343 68.4739 837.429 68.4392 837.493 68.3775C837.556 68.3157 837.592 68.2319 837.592 68.1446V63.231C837.592 63.1436 837.628 63.0598 837.691 62.9981C837.755 62.9363 837.841 62.9016 837.931 62.9016H841.069C841.159 62.9016 841.245 62.9363 841.308 62.9981C841.372 63.0598 841.408 63.1436 841.408 63.231V68.1446C841.408 68.2319 841.444 68.3157 841.507 68.3775C841.571 68.4392 841.657 68.4739 841.747 68.4739H844.016C844.106 68.4739 844.192 68.5086 844.256 68.5704C844.319 68.6322 844.355 68.716 844.355 68.8033V71.2473C844.355 71.3346 844.319 71.4184 844.256 71.4802C844.192 71.5419 844.106 71.5766 844.016 71.5766H841.747V71.5764ZM856.113 78.2634C856.827 77.5405 857.184 76.5968 857.184 75.4319C857.184 74.2676 856.827 73.3234 856.113 72.6006C855.4 71.8777 854.464 71.5163 853.306 71.5163C852.147 71.5163 851.212 71.8777 850.498 72.6006C849.785 73.3234 849.428 74.2676 849.428 75.4319C849.428 76.5968 849.785 77.5405 850.498 78.2634C851.212 78.9863 852.147 79.3477 853.306 79.3477C854.464 79.3477 855.4 78.9863 856.113 78.2634ZM848.869 81.9682C847.815 81.3861 846.982 80.5374 846.372 79.423C845.762 78.3086 845.457 76.9784 845.457 75.4319C845.457 73.886 845.762 72.5553 846.372 71.4409C846.982 70.3266 847.815 69.4785 848.869 68.8958C849.924 68.3134 851.082 68.0223 852.344 68.0223C853.461 68.0223 854.417 68.2331 855.214 68.6547C856.01 69.0763 856.646 69.6689 857.122 70.432H857.184V68.8033C857.184 68.716 857.219 68.6322 857.283 68.5704C857.347 68.5086 857.433 68.4739 857.523 68.4739H860.629C860.719 68.4739 860.806 68.5086 860.869 68.5704C860.933 68.6322 860.969 68.716 860.969 68.8033V82.0604C860.969 82.1478 860.933 82.2316 860.869 82.2933C860.806 82.3551 860.719 82.3898 860.629 82.3898H857.523C857.433 82.3898 857.347 82.3551 857.283 82.2933C857.219 82.2316 857.184 82.1478 857.184 82.0604V80.432H857.122C856.646 81.1955 856.01 81.7875 855.214 82.2091C854.417 82.6307 853.461 82.8415 852.344 82.8415C851.082 82.8415 849.924 82.5503 848.869 81.9682ZM873.888 78.2634C874.601 77.5405 874.958 76.5968 874.958 75.4319C874.958 74.2676 874.601 73.3234 873.888 72.6006C873.174 71.8777 872.238 71.5163 871.08 71.5163C869.922 71.5163 868.986 71.8777 868.273 72.6006C867.559 73.3234 867.202 74.2676 867.202 75.4319C867.202 76.5968 867.559 77.5405 868.273 78.2634C868.986 78.9863 869.922 79.3477 871.08 79.3477C872.238 79.3477 873.174 78.9863 873.888 78.2634ZM869.172 82.2091C868.376 81.7875 867.74 81.1955 867.264 80.432H867.202V82.0604C867.202 82.1478 867.166 82.2316 867.103 82.2933C867.039 82.3551 866.953 82.3898 866.863 82.3898H863.725C863.636 82.3898 863.549 82.3551 863.486 82.2933C863.422 82.2316 863.386 82.1478 863.386 82.0604V61.6344C863.386 61.547 863.422 61.4632 863.486 61.4015C863.549 61.3397 863.636 61.305 863.725 61.305H866.863C866.953 61.305 867.039 61.3397 867.103 61.4015C867.166 61.4632 867.202 61.547 867.202 61.6344V70.4317H867.264C867.74 69.6687 868.376 69.0763 869.172 68.6547C869.968 68.2328 870.925 68.022 872.042 68.022C873.303 68.022 874.462 68.3132 875.517 68.8955C876.571 69.4783 877.404 70.3263 878.014 71.4405C878.624 72.5555 878.929 73.8862 878.929 75.4321C878.929 76.9786 878.624 78.3086 878.014 79.4232C877.404 80.5376 876.572 81.3863 875.517 81.9682C874.462 82.5505 873.304 82.8419 872.042 82.8419C870.925 82.8419 869.969 82.6311 869.172 82.2093L869.172 82.2091ZM884.215 82.39H881.078C880.988 82.39 880.902 82.3553 880.838 82.2935C880.774 82.2318 880.739 82.148 880.739 82.0606V61.635C880.739 61.5477 880.774 61.4639 880.838 61.4021C880.902 61.3404 880.988 61.3057 881.078 61.3057H884.215C884.305 61.3057 884.392 61.3404 884.455 61.4021C884.519 61.4639 884.555 61.5477 884.555 61.635V82.0606C884.555 82.148 884.519 82.2318 884.455 82.2935C884.392 82.3553 884.305 82.39 884.215 82.39ZM891.616 71.6972C891.096 72.0911 890.744 72.6598 890.563 73.4038C890.513 73.6089 890.678 73.8056 890.895 73.8056H896.865C897.073 73.8056 897.235 73.6256 897.202 73.4271C897.082 72.7233 896.772 72.1623 896.269 71.7424C895.68 71.2506 894.909 71.0046 893.958 71.0046C893.007 71.0046 892.226 71.2354 891.616 71.6972ZM899.263 69.9651C900.483 71.2607 901.093 73.0931 901.093 75.4622V75.8557C901.093 75.943 901.058 76.0268 900.994 76.0886C900.931 76.1503 900.844 76.185 900.754 76.185H890.779C890.73 76.1851 890.681 76.1958 890.636 76.2162C890.591 76.2366 890.551 76.2663 890.519 76.3032C890.487 76.3401 890.464 76.3834 890.451 76.43C890.438 76.4765 890.435 76.5253 890.444 76.5728C890.603 77.4529 891.004 78.1521 891.647 78.6701C892.381 79.2629 893.307 79.5587 894.423 79.5587C895.865 79.5587 897.2 79.0124 898.427 77.9195C898.577 77.786 898.815 77.8143 898.931 77.9766L900.456 80.1022C900.504 80.1683 900.525 80.2492 900.515 80.3294C900.506 80.4096 900.466 80.4837 900.404 80.5374C899.656 81.1737 898.823 81.7105 897.929 82.134C896.936 82.6056 895.768 82.8419 894.423 82.8419C892.872 82.8419 891.517 82.5354 890.359 81.9232C889.201 81.311 888.301 80.4476 887.66 79.3328C887.019 78.2184 886.699 76.9283 886.699 75.4622C886.699 73.9967 887.009 72.7016 887.629 71.5766C888.25 70.4524 889.118 69.5789 890.235 68.9561C891.352 68.3341 892.655 68.0225 894.144 68.0225C896.336 68.0225 898.043 68.6702 899.263 69.9651ZM822.137 63.5731C822.137 64.8155 821.099 65.8227 819.819 65.8227C818.539 65.8227 817.502 64.8155 817.502 63.5728C817.502 62.3302 818.539 61.323 819.819 61.323C821.099 61.323 822.137 62.3302 822.137 63.5728" fill="#184E7F" fill-opacity="0.6"/>
<path d="M765.168 55.3642L750.25 61.3572C749.42 61.6906 749.429 62.8348 750.264 63.1561L765.244 68.9236C766.56 69.4304 768.026 69.4304 769.342 68.9236L784.322 63.1558C785.156 62.8348 785.166 61.6908 784.335 61.3575L769.418 55.3639C768.057 54.8172 766.528 54.8172 765.167 55.3639" fill="#184E7F" fill-opacity="0.6"/>
<path d="M768.621 72.0725V86.4809C768.621 87.166 769.333 87.6355 769.989 87.3829L786.681 81.0923C786.867 81.0207 787.027 80.8964 787.139 80.7355C787.252 80.5747 787.312 80.3847 787.312 80.1903V65.7821C787.312 65.0968 786.6 64.6276 785.944 64.8801L769.252 71.1707C769.066 71.2424 768.906 71.3667 768.793 71.5276C768.681 71.6884 768.621 71.8783 768.621 72.0728" fill="#184E7F" fill-opacity="0.6"/>
<path d="M764.723 72.8166L759.769 75.1389L759.266 75.3749L748.809 80.2398C748.146 80.5503 747.3 80.0813 747.3 79.3663V65.843C747.3 65.5844 747.437 65.3611 747.62 65.1931C747.695 65.1204 747.78 65.0583 747.873 65.0086C748.123 64.863 748.479 64.8242 748.782 64.9406L764.64 71.041C765.446 71.3515 765.509 72.4481 764.723 72.8168" fill="#184E7F" fill-opacity="0.6"/>
<path d="M764.725 72.8157L759.771 75.138L747.621 65.192C747.696 65.1194 747.782 65.0574 747.875 65.0078C748.124 64.8622 748.481 64.8233 748.784 64.9397L764.642 71.0402C765.448 71.3506 765.511 72.4472 764.725 72.8159" fill="#184E7F" fill-opacity="0.6"/>
</g>
<g clip-path="url(#clip4_3540_606)">
<path d="M1023.07 72.0519C1023.08 70.2594 1022.52 68.5096 1021.5 67.042C1020.47 65.5745 1019.01 64.461 1017.32 63.8542C1017.48 63.0719 1017.55 62.2765 1017.55 61.4793C1017.56 58.8405 1016.72 56.2692 1015.17 54.1351C1013.62 52.001 1011.43 50.414 1008.92 49.6022C1006.41 48.7905 1003.7 48.7958 1001.19 49.6175C998.687 50.4392 996.504 52.0348 994.961 54.1751C993.822 53.2926 992.426 52.8053 990.986 52.787C989.545 52.7687 988.138 53.2204 986.977 54.0736C985.816 54.9268 984.965 56.1351 984.553 57.5154C984.14 58.8958 984.189 60.373 984.691 61.7232C983 62.3394 981.539 63.4586 980.504 64.9301C979.468 66.4016 978.908 68.155 978.899 69.9543C978.894 71.7529 979.447 73.5087 980.482 74.9801C981.516 76.4514 982.981 77.5658 984.676 78.17C984.526 78.9519 984.449 79.7461 984.447 80.5422C984.445 83.178 985.279 85.7464 986.831 87.8772C988.382 90.008 990.57 91.5911 993.079 92.3981C995.588 93.2052 998.289 93.1945 1000.79 92.3677C1003.29 91.5409 1005.47 89.9406 1007 87.7977C1008.14 88.6823 1009.53 89.1726 1010.97 89.1941C1012.41 89.2155 1013.82 88.7671 1014.98 87.9167C1016.14 87.0663 1016.99 85.8604 1017.41 84.4819C1017.82 83.1033 1017.77 81.6273 1017.27 80.2778C1018.97 79.6626 1020.43 78.5438 1021.46 77.0721C1022.5 75.6004 1023.06 73.8465 1023.07 72.0467" fill="#EBF1F9"/>
<path d="M996.266 67.9495L1005.93 72.3629L1015.69 63.8186C1015.83 63.1136 1015.9 62.3962 1015.9 61.6774C1015.9 59.35 1015.15 57.0839 1013.77 55.2107C1012.39 53.3374 1010.44 51.9554 1008.22 51.2667C1006 50.5781 1003.61 50.6191 1001.41 51.3836C999.215 52.1481 997.32 53.5961 996.004 55.5156L994.378 63.9213L996.266 67.9495Z" fill="#184E7F" fill-opacity="0.6"/>
<path d="M986.259 78.1857C986.117 78.9018 986.046 79.6302 986.046 80.3603C986.046 82.6973 986.796 84.9728 988.184 86.8528C989.572 88.7328 991.527 90.1182 993.76 90.8058C995.994 91.4933 998.389 91.4468 1000.59 90.6731C1002.8 89.8993 1004.7 88.4391 1006.01 86.5066L1007.62 78.119L1005.47 74.0111L995.772 69.5901L986.259 78.1857Z" fill="#184E7F" fill-opacity="0.6"/>
<path d="M986.2 61.4593L992.824 63.0229L994.274 55.4901C993.373 54.807 992.275 54.434 991.145 54.4272C990.014 54.4203 988.911 54.7798 988.002 55.452C987.093 56.1241 986.426 57.0727 986.101 58.1556C985.776 59.2386 985.811 60.3977 986.2 61.4593Z" fill="#184E7F" fill-opacity="0.6"/>
<path d="M985.623 63.0355C984.169 63.5259 982.905 64.4571 982.005 65.6995C981.106 66.9418 980.616 68.4337 980.604 69.9675C980.602 71.4499 981.053 72.8974 981.894 74.1178C982.736 75.3381 983.929 76.2734 985.315 76.7993L994.609 68.3988L992.901 64.7531L985.623 63.0355Z" fill="#184E7F" fill-opacity="0.6"/>
<path d="M1007.71 86.5058C1008.61 87.1855 1009.7 87.556 1010.83 87.562C1011.96 87.568 1013.06 87.2092 1013.97 86.5391C1014.87 85.869 1015.54 84.9236 1015.86 83.8441C1016.19 82.7645 1016.15 81.6088 1015.77 80.5495L1009.15 79.009L1007.71 86.5058Z" fill="#184E7F" fill-opacity="0.6"/>
<path d="M1009.06 77.2665L1016.34 78.9687C1017.8 78.4796 1019.06 77.5488 1019.96 76.3062C1020.86 75.0635 1021.35 73.5709 1021.36 72.0368C1021.36 70.5575 1020.91 69.1136 1020.07 67.8967C1019.23 66.6797 1018.04 65.7472 1016.66 65.2229L1007.12 73.5669L1009.06 77.2665Z" fill="#184E7F" fill-opacity="0.6"/>
<path d="M1040.66 79.9104L1041.54 79.8205L1041.6 81.6177C1039.64 81.9145 1037.66 82.0774 1035.67 82.1055C1033.48 82.1055 1031.92 81.4714 1031.01 80.2031C1030.1 78.9348 1029.64 76.9613 1029.64 74.2827C1029.64 68.9476 1031.76 66.2792 1036 66.2775C1038.06 66.2775 1039.59 66.8509 1040.6 67.9977C1041.61 69.1444 1042.12 70.9416 1042.12 73.3892L1042 75.1248H1031.96C1031.96 76.809 1032.26 78.0567 1032.87 78.868C1033.48 79.6793 1034.54 80.085 1036.05 80.085C1037.56 80.0901 1039.1 80.0319 1040.66 79.9104ZM1039.84 73.307C1039.84 71.4397 1039.54 70.1209 1038.94 69.3507C1038.34 68.5805 1037.37 68.1945 1036.02 68.1928C1034.67 68.1928 1033.65 68.5984 1032.97 69.4097C1032.3 70.221 1031.95 71.5201 1031.92 73.307H1039.84Z" fill="#184E7F" fill-opacity="0.6"/>
<path d="M1045.3 81.9848V61.9592H1047.59V81.9848H1045.3Z" fill="#184E7F" fill-opacity="0.6"/>
<path d="M1061.96 71.1761V78.8526C1061.96 79.6228 1063.86 79.5818 1063.86 79.5818L1063.74 81.5997C1062.14 81.5997 1060.81 81.7332 1060.01 80.9604C1058.29 81.7259 1056.42 82.1154 1054.54 82.1029C1053.14 82.1029 1052.07 81.7067 1051.34 80.9142C1050.61 80.1218 1050.24 78.9827 1050.24 77.497C1050.24 76.0148 1050.62 74.9236 1051.37 74.2236C1052.12 73.5236 1053.3 73.0957 1054.9 72.9399L1059.68 72.4855V71.1761C1059.68 70.1491 1059.46 69.408 1059.01 68.9527C1058.77 68.7238 1058.48 68.5467 1058.16 68.432C1057.85 68.3173 1057.52 68.2673 1057.18 68.2852H1051.19V66.2749H1057.03C1058.76 66.2749 1060.01 66.6712 1060.79 67.4636C1061.57 68.2561 1061.96 69.4936 1061.96 71.1761ZM1052.58 77.3841C1052.58 79.2514 1053.35 80.1851 1054.89 80.1851C1056.28 80.1835 1057.66 79.9465 1058.97 79.4842L1059.67 79.2403V74.2185L1055.17 74.6446C1054.26 74.7268 1053.6 74.9904 1053.2 75.4354C1052.79 75.8804 1052.59 76.53 1052.58 77.3841Z" fill="#184E7F" fill-opacity="0.6"/>
<path d="M1070.87 68.316C1068.66 68.316 1067.55 69.0862 1067.55 70.6267C1067.55 71.3387 1067.81 71.8411 1068.32 72.1337C1068.84 72.4264 1069.99 72.7311 1071.79 73.0477C1073.6 73.3644 1074.88 73.806 1075.63 74.3725C1076.38 74.939 1076.75 76.0037 1076.75 77.5663C1076.75 79.1307 1076.25 80.2775 1075.25 81.0066C1074.24 81.7358 1072.78 82.1012 1070.85 82.1029C1069.59 82.1029 1065.39 81.6357 1065.39 81.6357L1065.51 79.6588C1067.93 79.8898 1069.67 80.0618 1070.85 80.0618C1072.03 80.0618 1072.92 79.8744 1073.54 79.4996C1074.16 79.1247 1074.47 78.4957 1074.47 77.6126C1074.47 76.7294 1074.21 76.1312 1073.68 75.8154C1073.14 75.4996 1071.99 75.2018 1070.21 74.9168C1068.43 74.6318 1067.15 74.2159 1066.4 73.669C1065.65 73.1222 1065.28 72.1055 1065.28 70.6241C1065.28 69.1427 1065.79 68.0567 1066.85 67.3378C1067.9 66.619 1069.2 66.2724 1070.76 66.2724C1071.99 66.2724 1076.29 66.5882 1076.29 66.5882V68.5779C1074.02 68.4778 1072.17 68.316 1070.87 68.316Z" fill="#184E7F" fill-opacity="0.6"/>
<path d="M1087.76 68.5574H1082.92V75.8334C1082.92 77.5775 1083.04 78.7234 1083.3 79.2711C1083.55 79.8205 1084.15 80.0927 1085.11 80.0927L1087.81 79.9104L1087.97 81.7974C1086.94 81.987 1085.9 82.0994 1084.86 82.1337C1083.28 82.1337 1082.18 81.7478 1081.58 80.9758C1080.97 80.2039 1080.66 78.7328 1080.66 76.5625V68.5574H1078.51V66.5805H1080.67V61.9232H1082.93V66.5805H1087.76V68.5574Z" fill="#184E7F" fill-opacity="0.6"/>
<path d="M1090.93 64.637V61.9874H1093.21V64.637H1090.93ZM1090.93 81.9848V66.5805H1093.21V81.9848H1090.93Z" fill="#184E7F" fill-opacity="0.6"/>
<path d="M1103.1 66.2749C1104.24 66.3236 1105.37 66.4462 1106.5 66.6421L1107.23 66.7319L1107.14 68.5882C1105.94 68.437 1104.74 68.3462 1103.54 68.316C1101.82 68.316 1100.65 68.7268 1100.03 69.5484C1099.41 70.3699 1099.1 71.8916 1099.1 74.1132C1099.1 76.3383 1099.39 77.8856 1099.97 78.755C1100.54 79.6245 1101.75 80.061 1103.59 80.0644L1107.18 79.7923L1107.27 81.6793C1105.87 81.9163 1104.46 82.0587 1103.04 82.1055C1100.67 82.1055 1099.03 81.4962 1098.13 80.2775C1097.22 79.0589 1096.77 77.0049 1096.77 74.1158C1096.77 71.2249 1097.26 69.1958 1098.23 68.0285C1099.21 66.8612 1100.83 66.2767 1103.1 66.2749Z" fill="#184E7F" fill-opacity="0.6"/>
</g>
<g clip-path="url(#clip5_3540_606)">
<path d="M1184.5 49.9993H1213.64V64.5707H1199.07L1184.5 49.9993ZM1184.5 64.5707H1199.07L1213.64 79.142H1184.5V64.5707ZM1184.5 79.142H1199.07V93.7133L1184.5 79.142Z" fill="#184E7F" fill-opacity="0.6"/>
<path d="M1230.09 61.4947H1241.87V65.238H1234.54V70.44H1241.87V74.1007H1234.54V80.7614H1230.09V61.4947ZM1244.29 67.4947H1248.5V70.2747C1248.72 69.3194 1249.17 68.586 1249.85 68.0727C1250.54 67.54 1251.32 67.2747 1252.16 67.2747C1252.6 67.2747 1252.97 67.312 1253.26 67.3847V71.2934C1252.84 71.2427 1252.42 71.2154 1251.99 71.2107C1250.84 71.2107 1249.97 71.586 1249.38 72.3387C1248.79 73.0727 1248.5 74.1734 1248.5 75.642V80.7614H1244.29V67.4947H1244.29ZM1259.91 81.1194C1258.62 81.1194 1257.5 80.816 1256.55 80.2107C1255.61 79.6054 1254.87 78.746 1254.4 77.7334C1253.91 76.67 1253.66 75.4667 1253.66 74.128C1253.66 72.8067 1253.92 71.6134 1254.43 70.55C1254.91 69.5227 1255.68 68.654 1256.63 68.0454C1257.6 67.44 1258.72 67.1367 1259.96 67.1367C1260.9 67.1367 1261.74 67.3394 1262.47 67.7427C1263.2 68.1474 1263.75 68.698 1264.12 69.394V67.4947H1268.3V80.7614H1264.12V78.8894C1263.75 79.55 1263.18 80.0907 1262.41 80.5134C1261.64 80.922 1260.78 81.13 1259.91 81.1194ZM1261.12 77.6234C1262.13 77.6234 1262.91 77.2934 1263.46 76.6327C1264.01 75.972 1264.29 75.1367 1264.29 74.128C1264.29 73.1374 1264.01 72.3114 1263.46 71.6507C1262.91 70.99 1262.13 70.66 1261.12 70.66C1260.16 70.66 1259.4 70.9807 1258.81 71.6234C1258.24 72.266 1257.95 73.1 1257.95 74.128C1257.95 75.156 1258.24 75.9994 1258.81 76.66C1259.4 77.3027 1260.17 77.6234 1261.12 77.6234ZM1271.25 67.4947H1275.46V69.4214C1275.75 68.7414 1276.23 68.1907 1276.89 67.77C1277.57 67.3494 1278.36 67.1367 1279.26 67.1367C1281.35 67.1367 1282.74 67.9527 1283.41 69.5867C1283.79 68.846 1284.37 68.2334 1285.09 67.8254C1285.87 67.3607 1286.75 67.1227 1287.65 67.1367C1290.79 67.1367 1292.36 68.934 1292.36 72.5314V80.7614H1288.12V73.302C1288.12 72.404 1287.96 71.7434 1287.63 71.3207C1287.29 70.8994 1286.8 70.6874 1286.14 70.6874C1285.42 70.6874 1284.87 70.9354 1284.49 71.4307C1284.1 71.908 1283.91 72.742 1283.91 73.9354V80.7614H1279.67V73.2747C1279.67 72.376 1279.51 71.724 1279.18 71.3207C1278.86 70.8994 1278.38 70.6874 1277.72 70.6874C1276.98 70.6874 1276.42 70.9354 1276.04 71.4307C1275.65 71.908 1275.46 72.742 1275.46 73.9354V80.7614H1271.25V67.4947H1271.25ZM1308.18 73.44C1308.18 74.008 1308.14 74.6234 1308.07 75.284H1298.27C1298.31 76.1467 1298.6 76.806 1299.15 77.266C1299.7 77.724 1300.45 77.954 1301.38 77.954C1302.68 77.954 1303.51 77.5587 1303.86 76.77H1307.99C1307.78 78.0734 1307.07 79.1274 1305.84 79.9354C1304.63 80.724 1303.14 81.1194 1301.38 81.1194C1299.11 81.1194 1297.32 80.504 1296.01 79.2747C1294.73 78.0447 1294.09 76.33 1294.09 74.128C1294.09 72.6967 1294.38 71.458 1294.97 70.412C1295.53 69.3674 1296.41 68.522 1297.47 67.99C1298.56 67.422 1299.81 67.1367 1301.24 67.1367C1302.6 67.1367 1303.8 67.4027 1304.85 67.9354C1305.91 68.468 1306.73 69.2107 1307.3 70.1647C1307.89 71.12 1308.18 72.2114 1308.18 73.44ZM1304.02 72.6694C1304 71.7887 1303.76 71.118 1303.28 70.66C1302.8 70.202 1302.11 69.972 1301.21 69.972C1300.32 69.972 1299.6 70.2194 1299.07 70.7154C1298.55 71.1927 1298.29 71.8434 1298.27 72.6694H1304.02ZM1310.04 67.4947H1314.25V70.2747C1314.47 69.3194 1314.92 68.586 1315.6 68.0727C1316.25 67.554 1317.07 67.2727 1317.91 67.2747C1318.35 67.2747 1318.72 67.312 1319.01 67.3847V71.2934C1318.59 71.2427 1318.17 71.2154 1317.74 71.2107C1316.59 71.2107 1315.72 71.586 1315.13 72.3387C1314.54 73.0727 1314.25 74.1734 1314.25 75.642V80.7614H1310.04V67.4947Z" fill="#184E7F" fill-opacity="0.6"/>
</g>
<defs>
<clipPath id="clip0_3540_606">
<rect width="133" height="48" fill="white" transform="translate(119.5 47.9999)"/>
</clipPath>
<clipPath id="clip1_3540_606">
<rect width="128" height="48" fill="white" transform="translate(330.1 47.9999)"/>
</clipPath>
<clipPath id="clip2_3540_606">
<rect width="134" height="48" fill="white" transform="translate(535.7 47.9999)"/>
</clipPath>
<clipPath id="clip3_3540_606">
<rect width="154" height="48" fill="white" transform="translate(747.3 47.9999)"/>
</clipPath>
<clipPath id="clip4_3540_606">
<rect width="128" height="48" fill="white" transform="translate(978.9 47.9999)"/>
</clipPath>
<clipPath id="clip5_3540_606">
<rect width="135" height="48" fill="white" transform="translate(1184.5 47.9999)"/>
</clipPath>
</defs>
</svg>
