<svg width="176" height="56" viewBox="0 0 176 56" fill="none" xmlns="http://www.w3.org/2000/svg">
<g clip-path="url(#clip0_3545_606)">
<path d="M29.75 10.4999C26.8042 10.4984 23.933 11.4262 21.5451 13.1512C19.1572 14.8761 17.3742 17.3103 16.45 20.1074C16.3848 20.3335 16.2746 20.5442 16.1261 20.7268C15.9775 20.9094 15.7937 21.0602 15.5855 21.1701C15.3773 21.28 15.1492 21.3467 14.9146 21.3664C14.68 21.386 14.4439 21.3581 14.2204 21.2844C13.9968 21.2107 13.7905 21.0926 13.6136 20.9373C13.4368 20.7819 13.2931 20.5925 13.1911 20.3803C13.0892 20.1682 13.0311 19.9376 13.0204 19.7025C13.0096 19.4674 13.0464 19.2325 13.1285 19.0119C14.3434 15.3432 16.738 12.1796 19.939 10.0143C23.1401 7.849 26.9676 6.80374 30.8249 7.04147C34.6822 7.2792 38.3525 8.78657 41.2634 11.3286C44.1743 13.8705 46.1623 17.3043 46.9175 21.0944C49.5574 21.451 51.9631 22.7976 53.6473 24.8616C55.3314 26.9255 56.1682 29.5524 55.9879 32.2102C55.8077 34.868 54.6241 37.3579 52.6767 39.1756C50.7293 40.9933 48.1639 42.0029 45.5 41.9999H15.75C15.2859 41.9999 14.8407 41.8155 14.5126 41.4873C14.1844 41.1591 14 40.714 14 40.2499C14 39.7857 14.1844 39.3406 14.5126 39.0124C14.8407 38.6842 15.2859 38.4999 15.75 38.4999H45.5C47.3565 38.5003 49.1372 37.7633 50.4503 36.4509C51.7633 35.1384 52.5013 33.3581 52.5017 31.5016C52.5022 29.6451 51.7652 27.8644 50.4527 26.5514C49.1403 25.2383 47.36 24.5003 45.5035 24.4999H45.4125C44.9799 24.5025 44.5616 24.3448 44.2384 24.0571C43.9153 23.7695 43.7101 23.3724 43.6625 22.9424C43.2794 19.5205 41.6488 16.3598 39.0822 14.0644C36.5157 11.7691 33.1932 10.5 29.75 10.4999ZM0 26.2499C0 25.7857 0.184374 25.3406 0.512563 25.0124C0.840752 24.6842 1.28587 24.4999 1.75 24.4999H19.25C19.7141 24.4999 20.1592 24.6842 20.4874 25.0124C20.8156 25.3406 21 25.7857 21 26.2499C21 26.714 20.8156 27.1591 20.4874 27.4873C20.1592 27.8155 19.7141 27.9999 19.25 27.9999H1.75C1.28587 27.9999 0.840752 27.8155 0.512563 27.4873C0.184374 27.1591 0 26.714 0 26.2499ZM7 33.2499C7 32.7857 7.18437 32.3406 7.51256 32.0124C7.84075 31.6842 8.28587 31.4999 8.75 31.4999H40.25C40.7141 31.4999 41.1592 31.6842 41.4874 32.0124C41.8156 32.3406 42 32.7857 42 33.2499C42 33.714 41.8156 34.1591 41.4874 34.4873C41.1592 34.8155 40.7141 34.9999 40.25 34.9999H8.75C8.28587 34.9999 7.84075 34.8155 7.51256 34.4873C7.18437 34.1591 7 33.714 7 33.2499ZM0 47.2499C0 46.7857 0.184374 46.3406 0.512563 46.0124C0.840752 45.6842 1.28587 45.4999 1.75 45.4999H33.25C33.7141 45.4999 34.1592 45.6842 34.4874 46.0124C34.8156 46.3406 35 46.7857 35 47.2499C35 47.714 34.8156 48.1591 34.4874 48.4873C34.1592 48.8155 33.7141 48.9999 33.25 48.9999H1.75C1.28587 48.9999 0.840752 48.8155 0.512563 48.4873C0.184374 48.1591 0 47.714 0 47.2499Z" fill="#184E7F"/>
</g>
<path d="M65.8693 43V13.9091H71.1392V26.2244H84.6193V13.9091H89.9034V43H84.6193V30.642H71.1392V43H65.8693ZM109.314 33.8239V21.1818H114.456V43H109.47V39.1222H109.243C108.75 40.3437 107.941 41.3428 106.814 42.1193C105.696 42.8958 104.319 43.2841 102.68 43.2841C101.25 43.2841 99.9863 42.9669 98.8878 42.3324C97.7988 41.6884 96.9465 40.7557 96.331 39.5341C95.7154 38.303 95.4077 36.8163 95.4077 35.0739V21.1818H100.55V34.2784C100.55 35.661 100.929 36.7595 101.686 37.5739C102.444 38.3883 103.438 38.7955 104.669 38.7955C105.427 38.7955 106.161 38.6108 106.871 38.2415C107.581 37.8722 108.163 37.3229 108.618 36.5938C109.082 35.8551 109.314 34.9318 109.314 33.8239ZM119.971 43V13.9091H125.113V24.7898H125.326C125.591 24.2595 125.965 23.696 126.448 23.0994C126.931 22.4934 127.585 21.9773 128.408 21.5511C129.232 21.1155 130.283 20.8977 131.562 20.8977C133.247 20.8977 134.767 21.3286 136.121 22.1903C137.485 23.0426 138.565 24.3068 139.36 25.983C140.165 27.6496 140.567 29.6951 140.567 32.1193C140.567 34.5152 140.174 36.5511 139.388 38.2273C138.603 39.9034 137.532 41.1818 136.178 42.0625C134.824 42.9432 133.29 43.3835 131.576 43.3835C130.326 43.3835 129.289 43.1752 128.465 42.7585C127.641 42.3419 126.978 41.84 126.477 41.2528C125.984 40.6562 125.601 40.0928 125.326 39.5625H125.028V43H119.971ZM125.013 32.0909C125.013 33.5019 125.212 34.7377 125.61 35.7983C126.017 36.8589 126.6 37.6875 127.357 38.2841C128.124 38.8712 129.052 39.1648 130.141 39.1648C131.278 39.1648 132.229 38.8617 132.996 38.2557C133.763 37.6402 134.341 36.8021 134.729 35.7415C135.127 34.6714 135.326 33.4545 135.326 32.0909C135.326 30.7367 135.132 29.5341 134.744 28.483C134.355 27.4318 133.778 26.608 133.011 26.0114C132.244 25.4148 131.287 25.1165 130.141 25.1165C129.043 25.1165 128.11 25.4053 127.343 25.983C126.576 26.5606 125.994 27.3703 125.596 28.4119C125.208 29.4536 125.013 30.6799 125.013 32.0909ZM150.081 13.9091V43H144.939V13.9091H150.081ZM158.565 51.1818C157.864 51.1818 157.215 51.125 156.619 51.0114C156.031 50.9072 155.563 50.7841 155.212 50.642L156.406 46.6364C157.154 46.8542 157.821 46.9583 158.408 46.9489C158.996 46.9394 159.512 46.7547 159.957 46.3949C160.411 46.0445 160.795 45.4574 161.107 44.6335L161.548 43.4545L153.636 21.1818H159.09L164.119 37.6591H164.346L169.388 21.1818H174.857L166.121 45.642C165.714 46.7973 165.174 47.7869 164.502 48.6108C163.83 49.4441 163.006 50.0786 162.031 50.5142C161.065 50.9593 159.909 51.1818 158.565 51.1818Z" fill="#184E7F"/>
<defs>
<clipPath id="clip0_3545_606">
<rect width="56" height="56" fill="white"/>
</clipPath>
</defs>
</svg>
