<svg width="173" height="40" viewBox="0 0 173 40" fill="none" xmlns="http://www.w3.org/2000/svg">
<circle cx="20" cy="20" r="19.3888" stroke="#244779" stroke-width="1.22241"/>
<path d="M14.6695 15.892C14.6695 14.3249 16.3898 13.3666 17.7222 14.1914L25.9225 19.2678C27.1855 20.0497 27.1855 21.887 25.9225 22.6689L17.7222 27.7452C16.3898 28.57 14.6695 27.6117 14.6695 26.0447V15.892Z" fill="#244779"/>
<path d="M56.884 28.5C56.7227 28.5 56.62 28.4267 56.576 28.28L52.572 13.386L52.55 13.298C52.55 13.166 52.6307 13.1 52.792 13.1H54.948C55.1093 13.1 55.212 13.1733 55.256 13.32L57.764 23.352C57.7787 23.396 57.8007 23.418 57.83 23.418C57.8593 23.418 57.8813 23.396 57.896 23.352L60.294 13.32C60.338 13.1733 60.4333 13.1 60.58 13.1H62.692C62.8533 13.1 62.956 13.1733 63 13.32L65.552 23.374C65.5667 23.418 65.5887 23.44 65.618 23.44C65.6473 23.44 65.6693 23.418 65.684 23.374L68.148 13.32C68.192 13.1733 68.2947 13.1 68.456 13.1H70.502C70.7073 13.1 70.788 13.1953 70.744 13.386L66.938 28.28C66.894 28.4267 66.7913 28.5 66.63 28.5H64.584C64.4227 28.5 64.32 28.4267 64.276 28.28L61.702 17.786C61.6873 17.742 61.6653 17.72 61.636 17.72C61.6067 17.7053 61.5847 17.7273 61.57 17.786L59.106 28.28C59.062 28.4267 58.9667 28.5 58.82 28.5H56.884ZM75.7438 17.082C76.6678 17.082 77.4818 17.2433 78.1858 17.566C78.8898 17.8887 79.4325 18.336 79.8138 18.908C80.1952 19.4653 80.3858 20.1033 80.3858 20.822V28.236C80.3858 28.3093 80.3565 28.3753 80.2978 28.434C80.2538 28.478 80.1952 28.5 80.1218 28.5H78.0978C78.0245 28.5 77.9585 28.478 77.8998 28.434C77.8558 28.3753 77.8338 28.3093 77.8338 28.236V27.532C77.8338 27.488 77.8192 27.466 77.7898 27.466C77.7605 27.4513 77.7312 27.4587 77.7018 27.488C76.9832 28.28 75.9418 28.676 74.5778 28.676C73.4778 28.676 72.5685 28.3973 71.8498 27.84C71.1458 27.2827 70.7938 26.454 70.7938 25.354C70.7938 24.21 71.1898 23.3227 71.9818 22.692C72.7885 22.0467 73.9178 21.724 75.3698 21.724H77.7238C77.7972 21.724 77.8338 21.6873 77.8338 21.614V21.086C77.8338 20.514 77.6652 20.074 77.3278 19.766C76.9905 19.4433 76.4845 19.282 75.8098 19.282C75.2525 19.282 74.7978 19.3847 74.4458 19.59C74.1085 19.7807 73.8958 20.052 73.8078 20.404C73.7638 20.58 73.6612 20.6533 73.4998 20.624L71.3658 20.36C71.2925 20.3453 71.2265 20.3233 71.1678 20.294C71.1238 20.25 71.1092 20.1987 71.1238 20.14C71.2412 19.2453 71.7178 18.512 72.5538 17.94C73.4045 17.368 74.4678 17.082 75.7438 17.082ZM75.2158 26.652C75.9345 26.652 76.5505 26.4613 77.0638 26.08C77.5772 25.6987 77.8338 25.2147 77.8338 24.628V23.594C77.8338 23.5207 77.7972 23.484 77.7238 23.484H75.8758C75.0985 23.484 74.4825 23.6307 74.0278 23.924C73.5878 24.2173 73.3678 24.6353 73.3678 25.178C73.3678 25.6473 73.5365 26.014 73.8738 26.278C74.2258 26.5273 74.6732 26.652 75.2158 26.652ZM88.7381 19.062C88.7381 19.1353 88.7088 19.2013 88.6501 19.26C88.6061 19.304 88.5474 19.326 88.4741 19.326H86.2301C86.1568 19.326 86.1201 19.3627 86.1201 19.436V24.738C86.1201 25.2953 86.2374 25.6987 86.4721 25.948C86.7214 26.1973 87.1101 26.322 87.6381 26.322H88.2981C88.3715 26.322 88.4301 26.3513 88.4741 26.41C88.5328 26.454 88.5621 26.5127 88.5621 26.586V28.236C88.5621 28.3973 88.4741 28.4927 88.2981 28.522L87.1541 28.544C85.9954 28.544 85.1301 28.346 84.5581 27.95C83.9861 27.554 83.6928 26.806 83.6781 25.706V19.436C83.6781 19.3627 83.6414 19.326 83.5681 19.326H82.3141C82.2408 19.326 82.1748 19.304 82.1161 19.26C82.0721 19.2013 82.0501 19.1353 82.0501 19.062V17.522C82.0501 17.4487 82.0721 17.39 82.1161 17.346C82.1748 17.2873 82.2408 17.258 82.3141 17.258H83.5681C83.6414 17.258 83.6781 17.2213 83.6781 17.148V14.574C83.6781 14.5007 83.7001 14.442 83.7441 14.398C83.8028 14.3393 83.8688 14.31 83.9421 14.31H85.8561C85.9294 14.31 85.9881 14.3393 86.0321 14.398C86.0908 14.442 86.1201 14.5007 86.1201 14.574V17.148C86.1201 17.2213 86.1568 17.258 86.2301 17.258H88.4741C88.5474 17.258 88.6061 17.2873 88.6501 17.346C88.7088 17.39 88.7381 17.4487 88.7381 17.522V19.062ZM95.4758 28.676C94.3465 28.676 93.3711 28.39 92.5498 27.818C91.7285 27.2313 91.1565 26.4467 90.8338 25.464C90.5991 24.804 90.4818 23.924 90.4818 22.824C90.4818 21.768 90.5991 20.9027 90.8338 20.228C91.1418 19.26 91.7065 18.4973 92.5278 17.94C93.3638 17.368 94.3465 17.082 95.4758 17.082C96.6198 17.082 97.6171 17.368 98.4678 17.94C99.3185 18.512 99.8831 19.2307 100.162 20.096C100.235 20.3307 100.286 20.5653 100.316 20.8V20.844C100.316 20.9907 100.235 21.0787 100.074 21.108L98.0938 21.394H98.0498C97.9178 21.394 97.8298 21.3207 97.7858 21.174C97.7858 21.1007 97.7785 21.042 97.7638 20.998C97.7345 20.8807 97.7051 20.778 97.6758 20.69C97.5438 20.2793 97.2798 19.942 96.8838 19.678C96.4878 19.414 96.0185 19.282 95.4758 19.282C94.9185 19.282 94.4418 19.4287 94.0458 19.722C93.6645 20.0007 93.4078 20.3893 93.2758 20.888C93.1291 21.3573 93.0558 22.01 93.0558 22.846C93.0558 23.6527 93.1218 24.3053 93.2538 24.804C93.4005 25.3173 93.6645 25.728 94.0458 26.036C94.4271 26.3293 94.9038 26.476 95.4758 26.476C96.0331 26.476 96.5098 26.3367 96.9058 26.058C97.3165 25.7647 97.5805 25.376 97.6978 24.892C97.7125 24.8627 97.7198 24.826 97.7198 24.782C97.7345 24.7673 97.7418 24.7453 97.7418 24.716C97.7858 24.54 97.8885 24.4667 98.0498 24.496L100.03 24.804C100.103 24.8187 100.162 24.8553 100.206 24.914C100.264 24.958 100.286 25.024 100.272 25.112C100.228 25.3467 100.191 25.5153 100.162 25.618C99.8831 26.5567 99.3185 27.3047 98.4678 27.862C97.6171 28.4047 96.6198 28.676 95.4758 28.676ZM107.867 17.082C109.055 17.082 110.001 17.434 110.705 18.138C111.424 18.842 111.783 19.8027 111.783 21.02V28.236C111.783 28.3093 111.754 28.3753 111.695 28.434C111.651 28.478 111.593 28.5 111.519 28.5H109.495C109.422 28.5 109.356 28.478 109.297 28.434C109.253 28.3753 109.231 28.3093 109.231 28.236V21.548C109.231 20.8733 109.041 20.3307 108.659 19.92C108.278 19.4947 107.772 19.282 107.141 19.282C106.511 19.282 105.997 19.4873 105.601 19.898C105.22 20.3087 105.029 20.8513 105.029 21.526V28.236C105.029 28.3093 105 28.3753 104.941 28.434C104.897 28.478 104.839 28.5 104.765 28.5H102.741C102.668 28.5 102.602 28.478 102.543 28.434C102.499 28.3753 102.477 28.3093 102.477 28.236V13.364C102.477 13.2907 102.499 13.232 102.543 13.188C102.602 13.1293 102.668 13.1 102.741 13.1H104.765C104.839 13.1 104.897 13.1293 104.941 13.188C105 13.232 105.029 13.2907 105.029 13.364V18.226C105.029 18.27 105.044 18.2993 105.073 18.314C105.103 18.3287 105.125 18.314 105.139 18.27C105.741 17.478 106.65 17.082 107.867 17.082ZM123.072 28.5C122.926 28.5 122.83 28.4267 122.786 28.28L118.166 13.408L118.144 13.32C118.144 13.1733 118.225 13.1 118.386 13.1H120.564C120.726 13.1 120.828 13.1733 120.872 13.32L124.172 24.804C124.187 24.848 124.209 24.87 124.238 24.87C124.268 24.87 124.29 24.848 124.304 24.804L127.582 13.32C127.626 13.1733 127.729 13.1 127.89 13.1H130.024C130.112 13.1 130.178 13.1293 130.222 13.188C130.266 13.2467 130.274 13.32 130.244 13.408L125.558 28.28C125.514 28.4267 125.419 28.5 125.272 28.5H123.072ZM133.728 15.718C133.273 15.718 132.899 15.5713 132.606 15.278C132.313 14.9847 132.166 14.6107 132.166 14.156C132.166 13.7013 132.313 13.3273 132.606 13.034C132.899 12.7407 133.273 12.594 133.728 12.594C134.183 12.594 134.557 12.7407 134.85 13.034C135.143 13.3273 135.29 13.7013 135.29 14.156C135.29 14.6107 135.143 14.9847 134.85 15.278C134.557 15.5713 134.183 15.718 133.728 15.718ZM132.672 28.5C132.599 28.5 132.533 28.478 132.474 28.434C132.43 28.3753 132.408 28.3093 132.408 28.236V17.5C132.408 17.4267 132.43 17.368 132.474 17.324C132.533 17.2653 132.599 17.236 132.672 17.236H134.696C134.769 17.236 134.828 17.2653 134.872 17.324C134.931 17.368 134.96 17.4267 134.96 17.5V28.236C134.96 28.3093 134.931 28.3753 134.872 28.434C134.828 28.478 134.769 28.5 134.696 28.5H132.672ZM144.858 13.364C144.858 13.2907 144.88 13.232 144.924 13.188C144.982 13.1293 145.048 13.1 145.122 13.1H147.146C147.219 13.1 147.278 13.1293 147.322 13.188C147.38 13.232 147.41 13.2907 147.41 13.364V28.236C147.41 28.3093 147.38 28.3753 147.322 28.434C147.278 28.478 147.219 28.5 147.146 28.5H145.122C145.048 28.5 144.982 28.478 144.924 28.434C144.88 28.3753 144.858 28.3093 144.858 28.236V27.576C144.858 27.532 144.843 27.5027 144.814 27.488C144.784 27.4733 144.755 27.488 144.726 27.532C144.08 28.2947 143.237 28.676 142.196 28.676C141.154 28.676 140.274 28.4047 139.556 27.862C138.837 27.3193 138.316 26.564 137.994 25.596C137.73 24.7747 137.598 23.858 137.598 22.846C137.598 21.8047 137.722 20.91 137.972 20.162C138.294 19.194 138.815 18.4387 139.534 17.896C140.252 17.3533 141.154 17.082 142.24 17.082C143.252 17.082 144.08 17.4487 144.726 18.182C144.755 18.2113 144.784 18.226 144.814 18.226C144.843 18.2113 144.858 18.182 144.858 18.138V13.364ZM144.33 25.42C144.667 24.8187 144.836 23.968 144.836 22.868C144.836 21.724 144.652 20.8513 144.286 20.25C143.89 19.6047 143.332 19.282 142.614 19.282C141.866 19.282 141.279 19.59 140.854 20.206C140.414 20.8513 140.194 21.746 140.194 22.89C140.194 23.9167 140.37 24.76 140.722 25.42C141.132 26.124 141.756 26.476 142.592 26.476C143.34 26.476 143.919 26.124 144.33 25.42ZM159.655 21.614C159.713 21.9807 159.743 22.3913 159.743 22.846L159.721 23.528C159.721 23.704 159.633 23.792 159.457 23.792H152.571C152.497 23.792 152.461 23.8287 152.461 23.902C152.505 24.386 152.571 24.716 152.659 24.892C153.011 25.948 153.869 26.4833 155.233 26.498C156.23 26.498 157.022 26.0873 157.609 25.266C157.667 25.178 157.741 25.134 157.829 25.134C157.887 25.134 157.939 25.156 157.983 25.2L159.347 26.322C159.479 26.4247 159.501 26.542 159.413 26.674C158.958 27.3193 158.349 27.818 157.587 28.17C156.839 28.522 156.003 28.698 155.079 28.698C153.935 28.698 152.959 28.4413 152.153 27.928C151.361 27.4147 150.781 26.696 150.415 25.772C150.077 24.98 149.909 23.88 149.909 22.472C149.909 21.6213 149.997 20.932 150.173 20.404C150.466 19.3773 151.016 18.5707 151.823 17.984C152.644 17.3827 153.627 17.082 154.771 17.082C157.66 17.082 159.288 18.5927 159.655 21.614ZM154.771 19.282C154.228 19.282 153.773 19.4213 153.407 19.7C153.055 19.964 152.805 20.338 152.659 20.822C152.571 21.0713 152.512 21.394 152.483 21.79C152.453 21.8633 152.483 21.9 152.571 21.9H157.037C157.11 21.9 157.147 21.8633 157.147 21.79C157.117 21.4233 157.073 21.1447 157.015 20.954C156.883 20.426 156.619 20.0153 156.223 19.722C155.841 19.4287 155.357 19.282 154.771 19.282ZM166.849 28.676C165.69 28.676 164.693 28.3827 163.857 27.796C163.036 27.2093 162.456 26.3953 162.119 25.354C161.87 24.562 161.745 23.726 161.745 22.846C161.745 21.9073 161.862 21.0713 162.097 20.338C162.434 19.3113 163.021 18.512 163.857 17.94C164.693 17.368 165.698 17.082 166.871 17.082C167.986 17.082 168.946 17.368 169.753 17.94C170.574 18.512 171.154 19.304 171.491 20.316C171.755 21.02 171.887 21.856 171.887 22.824C171.887 23.748 171.762 24.584 171.513 25.332C171.176 26.3733 170.596 27.1947 169.775 27.796C168.954 28.3827 167.978 28.676 166.849 28.676ZM166.849 26.476C167.392 26.476 167.854 26.322 168.235 26.014C168.631 25.706 168.917 25.2733 169.093 24.716C169.24 24.232 169.313 23.616 169.313 22.868C169.313 22.076 169.24 21.46 169.093 21.02C168.932 20.4627 168.653 20.0373 168.257 19.744C167.861 19.436 167.377 19.282 166.805 19.282C166.262 19.282 165.793 19.436 165.397 19.744C165.001 20.0373 164.715 20.4627 164.539 21.02C164.392 21.5333 164.319 22.1493 164.319 22.868C164.319 23.5867 164.392 24.2027 164.539 24.716C164.7 25.2733 164.979 25.706 165.375 26.014C165.786 26.322 166.277 26.476 166.849 26.476Z" fill="#30404D"/>
</svg>
